<?xml version="1.0" encoding="UTF-8" standalone="no"?><!DOCTYPE svg PUBLIC "-//W3C//DTD SVG 1.1//EN" "http://www.w3.org/Graphics/SVG/1.1/DTD/svg11.dtd"><svg width="100%" height="100%" viewBox="0 0 56 56" version="1.1" xmlns="http://www.w3.org/2000/svg" xmlns:xlink="http://www.w3.org/1999/xlink" xml:space="preserve" xmlns:serif="http://www.serif.com/" style="fill-rule:evenodd;clip-rule:evenodd;stroke-linejoin:round;stroke-miterlimit:1.41421;"><path id="path28" d="M18.2,5.1l-7,5c0.8,1.7 2,3.3 3.5,4.3c1.4,1 2.5,2.2 3.5,3.4l0,-12.7Zm34.7,0l-16.4,10.6l0,1.7l0.1,0c1.4,-0.9 3,-1.4 4.8,-1.2c1.2,0.2 2.2,0.8 3,1.7c2.138,2.543 3.431,5.689 3.7,9c0.5,3 0.9,5.5 2.4,6.9c0.726,0.556 1.591,0.902 2.5,1l-0.1,-29.7Zm-33.2,0l0,14.8l1,1.5l2,2.7c0.7,0.6 1.4,1 2.2,1c2.8,0 5.2,-2.1 7.7,-4.5l1.9,-1.6l0,-3.3l-14.8,-10.6Zm-10,5.9l-6.5,4.6l-0.2,19l1,-0.5c0.696,-0.415 1.307,-0.958 1.8,-1.6l0.4,-0.7c1.341,-2.089 2.81,-4.093 4.4,-6c1.2,-1.3 2.4,-2.5 3.9,-2.6c0.7,-0.1 1.5,0.2 2,0.9c0.4,0.7 0.6,1.6 0.7,2.8c0.2,1.6 0.4,2.6 0.7,3.2c0,0.3 0.2,0.4 0.3,0.6l0,-10c-1.148,-1.866 -2.641,-3.495 -4.4,-4.8c-1.8,-1.3 -3,-3 -4,-4.9l-0.1,0Zm31,6.9c-1.1,0 -2.2,0.3 -3.3,1l-0.9,0.6l0,27l0.3,0.6l-0.3,0.1l0,3.7l16.5,-9.2l0,-5.1c-1.286,-0.156 -2.5,-0.677 -3.5,-1.5c-2.2,-1.9 -2.6,-5 -3,-7.9c-0.6,-3 -1.2,-5.9 -3.3,-8l0,-0.2c-0.639,-0.718 -1.54,-1.15 -2.5,-1.2l0,0.1Zm-6.2,3.4l-0.8,0.6c-2.5,2.4 -5.2,5 -8.8,4.9c-1.2,-0.067 -2.337,-0.564 -3.2,-1.4l-2,-2.4l0.1,9c1.4,0.8 3.7,1.7 7,3.7c3.031,1.849 5.652,4.299 7.7,7.2l0,-21.6Zm-19.8,3.6c-0.5,0 -1.7,0.9 -2.9,2.2c-1.566,1.772 -2.971,3.68 -4.2,5.7l-0.4,0.7c0,0 -0.8,1.1 -2.3,2c-0.6,0.4 -1.2,0.8 -1.9,1l0,1.6c0,4 0.2,8.8 0.1,12.8c5.2,-4 9.9,-8 15,-12l0,-5.9c-0.742,-0.538 -1.328,-1.263 -1.7,-2.1c-0.5,-1 -0.7,-2.2 -0.8,-3.9c-0.1,-1 -0.3,-1.7 -0.5,-2c-0.2,-0.2 -0.2,-0.2 -0.4,-0.1Zm26,5.7l4.5,0l0,3.2l-4,0l0,12l-0.4,0l0,-12l-0.1,-3.2Zm-20.9,3.4l0,4.9l14.7,12l0,-4.9c-1.1,-2 -3.6,-5.7 -8.5,-8.8c-2.7,-1.6 -4.7,-2.5 -6.2,-3.2Z" style="fill:#4db6ac;fill-rule:nonzero;"/></svg>