<svg xmlns:svg="http://www.w3.org/2000/svg" xmlns="http://www.w3.org/2000/svg" width="78.7" height="121.7" viewBox="0 0 78.7 121.7" version="1.1"><style>.liquid,.black{fill:white}</style><path d="m22.5 37.7c-4 0-6.8 0.7-9 1.6 0 3 0 6.3 0 9 0 5.4 4.4 9.8 9.8 9.8l25.4 0c5.4 0 9.8-4.4 9.8-9.8 0-3 0-6.3 0-9-2.7 1.1-4.4 2.6-5.7 3.5-1.1 0.7-4.2 2.1-6.9 2.3l-2.4 0c-1.7-0.1-3.7-0.5-5-1.5-2.4-1.9-7.2-5.9-16.1-5.9z" fill="#355391" class="liquid"/><path class="black" d="m61.9-0.1c-1.4 0-2.5 1.1-2.5 2.5 0 0.7 0.3 1.4 0.8 1.8l-8.1 8.1c-1.4-0.2-2.9-0.2-4.2-0.2l-23.7 0c-8-0.1-14 1.9-18 6-4.1 4.1-6.1 10.6-6.1 19.7l0 9.7c-0.3 2 0.2 5 1.5 9 1.3 4 4.5 6.7 9.7 8.2-4 1.1-6.9 3.7-8.7 7.9-1.8 4.2-2.6 8.1-2.5 11.6l0 14.6c0 6.4 1.3 12.7 5.8 16.6 4.7 4.1 12.9 6.3 18.4 6.3l23.4 0c8.1 0 16.1-3 20.2-8.5 2.5-4.2 4-9.9 4-14.4l0-14.6c0.1-3.5-0.7-7.4-2.5-11.6-1.8-4.2-4.7-6.8-8.7-7.9 5.2-1.5 8.4-4.2 9.7-8.2 1.3-4 1.8-7 1.5-9l0-9.7c0-4.9-0.8-10.1-2.5-14.4l5-5c0.5 0.5 1.1 0.8 1.8 0.8 1.4 0 2.5-1.1 2.5-2.5 0-0.7-0.3-1.4-0.8-1.8-1.2-1.2-2.4-2.4-3.6-3.5l-7.7 7.7-8.3 8.3c0.9 1.3 1.6 3 2.1 5l0 0c0.3 1.7 0.5 3.6 0.5 5.8l0 10.1c0.1 2.9-0.6 5.6-2.3 8.3-1.7 2.6-5.2 4-10.5 4.2l-24.3 0c-5.2-0.3-8.7-1.7-10.4-4.4-1.7-2.6-2.5-5.4-2.3-8.2l0-10.1c0-5.4 1.1-9.3 3.3-11.6 2.2-2.3 5.4-3.5 9.8-3.4l24.3 0 9.6-9.6 9.2-9.2-3.5-3.5c-0.5-0.6-1.1-0.9-1.9-0.9zm-13.8 71.6c3.4 0 6.4 0.9 8.9 2.9 2.5 1.9 3.8 5 3.9 9.2l0 15.6c-0.2 3.9-1.6 6.8-4.2 8.7-2.6 1.7-6.1 2.6-9 2.8l-7 0-16.5 0c-3.3 0-6.3-0.9-9-2.7-2.7-1.9-4.1-4.8-4.2-8.7l0-15.6c0.2-4.4 1.5-7.4 4-9.3 2.5-1.9 5.5-2.9 8.8-2.8 7.9-0.2 16.3-0.1 24.3-0.1z" fill="#333"/><circle class="bubble liquid" r="3.5" cx="54" cy="25"/><circle class="bubble liquid" r="2.5" cx="47.5" cy="29"/><circle class="bubble liquid" r="2" cx="63" cy="16.5"/></svg>