<svg xmlns="http://www.w3.org/2000/svg" viewBox="0 0 512 512"><defs><radialGradient id="b" cx="87.4%" cy="-12.9%" r="128%" gradientTransform="matrix(.8 0 0 1 .18 .13)"><stop offset=".13" stop-color="#ffbd4f"/><stop offset=".28" stop-color="#ff980e"/><stop offset=".47" stop-color="#ff3750"/><stop offset=".78" stop-color="#eb0878"/><stop offset=".86" stop-color="#e50080"/></radialGradient><radialGradient id="c" cx="49%" cy="40%" r="128%" gradientTransform="matrix(.82 0 0 1 .09 0)"><stop offset=".3" stop-color="#960e18"/><stop offset=".35" stop-color="#b11927" stop-opacity=".74"/><stop offset=".43" stop-color="#db293d" stop-opacity=".34"/><stop offset=".5" stop-color="#f5334b" stop-opacity=".09"/><stop offset=".53" stop-color="#ff3750" stop-opacity="0"/></radialGradient><radialGradient id="d" cx="48%" cy="-12%" r="140%"><stop offset=".13" stop-color="#fff44f"/><stop offset=".53" stop-color="#ff980e"/></radialGradient><radialGradient id="e" cx="22.76%" cy="110.11%" r="100%"><stop offset=".35" stop-color="#3a8ee6"/><stop offset=".67" stop-color="#9059ff"/><stop offset="1" stop-color="#c139e6"/></radialGradient><radialGradient id="f" cx="52%" cy="33%" r="59%" gradientTransform="scale(.9 1)"><stop offset=".21" stop-color="#9059ff" stop-opacity="0"/><stop offset=".97" stop-color="#6e008b" stop-opacity=".6"/></radialGradient><radialGradient id="g" cx="210%" cy="-100%" r="290%"><stop offset=".1" stop-color="#ffe226"/><stop offset=".79" stop-color="#ff7139"/></radialGradient><radialGradient id="h" cx="84%" cy="-41%" r="180%"><stop offset=".11" stop-color="#fff44f"/><stop offset=".46" stop-color="#ff980e"/><stop offset=".72" stop-color="#ff3647"/><stop offset=".9" stop-color="#e31587"/></radialGradient><radialGradient id="i" cx="16.1%" cy="-18.6%" r="348.8%" gradientTransform="scale(1 .47) rotate(84 .28 -.3)"><stop offset="0" stop-color="#fff44f"/><stop offset=".3" stop-color="#ff980e"/><stop offset=".57" stop-color="#ff3647"/><stop offset=".74" stop-color="#e31587"/></radialGradient><radialGradient id="j" cx="18.9%" cy="-42.5%" r="238.4%"><stop offset=".14" stop-color="#fff44f"/><stop offset=".48" stop-color="#ff980e"/><stop offset=".66" stop-color="#ff3647"/><stop offset=".9" stop-color="#e31587"/></radialGradient><radialGradient id="k" cx="159.3%" cy="-44.72%" r="313.1%"><stop offset=".09" stop-color="#fff44f"/><stop offset=".63" stop-color="#ff980e"/></radialGradient><linearGradient id="a" x1="87.25%" y1="15.5%" x2="9.4%" y2="93.1%"><stop offset=".05" stop-color="#fff44f"/><stop offset=".37" stop-color="#ff980e"/><stop offset=".53" stop-color="#ff3647"/><stop offset=".7" stop-color="#e31587"/></linearGradient><linearGradient id="l" x1="80%" y1="14%" x2="18%" y2="84%"><stop offset=".17" stop-color="#fff44f" stop-opacity=".8"/><stop offset=".6" stop-color="#fff44f" stop-opacity="0"/></linearGradient></defs><path d="M478.71 166.35c-10.44-25.12-31.6-52.24-48.21-60.82 13.52 26.5 21.34 53.1 24.33 72.94l.05.4C427.71 111.14 381.63 83.82 344 24.35c-1.9-3-3.8-6.02-5.66-9.2a73.72 73.72 0 01-2.65-4.97 43.7 43.7 0 01-3.59-9.5.63.63 0 00-.55-.65.82.82 0 00-.45 0l-.12.07-.17.1.1-.14c-60.37 35.36-80.85 100.76-82.74 133.49a120.25 120.25 0 00-66.14 25.48 71.36 71.36 0 00-6.22-4.7 111.34 111.34 0 01-.68-58.73c-24.68 11.24-43.89 29.01-57.85 44.7h-.1c-9.53-12.06-8.86-51.87-8.32-60.18-.11-.52-7.1 3.63-8.02 4.25a175.07 175.07 0 00-23.49 20.12 210.48 210.48 0 00-22.44 26.92l-.01.03.01-.03a202.84 202.84 0 00-32.25 72.8c-.11.52-.2 1.06-.32 1.59a397 397 0 00-2.37 15l-.05.52a229.07 229.07 0 00-3.9 33.16L16 255.7C16 388.4 123.6 496 256.32 496c118.87 0 217.56-86.29 236.89-199.63.4-3.08.73-6.17 1.09-9.27 4.77-41.21-.53-84.53-15.59-120.75zm-277 188.1c1.13.53 2.19 1.12 3.34 1.64l.16.1a126.2 126.2 0 01-3.5-1.74zm55.06-144.93zm198.13-30.6l-.03-.23.04.26z" fill="url(#a)"/><path d="M478.71 166.35c-10.44-25.12-31.6-52.24-48.21-60.82 13.52 26.5 21.34 53.1 24.33 72.94 0-.06.02.05.04.22l.04.26c22.68 61.47 10.32 123.98-7.48 162.18-27.54 59.1-94.21 119.67-198.57 116.71C136.1 454.65 36.76 371 18.22 261.41c-3.38-17.28 0-26.05 1.7-40.08-2.07 10.81-2.86 13.94-3.9 33.15l-.02 1.23C16 388.41 123.6 496 256.32 496c118.87 0 217.56-86.29 236.89-199.63.4-3.08.73-6.17 1.09-9.27 4.77-41.21-.53-84.53-15.59-120.75z" fill="url(#b)"/><path d="M478.71 166.35c-10.44-25.12-31.6-52.24-48.21-60.82 13.52 26.5 21.34 53.1 24.33 72.94 0-.06.02.05.04.22l.04.26c22.68 61.47 10.32 123.98-7.48 162.18-27.54 59.1-94.21 119.67-198.57 116.71C136.1 454.65 36.76 371 18.22 261.41c-3.38-17.28 0-26.05 1.7-40.08-2.07 10.81-2.86 13.94-3.9 33.15l-.02 1.23C16 388.41 123.6 496 256.32 496c118.87 0 217.56-86.29 236.89-199.63.4-3.08.73-6.17 1.09-9.27 4.77-41.21-.53-84.53-15.59-120.75z" fill="url(#c)"/><path d="M361.92 194.6c.53.37 1 .73 1.5 1.1a130.7 130.7 0 00-22.31-29.11C266.4 91.89 321.5 4.63 330.8.19l.1-.13c-60.37 35.35-80.85 100.76-82.73 133.48 2.8-.2 5.6-.43 8.44-.43 45.05 0 84.29 24.77 105.3 61.49z" fill="url(#d)"/><path d="M256.77 209.51c-.4 5.98-21.51 26.6-28.9 26.6-68.34 0-79.43 41.33-79.43 41.33 3.03 34.81 27.26 63.48 56.61 78.65 1.34.69 2.7 1.31 4.05 1.93a132.77 132.77 0 007.06 2.89 106.74 106.74 0 0031.27 6.03c119.78 5.62 142.99-143.2 56.55-186.41 22.13-3.85 45.11 5.05 57.94 14.07-21-36.72-60.25-61.49-105.3-61.49-2.85 0-5.64.24-8.44.43a120.25 120.25 0 00-66.14 25.49c3.66 3.1 7.8 7.24 16.51 15.83 16.3 16.06 58.13 32.7 58.22 34.65z" fill="url(#e)"/><path d="M256.77 209.51c-.4 5.98-21.51 26.6-28.9 26.6-68.34 0-79.43 41.33-79.43 41.33 3.03 34.81 27.26 63.48 56.61 78.65 1.34.69 2.7 1.31 4.05 1.93a132.77 132.77 0 007.06 2.89 106.74 106.74 0 0031.27 6.03c119.78 5.62 142.99-143.2 56.55-186.41 22.13-3.85 45.11 5.05 57.94 14.07-21-36.72-60.25-61.49-105.3-61.49-2.85 0-5.64.24-8.44.43a120.25 120.25 0 00-66.14 25.49c3.66 3.1 7.8 7.24 16.51 15.83 16.3 16.06 58.13 32.7 58.22 34.65z" fill="url(#f)"/><path d="M170.83 151.04a244.04 244.04 0 014.98 3.3 111.34 111.34 0 01-.67-58.74c-24.7 11.25-43.9 29.01-57.85 44.7 1.15-.03 36.01-.66 53.54 10.74z" fill="url(#g)"/><path d="M18.22 261.41C36.77 370.99 136.1 454.65 248.85 457.84c104.37 2.96 171.04-57.62 198.58-116.71 17.8-38.2 30.16-100.7 7.48-162.18v-.02l-.04-.24c-.02-.17-.04-.28-.04-.22l.05.4c8.53 55.66-19.79 109.58-64.05 146.04l-.13.31c-86.25 70.23-168.78 42.37-185.49 30.97a144.1 144.1 0 01-3.5-1.74c-50.28-24.03-71.05-69.84-66.6-109.13-42.45 0-56.93-35.8-56.93-35.8s38.12-27.18 88.36-3.55c46.53 21.9 90.23 3.55 90.23 3.54-.09-1.95-41.92-18.59-58.22-34.65-8.72-8.59-12.85-12.72-16.52-15.83a71.36 71.36 0 00-6.22-4.7 282.93 282.93 0 00-4.98-3.3c-17.53-11.4-52.4-10.76-53.55-10.73h-.1c-9.53-12.07-8.86-51.88-8.32-60.19-.11-.51-7.1 3.63-8.02 4.26a175.07 175.07 0 00-23.49 20.12 210.48 210.48 0 00-22.44 26.92l-.01.03.01-.03a202.84 202.84 0 00-32.25 72.8c-.11.52-8.65 37.84-4.44 57.2z" fill="url(#h)"/><path d="M341.1 166.59a130.7 130.7 0 0122.31 29.1c1.33 1 2.56 2 3.61 2.96 54.49 50.2 25.94 121.2 23.81 126.26 44.26-36.46 72.58-90.38 64.05-146.04C427.71 111.14 381.63 83.82 344 24.35c-1.9-3-3.8-6.02-5.66-9.2a73.72 73.72 0 01-2.65-4.97 43.7 43.7 0 01-3.59-9.5.63.63 0 00-.55-.65.82.82 0 00-.45 0l-.12.07-.17.1c-9.3 4.43-64.41 91.7 10.3 166.39z" fill="url(#i)"/><path d="M367.02 198.65a47.43 47.43 0 00-3.6-2.95c-.5-.37-.97-.73-1.5-1.1-12.83-9.01-35.8-17.92-57.94-14.07 86.44 43.22 63.23 192.03-56.55 186.41a106.74 106.74 0 01-31.27-6.03 134.51 134.51 0 01-7.06-2.89 90.64 90.64 0 01-4.05-1.93l.16.1c16.71 11.4 99.24 39.25 185.49-30.97l.13-.31c2.13-5.06 30.68-76.06-23.8-126.26z" fill="url(#j)"/><path d="M148.44 277.44s11.1-41.33 79.43-41.33c7.39 0 28.51-20.62 28.9-26.6s-43.7 18.36-90.23-3.54c-50.24-23.63-88.36 3.54-88.36 3.54s14.48 35.81 56.93 35.81c-4.45 39.29 16.32 85.1 66.6 109.13 1.13.53 2.18 1.12 3.34 1.64-29.35-15.17-53.58-43.84-56.61-78.65z" fill="url(#k)"/><path d="M478.71 166.35c-10.44-25.12-31.6-52.24-48.21-60.82 13.52 26.5 21.34 53.1 24.33 72.94l.05.4C427.71 111.14 381.63 83.82 344 24.35c-1.9-3-3.8-6.02-5.66-9.2a73.72 73.72 0 01-2.65-4.97 43.7 43.7 0 01-3.59-9.5.63.63 0 00-.55-.65.82.82 0 00-.45 0l-.12.07-.17.1.1-.14c-60.37 35.36-80.85 100.76-82.74 133.49 2.8-.2 5.6-.43 8.45-.43 45.05 0 84.29 24.77 105.3 61.48-12.84-9.01-35.81-17.92-57.95-14.07 86.44 43.22 63.23 192.03-56.55 186.41a106.74 106.74 0 01-31.27-6.03 134.51 134.51 0 01-7.06-2.89 90.64 90.64 0 01-4.05-1.93l.17.1a144.1 144.1 0 01-3.5-1.74c1.12.53 2.18 1.12 3.33 1.64-29.35-15.17-53.58-43.84-56.6-78.65 0 0 11.08-41.33 79.42-41.33 7.4 0 28.51-20.62 28.9-26.6-.09-1.95-41.91-18.59-58.22-34.65-8.71-8.59-12.85-12.72-16.51-15.83a71.36 71.36 0 00-6.23-4.7 111.34 111.34 0 01-.67-58.73c-24.7 11.24-43.9 29-57.85 44.7h-.11c-9.53-12.07-8.86-51.87-8.32-60.19-.11-.51-7.1 3.63-8.02 4.26a175.07 175.07 0 00-23.49 20.12 210.48 210.48 0 00-22.43 26.92l-.01.03.01-.03a202.84 202.84 0 00-32.25 72.8c-.11.52-.2 1.06-.32 1.59a397.87 397.87 0 00-2.77 15.15c-.02.18.02-.17 0 0a279.56 279.56 0 00-3.55 33.53l-.02 1.23C16 388.41 123.6 496 256.32 496c118.87 0 217.56-86.29 236.89-199.63.4-3.08.73-6.17 1.09-9.27 4.77-41.21-.53-84.53-15.59-120.75zm-23.84 12.34l.04.26v-.02l-.04-.24z" fill="url(#l)"/></svg>
