<svg xmlns="http://www.w3.org/2000/svg" xmlns:xlink="http://www.w3.org/1999/xlink" viewBox="0 0 108 108"><defs><linearGradient xlink:href="#a" id="b" x1="37.3" y1="74.4" x2="78.9" y2="25.1" gradientUnits="userSpaceOnUse" gradientTransform="translate(-54.3 -53.5) scale(2.00328)"/></defs><linearGradient id="a" x1="78.9" x2="37.3" y1="25.1" y2="74.5"><stop offset="9%" stop-color="#FF980E"/><stop offset="18%" stop-color="#FF8B16"/><stop offset="36%" stop-color="#FF672A"/><stop offset="56%" stop-color="#FF3647"/><stop offset="94%" stop-color="#E31587"/></linearGradient><path d="M102.2 35.5c-2.4-5.4-7.6-12.2-11.4-13.6-1.1-.4-2.3 1-2.1 2.1-5.5-6.8-11.8-12.7-16.2-20.6L71.3.7c-.6-.8-1.8-1-3.4 0-8.5 5-16.7 18-17.2 27.1-1 .3-6.5.8-5.7 3.7 1.2 2.6 3.5.2 6.4 0 8.7-.7 13.9 1.5 18.8 6.2-3.2-.6-8-1.1-8 1.7 0 1.2 2.5 2.2 3.5 3a18.2 18.2 0 0 1 7 18.7 18.4 18.4 0 0 1-20 15.3 20 20 0 0 1-19.5-16.7c2.8-6 11.3-7 13.3-7 2.8 0 3.7-.5 5.7-2.2 3.7-3.3 4.8-5.7 2.4-7-2.1-1-5.8-2.8-8.8-4.7-5.7-3.9-4.6-5-7.1-6.2-.6-3.2-.8-4.5-.4-7.9.2-2.2 1-3.6.1-4.3-1.2-1-1.5-.5-2.4-.2-4.8 1.6-8.8 6-10.4 7.5-.5-2.6-.7-5.3-.6-8 .4-2.6-1.1-3.8-3.7-2.3A45.4 45.4 0 0 0 2 56.6a52.1 52.1 0 1 0 100.2-21.1zm-37.7-5.8c-3.3-1-6.5-2-10-2 .3-5.7 5.2-15.2 8.9-18.4-1.4 4-2.7 13.9 1.1 20.4zm1-11c0-7.2 1.5-9.8 3-13.5 1.5 2.6 3.2 5 5 7.3C81 21.2 89.4 28.2 93.7 39c2 4.7-.2 16.9-7.9 24.3 1-5.7-.7-13.3-2.6-15.9-1.7-2.1-3.1-4.6-5.2-6.1-4.5-7-5-5.2-8-9.6a22.4 22.4 0 0 1-4.4-13zm3.2 56.1a22.6 22.6 0 0 0 1.4-33.3c15.7 5.2 12.4 24.2 10.4 26.6-2.2 2.7-7.5 5-11.8 6.8zM49.1 47.7c0 2.3-3.5.7-9.9 2.4-6.3 1.6-8.6 6.6-8.6 6.6 0-1.5.4-4.8-.5-5.6-.7-.7-1.9-.4-3.4-.7-3-.5-5.6-2.2-7.3-4.7 5.7-3 11.4-1.8 17.1.9 3.7 1.7 8.6.8 12.6 1zM34.5 25s-.4 2.7 0 5.6c0 0-3.2-1.2-5.3-1.2a41 41 0 0 1 5.3-4.4zM6 55.8c-1.7-10.8 5-26 15.2-34 .3 3.6.3 8.5 2.6 10.6.6.6 2.3.2 3.7.3 2.8.2 6.1.9 8.5 2.5 3.4 2.3 4.4 5.7 13 9.5 0 0-8.3 0-10.5-.8-4-1.3-6.7-3.5-14.6-3-3.4.2-9.5 2.8-9 4.6 1.3 5.2 7.2 8.6 11.7 9C25.2 68.3 41.3 81.3 55.7 81c26.3-.8 37.6-19 40.5-28.6.5 9.7-2.3 20.2-8 27.3C77.7 92.7 62 97.3 44.5 94.3A48.3 48.3 0 0 1 6 55.8zm96.1 5.5a48.6 48.6 0 0 1-91.6 14.8 51.3 51.3 0 0 0 41.1 22.3c23.2 1 41.7-12 47.2-33.8 3-11.9-.3-22.6-3.2-33.4 5.6 9 8 19.6 6.5 30.1z" fill="url(#b)"/></svg>
