<svg xmlns:dc="http://purl.org/dc/elements/1.1/" xmlns:cc="http://creativecommons.org/ns#" xmlns:rdf="http://www.w3.org/1999/02/22-rdf-syntax-ns#" xmlns:svg="http://www.w3.org/2000/svg" xmlns="http://www.w3.org/2000/svg" xmlns:sodipodi="http://sodipodi.sourceforge.net/DTD/sodipodi-0.dtd" xmlns:inkscape="http://www.inkscape.org/namespaces/inkscape" width="485" height="752" preserveAspectRatio="xMinYMin meet" viewBox="0 0 485 752" id="svg" version="1.1" inkscape:version="0.48.2 r9819">
	<style>
	.liquid{
		fill:	#fff;
	}
	.outline{
		fill:	#fff;
	}
</style><g id="logo" transform="translate(-121.3,-87.9)">
		<path d="m264.7 457.2c-11.3 -1.2 -19.2 -3.5 -29.9 -8.6 -16.5 -8 -27.4 -21.2 -32.1 -39 -1.8 -6.6 -2.2 -11.8 -2.6 -34.2 -0.5 -23.5 -0.3 -26.8 1.1 -29.5 3.1 -5.8 15.1 -11.3 32.1 -14.7 4.8 -1 14.6 -1.4 31.5 -1.4 23.5 0 24.9 0.1 35 2.7 12.8 3.4 29.8 11.5 39.9 19.2 24.5 18.7 49.4 25.6 84.7 23.5 24.4 -1.5 40.9 -5.9 50.2 -13.5l4.6 -3.8 -0.6 21.9c-0.7 26.4 -2.1 34.4 -8.3 47.1 -3.4 7 -5.8 10.4 -10.1 14.3 -10.1 9.2 -23.2 14.3 -41.2 16 -12.6 1.2 -143 1.1 -154.3 -0.1z" id="liquid" inkscape:connector-curvature="0" class="liquid"/>
		<path d="m261.9 839.6c-5.2 -0.2 -9.9 -0.7 -10.5 -1.2 -0.6 -0.5 -4.2 -1.1 -8.1 -1.5 -31 -3 -61.5 -15.1 -82.2 -32.5 -17.9 -15 -32.5 -42.3 -36.2 -67.6 -0.7 -4.4 -1.7 -9.1 -2.3 -10.4 -1.6 -3.3 -1.7 -128.7 -0.1 -132.2 0.6 -1.3 2.1 -6.5 3.2 -11.4 7 -29.4 27.1 -49.4 62 -61.5 5.7 -2 9.2 -3.7 9.2 -4.6 0 -0.8 -3.4 -3 -7.7 -4.9 -27.4 -12.5 -47.9 -36.2 -58.4 -67.5 -3.1 -9.4 -6.9 -25.7 -6.9 -30 -3.1 -40.3 -3.3 -86.1 0.9 -121.6 1.5 -12.4 6 -29.9 10.6 -40.8 17.6 -42.5 51.1 -65.8 106.8 -74.2 9.8 -1.5 23 -1.7 100.2 -2l89 -0.3 26.3 -26.2c14.4 -14.4 26.3 -26.7 26.3 -27.2 0 -0.5 -4.1 -5.1 -9.1 -10.2 -10.4 -10.6 -10.3 -9.9 -1.8 -17.9 2.9 -2.7 5.2 -5.1 5.1 -5.2 -0.1 -0.1 0 -0.2 0.3 -0.2 0.3 0 0.5 0.2 0.6 0.4 0.1 0.2 7.3 7.6 16.1 16.4 13.8 13.8 15.8 16.2 15 17.9 -0.6 1 -27.1 27.9 -58.9 59.6l-57.8 57.8 -65.5 0c-80.2 0 -88 0.7 -106 9.2 -17.6 8.3 -27.5 23.4 -32.7 49.5 -2 10.1 -3.1 98.1 -1.3 109.4 4.2 27.2 20.9 47 47.9 56.8 16.6 6.1 17.3 6.1 111.3 5.8 84.7 -0.3 85.4 -0.3 93.3 -2.5 26.1 -7.3 41.7 -22.7 48.7 -48.3 2.3 -8.3 2.3 -9.3 2.3 -59 0 -54 -0.3 -57.6 -5.2 -73.5 -1.4 -4.4 -3.6 -10.2 -5 -12.9l-2.5 -4.9 43.8 -43.9c24.1 -24.2 44.7 -44.4 45.7 -45 1.6 -0.9 4.1 1.2 18.2 15.3 9 9 16.6 16.5 16.9 16.6 0.8 0.4 0.7 1.2 -0.2 1.5 -0.4 0.1 -2.7 2.4 -5.2 5.1 -7.5 8 -6.9 8.1 -18 -2.8 -5.4 -5.3 -10.2 -9.6 -10.7 -9.6 -0.5 0 -7.6 6.7 -15.8 14.9l-14.9 14.9 4 9.9c11.9 29.3 14.7 53.1 14 122.4 -0.4 40.3 -0.6 44.2 -2.7 53.5 -4.9 22.1 -13.6 39 -26.1 50.9 -9 8.5 -16.1 12.9 -27.1 16.7 -8.3 2.9 -10.8 4.3 -9.2 5.3 0.5 0.3 3.9 1.7 7.6 3.1 26.6 10 46.1 40.5 55.4 86.3 2.1 10.3 3.1 112.7 1.4 132.8 -3.1 35 -13.2 60 -32.5 80.4 -8.4 8.8 -15.2 14.2 -26 20.5 -15 8.7 -34.6 15.2 -53.5 17.8 -4.7 0.6 -9.1 1.7 -9.9 2.3 -1 0.8 -24.9 1.1 -82 1.2 -44.3 0 -84.8 -0.1 -90 -0.3zm173.2 -68c28.8 -8.1 46.7 -23.8 53.9 -47.3l2.3 -7.5 0 -61c0 -68.5 0.2 -66.4 -7.5 -82.2 -8.6 -17.6 -24 -29.4 -46.5 -35.6 -8 -2.2 -8.5 -2.2 -96.5 -2.2 -80 0 -89.2 0.2 -96.2 1.7 -17.4 3.9 -32.8 12.2 -41.7 22.5 -5.1 5.8 -11.5 18.5 -13.8 27.3 -1.6 5.9 -1.8 12.5 -1.8 69 0 56.8 0.2 63.1 1.8 68.9 6.3 22.8 21.7 37.1 47.4 44.2 16.4 4.5 22.1 4.7 108.9 4.5 81 -0.2 82.1 -0.2 89.7 -2.4z" id="outline" inkscape:connector-curvature="0" class="outline"/>
	</g>
	<circle class="bubble liquid" r="15" cx="283" cy="191" />
	<circle class="bubble liquid" r="20" cx="326" cy="164" />
	<circle class="bubble liquid" r="13" cx="376" cy="112" />
</svg>
