<svg xmlns="http://www.w3.org/2000/svg" xml:space="preserve" fill-rule="evenodd" stroke-linejoin="round" fill="#d32323" clip-rule="evenodd" viewBox="0 0 90 90">
  <path d="m18.8 42.2 17.6 8.6a4 4 0 0 1-.8 7.5l-19 4.7a4 4 0 0 1-4.9-3.5c-.6-5.1 0-10.2 1.6-15a4 4 0 0 1 5.5-2.3ZM25.9 78.3l13-14.5a4 4 0 0 1 7 2.8l-.7 19.5a4 4 0 0 1-4.7 3.8c-5-.8-9.8-2.7-14-5.6a4 4 0 0 1-.6-6ZM56.8 59l18.5 6a4 4 0 0 1 2.4 5.6 34.9 34.9 0 0 1-9.3 11.9 4 4 0 0 1-6-1L52.2 65a4 4 0 0 1 4.7-6ZM75.6 47.2 57 52.6a4 4 0 0 1-4.5-6.1l11-16.2a4 4 0 0 1 6-.8C73 32.8 76 37 78.1 41.7a4 4 0 0 1-2.6 5.5ZM31.8 1.8c-3.3.9-6.5 2-9.6 3.5a4 4 0 0 0-1.7 5.6l18.3 31.7c2 3.6 7.5 2.1 7.5-2V4A4 4 0 0 0 42 0a56 56 0 0 0-10.2 1.8Z"/>
</svg>
