<?xml version="1.0" encoding="UTF-8" standalone="no"?>
<!DOCTYPE svg PUBLIC "-//W3C//DTD SVG 1.1//EN" "http://www.w3.org/Graphics/SVG/1.1/DTD/svg11.dtd">
<svg width="100%" height="100%" viewBox="0 0 90 90" version="1.1" xmlns="http://www.w3.org/2000/svg" xmlns:xlink="http://www.w3.org/1999/xlink" xml:space="preserve" xmlns:serif="http://www.serif.com/" style="fill-rule:evenodd;clip-rule:evenodd;stroke-linejoin:round;stroke-miterlimit:1.41421;">
    <g transform="matrix(1.67618,0,0,1.67618,-30.4277,-30.4284)">
        <path d="M29.398,43.354L39.848,48.45C41.858,49.43 41.547,52.386 39.377,52.927L28.098,55.74C26.691,56.09 25.301,55.12 25.135,53.679C24.78,50.598 25.131,47.555 26.078,44.738C26.538,43.37 28.101,42.721 29.398,43.354Z" style="fill:rgb(211,35,35);"/>
        <path d="M33.582,64.865L41.359,56.226C42.856,54.564 45.611,55.677 45.533,57.912L45.128,69.534C45.077,70.982 43.762,72.054 42.333,71.814C39.328,71.309 36.486,70.148 34.004,68.443C32.811,67.624 32.614,65.94 33.582,64.865Z" style="fill:rgb(211,35,35);"/>
        <path d="M52.022,53.369L63.077,56.962C64.453,57.409 65.124,58.966 64.501,60.272C63.204,62.988 61.323,65.416 58.973,67.355C57.856,68.278 56.181,68.007 55.413,66.778L49.251,56.916C48.066,55.02 49.896,52.678 52.022,53.369Z" style="fill:rgb(211,35,35);"/>
        <path d="M63.264,46.317L52.09,49.521C49.94,50.137 48.193,47.733 49.444,45.879L55.945,36.241C56.752,35.044 58.43,34.824 59.513,35.779C61.741,37.745 63.566,40.205 64.8,43.051C65.376,44.382 64.658,45.917 63.264,46.317Z" style="fill:rgb(211,35,35);"/>
        <path d="M37.153,19.2C35.142,19.739 33.223,20.451 31.408,21.316C30.149,21.917 29.674,23.467 30.371,24.675L41.293,43.593C42.519,45.715 45.763,44.846 45.763,42.395L45.763,20.551C45.763,19.156 44.576,18.051 43.185,18.161C41.182,18.319 39.164,18.661 37.153,19.2Z" style="fill:rgb(211,35,35);"/>
    </g>
</svg>
