<svg xmlns:svg="http://www.w3.org/2000/svg" xmlns="http://www.w3.org/2000/svg" width="196" height="196" viewBox="0 0 90.24 90.217">
  <defs><filter id="shadow"><feGaussianBlur stdDeviation="2.012" id="feGaussianBlur2990"/></filter><radialGradient id="finish-gradient" cx="13.547" cy="273.928" fx="13.547" fy="273.928" r="88" gradientTransform="matrix(-0.001,2.170,-2.182,-0.001,597.891,-28.930)" gradientUnits="userSpaceOnUse"/></defs>
  <style>.shade, .shadow{opacity:0.2;fill:#263238;} .shadow {filter:url(#shadow);} .tint {opacity:0.2;fill:#ffffff}</style>
  <path class="shadow" id="island-shadow" d="m24.666 12.21-0.432 0.004-0.337 0.119-0.19-0.119-0.408 0.048-0.432 0.223-0.6 0.509-0.793 0.779-0.091 1.283-0.19 0.631-0.071 0.874 0.071 0.194 0.195 0.095 0.22 1.136-0.119 0.49 0.532 1.596 0.076 0.845 0.218 0.172 0.214 0 0.485 0.821 0.218 0.557 0.408 0.194 0.119 0.532 0.438 0.29 0.313 0.509 0.48 0.797 0.147 0.22 0.095 0.456-0.166 0.413 0.024 0.171 0.028 0.462-0.166 0.679-0.143 0.485-0.071 0.484-0.024 0.024-0.266-0.29-0.48 0.048-0.503 0.514-0.119 0.361-0.313 0.318 0.048 0.337-0.457-0.095 0.024 0.438-0.337 0.024-0.043 0.313-0.194 0.147-0.024 0.533-0.238 0.1-0.143 0.313 0.071 0.365-0.29 0.024-0.261 0.339 0 0.266-0.385 0.199-0.071 0.266-0.432 0.172-0.047 0.555 0.076 0.603-0.846 0.125-0.19-0.143-0.603 0.024-0.527 0.194-0.238 0.218-0.196 0.052-0.356 0.485-0.48 0.532 0.048 0.413-0.408 0.024-0.071 0.267-0.337 0.171-0.19 0.484-0.432 0.29-0.22 0.343-0.337-0.024-0.214 0.147 0 0.29-0.456 0.367-0.024 0.313-0.166 0.143 0.195 0.827-0.095 0.46 0.048 0.579-0.432 0.148-0.024 0.29 0.456 0.532 0.125 0.714 0.07 0.398 0.172 0.242 0.003-0.003 0.192-0.12 0.143 0.29 0.218-0.071 0.071 0.656 0.242 0.119-0.19 0.627 0.166 0.656 0.846 0.336 0.361 0.144 0.385 0.071 0.242 0.632 0.101 0.508 0.503 0.745 0.027 0.548 0.001 0.037 0.337 0.503 0.071 0.367-0.071 0.385 0.242 0.024 0.071 0.218-0.211 0.144 0 0.001-0.003 0.001-0.024 0.414 0.434 0.095-0.071 0.19 0.171 0.242 0 0.583-0.215 0.187-0.003 0.003-0.071 0.295 0.313 0.408 0.1 0.437 0.006 0.01 0.236 0.399-0.024 0.437 0.432 0.242 0.434-0.028 0.437 0.195 0.048 0.19-0.238 0.803 0.313 0.941 0.1 0.702 0.238 0.095 0.006 0.438 0.095 0.218 0.195 0.024 0.048 0.266-0.313 0.456 0.313 0.343 0.058 0.122 0.113 0.239-0.024 0.242 0.432 0.242-0.024 0.432 0.656 1.402 0.052 0.533-0.024 0.266-0.242 0.436 0.024 0.196 0.123 0.579 0 0.946-0.095 0.19-0.019 0.827-0.313 0.627-0.047 0.413 0.076 0.481-0.147 0.413 0.052 0.87-0.19 0.389-0.037 0.689-0.01 0.205-0.143 0.46 0.095 0.242-0.337 0.656-0.119 0.627 0.218-0.071 0 0.385-0.19 0.101 0 0.242-0.143 0.214 0.071 0.218-0.119 0.874 0.485 1.786 0.437 0.119 0.313 0.751 0.218 0 0.339 0.65 0.076 0.87 0.579 0.266 0.19 0.242 0.337-0.099 0.41 0.19 0.389-0.047 0.48 0.29 0.218-0.047 0.557 0.214 0.19-0.123 0.603 0.29 0.652 0.775 1.182 0.551 0.267 0.385 0.484 0.313 0.603 0.119 0.771 0.361 0.726 0.604 0.604 0.166 0.627 0.65-0.024 0.676 0.195 0.437-0.119 0.242 0.652-0.242 0.285-0.318 0.29 0.071 0.408-0.652 0.432-0.27 0.386-0.194 0.024-0.457 0.195 0.048 0.214-0.171 0.19-0.75-0.024-0.19 0.385-0.077 0.413 0.119 0.261-0.123-0.047-0.19 0.22-0.242 0.071-0.413 0.428-0.628-0.047-0.194 0.408-0.29 0-0.561 0.095-0.29 0.84-0.632 0.242-0.432 0.138-1.985 0.261-0.315 0.313-0.052 0.362-0.532 0.261-0.486 0.361-0.194 0.218 0 0.432-0.341-0.076-0.456 0.823-0.49 0.456-0.024 0.242-0.147 0.456 0.024 0.432-0.099 0.434-0.243 0.408-0.678 0.598-0.656 0.48-0.413 0.385-0.414 1.084-0.171 0.432-0.436 1.06-0.367 0.674-0.512 0.527-0.775 0.913-0.56 0.622-0.704 0.214-0.266 0.46-0.39 0.889-0.175 0.266 0.071 0.119-0.19 0.261-0.147 0.389 0.071 0.434-0.028 1.615 0.646 0.408 0.071 0.508-0.171 0.19 0.119 0.218-0.047 0.238-0.243 0.243 0.119 1.301-0.199 0.143-0.408 0.676-0.123 0.674 0.137 0.19-0.313 0.676-0.318 0.38-0.361 0.869-0.347 0.333-0.408 0.143-0.343 0.385-0.194 1.35-0.08 0.989-0.414 0.356-0.413 0.503-0.294 0.817-0.343 0.794-0.56 0.48-0.485 0.741-0.827 0.218-0.076 0.38-0.65 0.866-0.661 0.194-0.047 0.333-0.365 0.65-0.462 0.333-0.389 2.015-1.511 0.842-0.974 0.404-0.874-0.196-0.071 0.166-0.607-0.047-0.408 0.434-0.03 0.166-0.194-0.823-0.745-0.674-0.285-0.266-0.202-0.003-0.003 0.006 0-0.533-0.402-0.408 0.006-2.414-1.174-0.361-0.436-0.436-0.313-0.291-0.41-0.698-0.309-0.389-0.389-0.071-0.532-0.018-0.143c-0.001 0-0.002 0-0.003 0l-0.012-0.092-1.035-0.386-0.313-0.266-0.071-0.218 0.089-0.603-0.194-0.922 0.238-0.557-0.007-0.177 0-0.003 0.003 0-0.021-0.502-0.337-0.941-0.107-0.159c-0.001 0-0.003 0-0.004 0l-0.33-0.488-0.194-0.485-0.46-0.46-0.024 0.195-0.385 0.004-0.41-0.171-0.432 0.076-0.432-0.166-0.385 0.125-0.194-0.095-0.19 0.19 0 0.218-0.362 0.413 0.024-0.266-0.143-0.214-0.071 0.19-0.48 0.365-0.432 0.006-0.076-0.22-0.168-0.944 0-0.003 0.003 0-0.056-0.315 0.024-0.194-0.123-0.698 0.238-0.732-0.022-0.086-0.004 0-0.095-0.367 0.091-0.609-0.313-0.337 0.214-0.484 0-0.024-0.047-0.267 0.214-0.46-0.147-0.585 0.095-0.19-0.125-0.436-0.313-0.313-0.071-0.414-0.413-0.119-0.238-0.313-0.438-0.19 0-0.047-0.242-0.726-0.456-0.438-0.194-0.047-0.266-0.845-0.22 0.123-0.456-0.218-1.065-1.207-1.059-0.503-0.171-0.047-0.386-0.652-0.869-0.456-0.527-0.143-0.39-0.413-0.48-0.166-0.413-0.604-0.699-0.432-0.29-0.024-0.119-0.024-0.337-0.095-0.894-0.508-0.356 0.028-0.318-0.557-0.747-0.19-0.166-0.076-0.024-0.024-0.266-0.238-0.408 0.024-0.84-0.214-0.22-0.171-0.123-0.071-0.095-0.047-0.242-0.29-0.722-0.19-0.261-0.242-0.125-0.267-0.166-0.047-0.147-0.071-0.551-0.194-0.413-0.238-0.339-0.341-0.408 0.028-0.65-0.385-0.622 0.123-0.485-0.266-0.527-0.143-0.242-0.266-0.19 0.123-0.218-0.171-0.339 0.052-0.095 0.024-0.456-0.337-0.456-0.243-0.46 0.024-0.386-0.313-0.817-0.19-0.456 0.242-0.913 0.419-0.313-0.218-0.337-0.242-0.147-0.434-0.19-0.047-0.047-0.294-1.131-0.214-0.266-0.166-0.218-0.413-0.408-0.143-0.071-0.243-0.414-0.194-0.551-0.385-0.361-0.266-0.48 0.004-0.751-0.727-0.385 0.053-0.313-0.196-0.505-0.337-0.171-0.194 0.071-0.579-0.095-0.267-0.579-0.095-0.166-0.099-0.095-0.047-0.076-0.46-0.481-0.095-0.674-0.385-0.19 0.171-0.965-0.361-0.071-0.047-0.119-0.101 0-0.218-0.793-0.091-0.171-0.194-0.432-0.024-0.291-0.413z"/>
  <g id="island"><path d="m24.669 9.39-0.432 0.004-0.337 0.119-0.19-0.119-0.408 0.048-0.432 0.223-0.6 0.509-0.793 0.779-0.091 1.283-0.19 0.631-0.071 0.874 0.071 0.194 0.195 0.095 0.22 1.136-0.119 0.49 0.532 1.596 0.076 0.845 0.218 0.172 0.214 0 0.485 0.821 0.218 0.557 0.408 0.194 0.119 0.532 0.438 0.29 0.313 0.509 0.48 0.797 0.147 0.22 0.095 0.456-0.166 0.413 0.024 0.171 0.028 0.462-0.166 0.679-0.143 0.485-0.071 0.484-0.024 0.024-0.266-0.29-0.48 0.048-0.503 0.514-0.119 0.361-0.313 0.318 0.048 0.337-0.457-0.095 0.024 0.438-0.337 0.024-0.043 0.313-0.194 0.147-0.024 0.533-0.238 0.1-0.143 0.313 0.071 0.365-0.29 0.024-0.261 0.339 0 0.266-0.385 0.199-0.071 0.266-0.432 0.172-0.047 0.555 0.076 0.603-0.846 0.125-0.19-0.143-0.603 0.024-0.527 0.194-0.238 0.218-0.196 0.052-0.356 0.485-0.48 0.532 0.048 0.413-0.408 0.024-0.071 0.267-0.337 0.171-0.19 0.484-0.432 0.29-0.22 0.343-0.337-0.024-0.214 0.147 0 0.29-0.456 0.367-0.024 0.313-0.166 0.143 0.195 0.827-0.095 0.46 0.048 0.579-0.432 0.148-0.024 0.29 0.456 0.532 0.125 0.714 0.07 0.398 0.172 0.242 0.003-0.003 0.192-0.12 0.143 0.29 0.218-0.071 0.071 0.656 0.242 0.119-0.19 0.627 0.166 0.656 0.846 0.336 0.361 0.144 0.385 0.071 0.242 0.632 0.101 0.508 0.503 0.745 0.027 0.548 0.001 0.037 0.337 0.503 0.071 0.367-0.071 0.385 0.242 0.024 0.071 0.218-0.211 0.144 0 0.001-0.003 0.001-0.024 0.414 0.434 0.095-0.071 0.19 0.171 0.242 0 0.583-0.215 0.187-0.003 0.003-0.071 0.295 0.313 0.408 0.1 0.437 0.006 0.01 0.236 0.399-0.024 0.437 0.432 0.242 0.434-0.028 0.437 0.195 0.048 0.19-0.238 0.803 0.313 0.941 0.1 0.702 0.238 0.095 0.006 0.438 0.095 0.218 0.195 0.024 0.048 0.266-0.313 0.456 0.313 0.343 0.058 0.122 0.113 0.239-0.024 0.242 0.432 0.242-0.024 0.432 0.656 1.402 0.052 0.533-0.024 0.266-0.242 0.436 0.024 0.196 0.123 0.579 0 0.946-0.095 0.19-0.019 0.827-0.313 0.627-0.047 0.413 0.076 0.481-0.147 0.413 0.052 0.87-0.19 0.389-0.037 0.689-0.01 0.205-0.143 0.46 0.095 0.242-0.337 0.656-0.119 0.627 0.218-0.071 0 0.385-0.19 0.101 0 0.242-0.143 0.214 0.071 0.218-0.119 0.874 0.485 1.786 0.437 0.119 0.313 0.751 0.218 0 0.339 0.65 0.076 0.87 0.579 0.266 0.19 0.242 0.337-0.099 0.41 0.19 0.389-0.047 0.48 0.29 0.218-0.047 0.557 0.214 0.19-0.123 0.603 0.29 0.652 0.775 1.182 0.551 0.267 0.385 0.484 0.313 0.603 0.119 0.771 0.361 0.726 0.604 0.604 0.166 0.627 0.65-0.024 0.676 0.195 0.437-0.119 0.242 0.652-0.242 0.285-0.318 0.29 0.071 0.408-0.652 0.432-0.27 0.386-0.194 0.024-0.457 0.195 0.048 0.214-0.171 0.19-0.75-0.024-0.19 0.385-0.077 0.413 0.119 0.261-0.123-0.047-0.19 0.22-0.242 0.071-0.413 0.428-0.628-0.047-0.194 0.408-0.29 0-0.561 0.095-0.289 0.84-0.632 0.242-0.432 0.138-1.985 0.261-0.315 0.313-0.052 0.362-0.532 0.261-0.485 0.361-0.194 0.218 0 0.432-0.341-0.076-0.456 0.823-0.49 0.456-0.024 0.242-0.147 0.456 0.024 0.432-0.099 0.434-0.243 0.408-0.678 0.598-0.656 0.48-0.413 0.385-0.414 1.084-0.171 0.432-0.436 1.06-0.367 0.674-0.512 0.527-0.775 0.913-0.56 0.622-0.704 0.214-0.266 0.46-0.39 0.889-0.175 0.266 0.071 0.119-0.19 0.261-0.147 0.389 0.071 0.434-0.028 1.615 0.646 0.408 0.071 0.508-0.171 0.19 0.119 0.218-0.047 0.238-0.243 0.243 0.119 1.301-0.199 0.143-0.408 0.676-0.123 0.674 0.137 0.19-0.313 0.676-0.318 0.38-0.361 0.869-0.347 0.333-0.408 0.143-0.343 0.385-0.194 1.35-0.08 0.989-0.414 0.356-0.413 0.503-0.294 0.817-0.343 0.794-0.56 0.48-0.485 0.741-0.827 0.218-0.076 0.38-0.65 0.866-0.661 0.194-0.047 0.333-0.365 0.65-0.462 0.333-0.389 2.015-1.511 0.842-0.974 0.404-0.874-0.196-0.071 0.166-0.607-0.047-0.408 0.434-0.03 0.166-0.194-0.823-0.745-0.674-0.285-0.266-0.202-0.003-0.003 0.006 0-0.533-0.402-0.408 0.006-2.414-1.174-0.361-0.436-0.436-0.313-0.291-0.41-0.698-0.309-0.389-0.389-0.071-0.532-0.018-0.143c-0.001 0-0.002 0-0.003 0l-0.012-0.092-1.035-0.386-0.313-0.266-0.071-0.218 0.089-0.603-0.194-0.922 0.238-0.557-0.007-0.177 0-0.003 0.003 0-0.021-0.502-0.337-0.941-0.107-0.159c-0.001 0-0.003 0-0.004 0l-0.33-0.488-0.194-0.485-0.46-0.46-0.024 0.195-0.385 0.004-0.41-0.171-0.432 0.076-0.432-0.166-0.385 0.125-0.194-0.095-0.19 0.19 0 0.218-0.362 0.413 0.024-0.266-0.143-0.214-0.071 0.19-0.48 0.365-0.432 0.006-0.076-0.22-0.168-0.944 0-0.003 0.003 0-0.056-0.315 0.024-0.194-0.123-0.698 0.238-0.732-0.022-0.086-0.004 0-0.095-0.367 0.091-0.609-0.313-0.337 0.214-0.484 0-0.024-0.047-0.267 0.214-0.46-0.147-0.585 0.095-0.19-0.125-0.436-0.313-0.313-0.071-0.414-0.413-0.119-0.238-0.313-0.438-0.19 0-0.047-0.242-0.726-0.456-0.438-0.194-0.047-0.266-0.845-0.22 0.123-0.456-0.218-1.065-1.207-1.059-0.503-0.171-0.047-0.386-0.652-0.869-0.456-0.527-0.143-0.39-0.413-0.48-0.166-0.413-0.604-0.699-0.432-0.29-0.024-0.119-0.024-0.337-0.095-0.894-0.508-0.356 0.028-0.318-0.557-0.747-0.19-0.166-0.076-0.024-0.024-0.266-0.238-0.408 0.024-0.84-0.214-0.22-0.171-0.123-0.071-0.095-0.047-0.242-0.29-0.722-0.19-0.261-0.242-0.125-0.267-0.166-0.047-0.147-0.071-0.551-0.194-0.413-0.238-0.339-0.341-0.408 0.028-0.65-0.385-0.622 0.123-0.485-0.266-0.527-0.143-0.242-0.266-0.19 0.123-0.218-0.171-0.339 0.052-0.095 0.024-0.456-0.337-0.456-0.243-0.46 0.024-0.386-0.313-0.817-0.19-0.456 0.242-0.913 0.419-0.313-0.218-0.337-0.242-0.147-0.434-0.19-0.047-0.047-0.294-1.131-0.214-0.266-0.166-0.218-0.413-0.408-0.143-0.071-0.243-0.414-0.194-0.551-0.385-0.361-0.266-0.48 0.004-0.75-0.727-0.385 0.053-0.313-0.196-0.505-0.337-0.171-0.194 0.071-0.579-0.095-0.267-0.579-0.095-0.166-0.099-0.095-0.047-0.076-0.46-0.481-0.095-0.674-0.385-0.19 0.171-0.965-0.361-0.071-0.047-0.119-0.101 0-0.218-0.793-0.091-0.171-0.194-0.432-0.024-0.291-0.413z" fill="#4caf50"/><path d="m50.438 20-0.875 0.125-0.906 0.469-1.281 1.063-1.687 1.656-0.187 2.563 0 0.063 0.25 1.313 1.625-1.594 1.281-1.062L49.563 24.125 50.438 24 50.844 24.25 51.563 24l0.906 0 0.625 0.875 0.938 0.063 0.344 0.406 1.688 0.188 0 0.469 0.25 0.219 0.156 0.094 2.063 0.781 0.406-0.375 1.438 0.813 1.031 0.219 0.156 0.969 0.188 0.094 0.344 0.219 1.25 0.188 0.188 0.594-0.156 1.219 0.375 0.406 1.063 0.719 0.688 0.438 0.813-0.125 1.594 1.531 1.031 0 0.75 0.563 1.188 0.813 0.875 0.438 0.156 0.5 0.875 0.313 0.469 0.875 0.563 0.344 2.406 0.469 0.094 0.625 0.406 0.094 0.313 0.938 0.719 0.5 0.656 0.469 1.938-0.875 0.969-0.531 1.75 0.406 0.813 0.656 1-0.031 0.969 0.5 0.969 0.719L87 41.75 87.719 41.625 88.188 42l0.406-0.281 0.5 0.563 1.125 0.313 1.031 0.563 1.344-0.25 1.375 0.813 0.875-0.062 0.719 0.719 0.875 0.531 1.156 0.406 0.313 0.156 0.375 0.094 0.25 0.563 0.563 0.531 1.531 0.375 0.531 0.625 0.188 0.094 0.25 0.156 0.469 0.375 1.813 0.438 0.844-0.031 0.594 0.5 0.031 0.063 0.344 0.156 1.594 0.406 0.688 1.188 0.75-0.062 1.906 1.063 0.719 0.219 0.25 0.031 0.625 0.063 1.469 0.906 0.906 1.313 1 0.344 0.844 0.875 1.125 0.313 1.844 0.969 0.813 1.375 0.375 0.094 2.25 1.094 2.25 2.563 0.969 0.469 0.469-0.281 0.563 1.813 0.438 0.094 0.969 0.938 0.5 1.531 0 0.094 0.938 0.406 0.5 0.688 0.875 0.25 0.156 0.875 0.656 0.656-0.062-0.437 0.125-0.281 0-0.062 0.188-1.25 0-0.031-0.656-0.719 0.438-1.031 0-0.062-0.031-0.156-0.656-0.625-0.156-0.875-0.875-0.25-0.5-0.687L129 62.813l0-0.094-0.5-1.531-0.969-0.937-0.406-0.094-0.594-1.812-0.469 0.281-0.969-0.469-2.25-2.562-2.25-1.094-0.375-0.094-0.812-1.375-1.844-0.969-1.125-0.312-0.844-0.875-1-0.344-0.875-1.312-1.5-0.906-0.625-0.062-0.25-0.031L110.625 48l-1.906-1.062-0.75 0.063-0.656-1.187-1.594-0.406-0.375-0.156-0.031-0.062-0.562-0.5-0.875 0.031-1.781-0.437-0.469-0.375-0.281-0.156-0.187-0.094-0.531-0.625-1.531-0.375-0.562-0.531-0.25-0.562-0.344-0.094-0.312-0.156-1.187-0.406-0.875-0.531-0.719-0.719-0.875 0.063-1.375-0.812-1.312 0.25-1.062-0.562-1.094-0.312-0.531-0.562L88.188 38 87.719 37.625 87 37.75l-0.187 0.031-0.969-0.719-0.969-0.5-1 0.031-0.812-0.656-1.75-0.406-0.969 0.531-1.937 0.875-0.656-0.469-0.719-0.5-0.312-0.937L76.313 34.938 76.219 34.313 73.813 33.844 73.25 33.5 72.781 32.625 71.906 32.313 71.75 31.813 70.875 31.375 69.688 30.563 68.938 30 67.906 30 66.313 28.469 65.5 28.594 64.844 28.156 63.75 27.438 63.406 27.031 63.563 25.813 63.344 25.219 62.125 25.031 61.75 24.813 61.563 24.719 61.406 23.75 60.375 23.531l-1.437-0.812-0.406 0.375-2.062-0.781-0.125-0.094-0.25-0.219 0-0.469-1.687-0.187-0.375-0.406L53.094 20.875 52.5 20 51.563 20 50.844 20.25 50.438 20zm2.875 31-0.219 0.875-0.312 1.031L52.625 53.938 52.594 54 52.031 53.375 51 53.469 49.938 54.563 49.688 55.344 49 56l0.125 0.719-1-0.187 0.063 0.938-0.719 0.031-0.094 0.656-0.406 0.313-0.062 1.156-0.5 0.219-0.312 0.656 0.156 0.781-0.594 0.031-0.562 0.719 0 0.563-0.812 0.438-0.156 0.563-0.937 0.375-0.094 1.188 0.156 1.281-1.781 0.25-0.406-0.312-1.281 0.063-1.125 0.406-0.5 0.469-0.437 0.125-0.75 1.031-1.031 1.125 0.125 0.875-0.875 0.063-0.156 0.563-0.719 0.375-0.406 1-0.906 0.625-0.469 0.75-0.719-0.062-0.469 0.313 0 0.625L30.375 75.5 30.344 76.156 30.25 76.219 30.281 76.438 30 76.531l0.375 1.688-0.062 0.375 0.156 0.844 0.875-0.719 0-0.625 0.469-0.312 0.719 0.063 0.438-0.75 0.938-0.625 0.406-1 0.719-0.375 0.156-0.562 0.844-0.062-0.094-0.875 1.031-1.125 0.75-1.031 0.406-0.125 0.531-0.469 1.094-0.406 1.313-0.062 0.375 0.313 1.813-0.25-0.156-1.281 0.094-1.187 0.938-0.375 0.125-0.562 0.844-0.437 0-0.562L45.625 65.313 46.25 65.281 46.094 64.5l0.313-0.656 0.5-0.219 0.063-1.156L47.375 62.156 47.469 61.5 48.188 61.469 48.125 60.531 49.094 60.719 49 60 49.656 59.344 49.938 58.563 51 57.469 52.031 57.375 52.594 58 52.625 57.938l0.156-1.031 0.313-1.031 0.344-1.437-0.062-1-0.031-0.344 0.344-0.875L53.469 51.25 53.313 51zm78.875 21.969-0.125 0.281 0.094 0.563 0 0.063-0.437 1.031 0.281 0.313 0.313-0.937L132.25 74l-0.094-0.656 0.031-0.375zm0.125 5.313-0.375 1.156 0.25 1.5-0.031 0.406L132.25 82l0.375 2.031 0.156 0.469 0.906-0.031 1.031-0.781 0.156-0.406 0.281 0.469-0.031 0.563 0.75-0.875 0-0.469 0.406-0.406 0.438 0.219 0.813-0.281 0.906 0.344 0.938-0.156 0.875 0.375 0.813 0 0.031-0.437 1 1 0.406 1.031 0.688 1.031c0.002 0 0.029 0 0.031 0l0.219 0.344 0.344 1-0.062-0.375 0.25-0.594-0.031-0.156 0.188-1.281-0.406-1.781-0.281-0.812-0.219-0.344-0.719-1.031-0.406-1.031-0.969-1-0.062 0.438-0.812 0-0.875-0.375-0.937 0.156-0.906-0.344-0.812 0.281-0.406-0.219-0.406 0.406 0 0.469-0.781 0.875 0.063-0.562-0.312-0.469-0.156 0.406-1.031 0.781-0.906 0.031-0.156-0.469-0.312-1.75zm11.656 11.75-0.281 0.625 0.438 1.969-0.187 1.281 0.125 0.469 0.688 0.563 2.188 0.813 0.031 0.219L147 96.25l0.156 1.156 0.844 0.813 1.469 0.656 0.625 0.875 0.938 0.656 0.75 0.938 5.156 2.5 0.844 0 1.125 0.844 0.031 0 0.563 0.438 0.125 0.063 1.063-1.219 0.813-1.75-0.312-0.281-0.031 0 0-0.031-0.219-0.187-1.437-0.594-0.562-0.437-1.125-0.844-0.875 0-5.125-2.5-0.781-0.937-0.937-0.656-0.625-0.875-1.469-0.656-0.844-0.812-0.125-1.156-0.062-0.281-0.031-0.219-2.187-0.812-0.656-0.562-0.125-0.344zm-96.406 37.063 0 0.063 0.219 0.969 0 1.75 0.188-0.344 0.031-0.562-0.094-1.125-0.344-0.75zm0 4.031-0.031 1.156-0.687 1.344-0.094 0.875 0.156 1.031-0.312 0.875 0.125 1.844-0.406 0.844-0.094 1.469 0 0.438-0.312 0.969 0.188 0.5-0.719 1.406-0.25 1.344 0.469-0.156 0 0.813-0.406 0.219 0 0.5-0.062 0.094 0.313 1.094 0.656-1.312-0.187-0.5 0.281-0.969 0.031-0.437 0.094-1.469 0.406-0.844-0.125-1.844 0.313-0.875L46.75 138.5l0.094-0.875 0.688-1.344 0.031-1.75 0.188-0.406 0-2-0.187-1z" transform="matrix(0.47,0,0,0.47,0,-0.0115665)" class="tint"/><path d="m45.5 29.875 0 0.063 0.469 2.344-0.25 1.063 1.125 3.375 0.188 1.813 0.438 0.375 0.469 0 1.031 1.75 0.469 1.156 0.875 0.438 0.25 1.125L51.5 44l0.656 1.063 1.031 1.719 0.125 0.188 0.125-0.531-0.062-1-0.031-0.344 0.344-0.875L53.5 43.25 53.188 42.781 52.156 41.063 51.5 40l-0.937-0.625-0.25-1.125-0.875-0.437-0.469-1.156-1.031-1.75-0.469 0-0.437-0.375-0.187-1.812-1.125-3.375C45.698 29.446 45.679 29.664 45.5 29.875zm86.5 41.344-0.062 0.219 0.25 1.469 0.188-1.25 0-0.031zM30.469 79.438 30.375 79.5 30.344 80.156 30.25 80.219 30.281 80.438 30 80.531l0.375 1.688-0.062 0.375 0.25 1.406 0.125 0.844 0.375 0.531 0.406-0.25 0.313 0.594 0.469-0.156 0.156 1.406 0.5 0.25-0.406 1.344 0.375 1.375 1.781 0.719 0.781 0.313 0.813 0.156 0.531 1.344 0.188 1.094 1.094 1.563 0.063 1.188 0 0.063 0.719 1.063 0.125 0.781-0.125 0.844 0.5 0.031 0.156 0.469-0.437 0.313-0.031 0L39 100.75l0.906 0.219-0.156 0.406 0.375 0.5 0 1.25-0.469 0.406-0.156 0.625 0.688 0.875 0.188 0.906 0.031 0.031 0.5 0.844-0.062 0.938 0.938 0.531 0.906-0.062 0.938 0.406 0.094 0.406-0.5 1.688 0.656 2.031 0.219 1.469 0.5 0.219 0.031 0.938 0.188 0.469 0.406 0.031 0.125 0.563-0.687 0.969 0.688 0.75 0.125 0.25 0.219 0.5-0.031 0.531 0.906 0.5-0.062 0.938 1.063 2.219-0.062-0.219-0.031-0.406 0.5-0.937 0.063-0.562-0.125-1.125L46.5 116.875l0.063-0.937-0.906-0.5 0.031-0.531-0.219-0.5-0.125-0.25-0.687-0.75 0.688-0.969-0.125-0.562-0.406-0.031-0.187-0.469-0.031-0.937-0.5-0.219-0.219-1.469-0.656-2.031 0.5-1.687-0.094-0.406-0.937-0.406-0.906 0.063-0.937-0.531 0.063-0.937-0.5-0.844-0.031-0.031-0.187-0.906-0.687-0.875 0.156-0.625 0.469-0.406 0-1.25-0.375-0.5 0.156-0.406L39 96.75l0.031-0.875 0.031 0 0.438-0.312-0.156-0.469-0.5-0.031 0.125-0.844-0.125-0.781-0.719-1.062 0-0.062L38.063 91.125 36.969 89.563 36.781 88.469 36.25 87.125 35.438 86.969 34.656 86.656 32.875 85.938 32.5 84.563l0.406-1.344-0.5-0.25L32.25 81.563 31.781 81.719 31.469 81.125 31.063 81.375 30.688 80.844 30.563 80zm129.188 25.75-0.75 0.844-4.281 3.219-0.687 0.844-1.406 0.969-0.687 0.781-0.437 0.094-1.844 1.406-0.781 1.375-0.469 0.156-1.594 1.781-1 1.031-1.687 1.188-1.75 0.719-1.062 0.625-0.781 0.875-2.094 0.906-2.875 0.156-0.812 0.406-0.312 0.75-0.687 0.844-1.844 0.75-0.812 0.781-1.437 0.656-0.406 0.688-1.437-0.312-1.437 0.281-0.312 0.875-2.75 0.406-0.531-0.25-0.5 0.531-0.469 0.094-0.406-0.25-1.062 0.344-0.875-0.156-3.437-1.344-0.937 0.031-0.812-0.125-0.562 0.313-0.25 0.406-0.562-0.156-1.906 0.375-0.969 0.813-0.469 0.563-1.312 1.5-1.937 1.188-1.125 1.656-1.437 1.094-2.25 0.781-0.937 0.938-2.281 0.344-0.844 0.875-1 0.906-1.281 1.375-0.875 1.438-0.906 0.531-0.937 0.219-0.969-0.062-0.5 0.313-0.969 0.063-1.75 1.031 0.156 0.969-0.906 0.719-0.469 0-0.781 0.438-0.562 1.031-0.75 1.125-0.687 0.094-0.531 0.688-0.312 4.219-0.5 0.906-1.812 1.375-0.187 0.594 0 1.188-0.875 0.625 0.094 0.406-0.906 1.344-0.156 0.875-0.469 0.531 0.125 0.406-0.562 0.25-0.875-0.25-0.812 0.156 0.031 0.406-0.406 1.594-0.437 0.375-0.406-0.094-0.062 0.969-0.812 0.406-0.937 0.563-0.875 1.406-0.594-0.156-0.625 0.688-1.375 0.5 0.25-0.5-0.406-0.937 0.031-1.437-1.312-1.375-1.281-0.375-1.562-1.281-1.625-0.75-1.281-0.281-1.031-0.656-0.594-0.812-2.5-1.187-1.375-1.625-1.281-0.625-0.406 0.25-1.187-0.437-0.469 0.094-1.031-0.625-0.812 0.125-0.875-0.406-0.719 0.188-0.406-0.5-1.219-0.562-0.187-1.844-0.719-1.406-0.437 0-0.687-1.594-0.937-0.25-0.375-1.406-0.062 0.094-0.25 1.344 0.469-0.156 0 0.813-0.406 0.219 0 0.5-0.062 0.094 0.688 2.5 0.938 0.25 0.656 1.594 0.469 0 0.719 1.406 0.188 1.844 1.219 0.563 0.406 0.5 0.719-0.187 0.875 0.406 0.813-0.125 1.031 0.625 0.469-0.094 1.188 0.438 0.406-0.25 1.281 0.625 1.375 1.625 2.5 1.188 0.594 0.813 1.031 0.656 1.281 0.281 1.625 0.75 1.563 1.281 1.281 0.375 1.313 1.375-0.031 1.438 0.406 0.938-0.25 0.5 1.375-0.5 0.625-0.687 0.594 0.156 0.875-1.406 0.938-0.562 0.813-0.406 0.063-0.969 0.406 0.094 0.438-0.375 0.406-1.594-0.031-0.406 0.813-0.156 0.875 0.25 0.563-0.25-0.125-0.406 0.469-0.531 0.156-0.875 0.906-1.344-0.094-0.406 0.875-0.625 0-1.187 0.188-0.594 1.813-1.375 0.5-0.906 0.313-4.219 0.531-0.687 0.688-0.094 0.75-1.125 0.563-1.031 0.781-0.437 0.469 0 0.906-0.719-0.156-0.969 1.75-1.031 0.969-0.062 0.5-0.312 0.969 0.063 0.938-0.219 0.906-0.531 0.875-1.437 1.281-1.375 1-0.906 0.844-0.875 2.281-0.344 0.938-0.937 2.25-0.781 1.438-1.094 1.125-1.656 1.938-1.187 1.313-1.5 0.469-0.562 0.969-0.812 1.906-0.375 0.563 0.156 0.25-0.406 0.563-0.312 0.813 0.125 0.938-0.031 3.438 1.344 0.844 0.156 1.094-0.344 0.406 0.25 0.469-0.094 0.5-0.531 0.531 0.25 2.75-0.406 0.313-0.875 1.438-0.281 1.438 0.313 0.406-0.687 1.438-0.656 0.813-0.781 1.844-0.75 0.688-0.844 0.313-0.75 0.813-0.406 2.875-0.156 2.094-0.906 0.781-0.875 1.063-0.625 1.75-0.719 1.688-1.187 1-1.031 1.594-1.781 0.469-0.156 0.781-1.375 1.844-1.406 0.438-0.094 0.688-0.781 1.406-0.969 0.688-0.844 4.281-3.219 1.813-2.062 0.781-1.75-0.312-0.281-0.031 0 0-0.031-0.219-0.187-1.281-0.531zm-111.875 20.688-0.344 0.594 0.063 0.406 0.031 0.156 0.031 0.063 0-0.562 0.219-0.406z" transform="matrix(0.47,0,0,0.47,0,-0.0115665)" class="shade"/></g>
  <g id="wheel-front" transform="translate(46.515,0)"><path d="m21.282 47.022c-2.525 0-4.566 2.041-4.566 4.566 0 2.525 2.041 4.566 4.566 4.566 2.525 0 4.557-2.041 4.557-4.566 0-2.525-2.032-4.566-4.557-4.566z" fill="#424242"/><path class="tint" d="m21.284 47.027c-2.525 0-4.568 2.043-4.568 4.568 0 0.158 0.014 0.316 0.029 0.47 0.233-2.305 2.171-4.098 4.538-4.098 2.367 0 4.306 1.793 4.538 4.098 0.016-0.154 0.015-0.312 0.015-0.47 0-2.525-2.028-4.568-4.553-4.568z"/><path class="shade" d="m16.731 51.116c-0.016 0.154-0.015 0.312-0.015 0.47 0 2.525 2.043 4.568 4.568 4.568 2.525 0 4.553-2.043 4.553-4.568 0-0.158-0.014-0.316-0.029-0.47-0.232 2.305-2.156 4.098-4.524 4.098-2.367 0-4.32-1.793-4.553-4.098z"/></g>
  <g id="wheel-back"><path d="m21.282 47.022c-2.525 0-4.566 2.041-4.566 4.566 0 2.525 2.041 4.566 4.566 4.566 2.525 0 4.557-2.041 4.557-4.566 0-2.525-2.032-4.566-4.557-4.566z" fill="#424242"/><path class="tint" d="m21.284 47.027c-2.525 0-4.568 2.043-4.568 4.568 0 0.158 0.014 0.316 0.029 0.47 0.233-2.305 2.171-4.098 4.538-4.098 2.367 0 4.306 1.793 4.538 4.098 0.016-0.154 0.015-0.312 0.015-0.47 0-2.525-2.028-4.568-4.553-4.568z"/><path class="shade" d="m16.731 51.116c-0.016 0.154-0.015 0.312-0.015 0.47 0 2.525 2.043 4.568 4.568 4.568 2.525 0 4.553-2.043 4.553-4.568 0-0.158-0.014-0.316-0.029-0.47-0.232 2.305-2.156 4.098-4.524 4.098-2.367 0-4.32-1.793-4.553-4.098z"/></g><path id="windows" d="m4.921 38.193-0.493 0.787a0.442 0.442 0 0 0-0.078 0.208l-0.19 2.836 0.45 0 3.13 0a0.442 0.442 0 0 0 0.043 0 0.442 0.442 0 0 0 0.13-0.035 0.442 0.442 0 0 0 0.208-0.19L9.894 38.858A0.442 0.442 0 0 0 9.504 38.193l-4.376 0-0.208 0zm7.437 0a0.442 0.442 0 0 0-0.294 0.216l-1.764 2.949a0.442 0.442 0 0 0 0.38 0.666l15.315 0a0.442 0.442 0 0 0 0.38-0.225l1.773-2.94a0.442 0.442 0 0 0-0.389-0.666l-15.306 0a0.442 0.442 0 0 0-0.095 0zm26.496 0a0.442 0.442 0 0 0-0.294 0.216l-1.764 2.949a0.442 0.442 0 0 0 0.38 0.666l15.315 0a0.442 0.442 0 0 0 0.38-0.225l1.764-2.94a0.442 0.442 0 0 0-0.38-0.666l-15.306 0a0.442 0.442 0 0 0-0.095 0zm18.255 0a0.442 0.442 0 0 0-0.294 0.216l-1.773 2.949a0.442 0.442 0 0 0 0.389 0.666l15.306 0a0.442 0.442 0 0 0 0.389-0.225l1.764-2.94a0.442 0.442 0 0 0-0.389-0.666l-15.306 0a0.442 0.442 0 0 0-0.086 0zm25.346 1.176a0.442 0.442 0 0 0-0.389 0.441l0 6.477a0.442 0.442 0 0 0 0.441 0.441l3.537 0a0.442 0.442 0 0 0 0.389-0.64l-3.537-6.477a0.442 0.442 0 0 0-0.441-0.242z" fill="#263238"/><path id="bus-shadow" class="shadow" d="m7.645 36.888a0.442 0.442 0 0 0-0.277 0.208l-2.447 3.917 0.208 0 4.376 0a0.442 0.442 0 0 1 0.389 0.666l-1.773 2.94a0.442 0.442 0 0 1-0.208 0.19 0.442 0.442 0 0 1-0.13 0.035 0.442 0.442 0 0 1-0.043 0l-3.13 0-0.45 0-0.398 5.993a0.442 0.442 0 0 0 0.052 0.259l2.361 4.125a0.442 0.442 0 0 0 0.38 0.216l9.374 0c-0.064-0.333-0.095-0.678-0.095-1.029 0-3.003 2.445-5.448 5.448-5.448 3.003 0 5.439 2.445 5.439 5.448 0 0.351-0.031 0.696-0.095 1.029l35.818 0c-0.064-0.333-0.104-0.678-0.104-1.029 0-3.003 2.445-5.448 5.448-5.448 3.003 0 5.448 2.445 5.448 5.448 0 0.351-0.031 0.696-0.095 1.029l11.138 0a0.442 0.442 0 0 0 0.424-0.311l1.764-5.889a0.442 0.442 0 0 0 0-0.017 0.442 0.442 0 0 1-0.424 0.329l-3.537 0a0.442 0.442 0 0 1-0.441-0.441l0-6.477a0.442 0.442 0 0 1 0.389-0.441 0.442 0.442 0 0 1 0.441 0.242l3.537 6.477-3.424-6.295 2.266-5.093a0.442 0.442 0 0 0-0.406-0.631l-77.126 0a0.442 0.442 0 0 0-0.095 0zm4.713 4.125a0.442 0.442 0 0 1 0.095 0l15.306 0a0.442 0.442 0 0 1 0.389 0.666l-1.773 2.94a0.442 0.442 0 0 1-0.38 0.225l-15.315 0a0.442 0.442 0 0 1-0.38-0.666l1.764-2.949a0.442 0.442 0 0 1 0.294-0.216zm26.496 0a0.442 0.442 0 0 1 0.095 0l15.306 0a0.442 0.442 0 0 1 0.38 0.666l-1.764 2.94a0.442 0.442 0 0 1-0.38 0.225l-15.315 0a0.442 0.442 0 0 1-0.38-0.666l1.764-2.949a0.442 0.442 0 0 1 0.294-0.216zm18.255 0a0.442 0.442 0 0 1 0.086 0l15.306 0a0.442 0.442 0 0 1 0.389 0.666L71.126 44.619a0.442 0.442 0 0 1-0.389 0.225l-15.306 0a0.442 0.442 0 0 1-0.389-0.666l1.773-2.949a0.442 0.442 0 0 1 0.294-0.216zm29.367 8.033a0.442 0.442 0 0 1 0 0.13 0.442 0.442 0 0 0 0-0.13z"/>
  <g id="bus-body"><path d="m7.645 34.068a0.442 0.442 0 0 0-0.277 0.208l-2.447 3.917 0.208 0 4.376 0A0.442 0.442 0 0 1 9.894 38.859l-1.773 2.94a0.442 0.442 0 0 1-0.208 0.19 0.442 0.442 0 0 1-0.13 0.035 0.442 0.442 0 0 1-0.043 0l-3.13 0-0.45 0-0.398 5.993a0.442 0.442 0 0 0 0.052 0.259l2.361 4.125a0.442 0.442 0 0 0 0.38 0.216l9.374 0c-0.064-0.333-0.095-0.678-0.095-1.029 0-3.003 2.445-5.448 5.448-5.448 3.003 0 5.439 2.445 5.439 5.448 0 0.351-0.031 0.696-0.095 1.029l35.818 0c-0.064-0.333-0.104-0.678-0.104-1.029 0-3.003 2.445-5.448 5.448-5.448 3.003 0 5.448 2.445 5.448 5.448 0 0.351-0.031 0.696-0.095 1.029l11.138 0a0.442 0.442 0 0 0 0.424-0.311l1.764-5.889a0.442 0.442 0 0 0 0-0.017 0.442 0.442 0 0 1-0.424 0.329l-3.537 0a0.442 0.442 0 0 1-0.441-0.441l0-6.477a0.442 0.442 0 0 1 0.389-0.441 0.442 0.442 0 0 1 0.441 0.242l3.537 6.477-3.424-6.295 2.266-5.093A0.442 0.442 0 0 0 84.867 34.068l-77.126 0a0.442 0.442 0 0 0-0.095 0zm4.713 4.125a0.442 0.442 0 0 1 0.095 0l15.306 0a0.442 0.442 0 0 1 0.389 0.666l-1.773 2.94a0.442 0.442 0 0 1-0.38 0.225l-15.315 0A0.442 0.442 0 0 1 10.3 41.358L12.064 38.409a0.442 0.442 0 0 1 0.294-0.216zm26.496 0a0.442 0.442 0 0 1 0.095 0l15.306 0a0.442 0.442 0 0 1 0.38 0.666l-1.764 2.94a0.442 0.442 0 0 1-0.38 0.225l-15.315 0A0.442 0.442 0 0 1 36.796 41.358L38.56 38.409A0.442 0.442 0 0 1 38.854 38.193zm18.255 0a0.442 0.442 0 0 1 0.086 0l15.306 0a0.442 0.442 0 0 1 0.389 0.666l-1.764 2.94a0.442 0.442 0 0 1-0.389 0.225l-15.306 0A0.442 0.442 0 0 1 55.042 41.358L56.815 38.409a0.442 0.442 0 0 1 0.294-0.216zm29.367 8.033a0.442 0.442 0 0 1 0 0.13 0.442 0.442 0 0 0 0-0.13z" fill="#e1e5e8"/><path class="tint" d="m7.653 34.078a0.442 0.442 0 0 0-0.279 0.206l-2.453 3.922 0.206 0 0.382 0 1.865-2.982a0.442 0.442 0 0 1 0.279-0.206 0.442 0.442 0 0 1 0.088 0l77.124 0a0.442 0.442 0 0 1 0.235 0.073l0.176-0.382a0.442 0.442 0 0 0-0.411-0.632l-77.124 0a0.442 0.442 0 0 0-0.088 0zm2.056 5.111-1.586 2.614a0.442 0.442 0 0 1-0.206 0.191 0.442 0.442 0 0 1-0.132 0.044 0.442 0.442 0 0 1-0.044 0l-3.128 0-0.455 0-0.397 5.993a0.442 0.442 0 0 0 0.044 0.235l0.353-5.287 0.455 0 3.128 0a0.442 0.442 0 0 0 0.044 0 0.442 0.442 0 0 0 0.132-0.044 0.442 0.442 0 0 0 0.206-0.191l1.777-2.938a0.442 0.442 0 0 0-0.191-0.617zm18.242 0-1.572 2.614a0.442 0.442 0 0 1-0.382 0.235l-15.319 0a0.442 0.442 0 0 1-0.191-0.059l-0.191 0.323a0.442 0.442 0 0 0 0.382 0.676l15.319 0a0.442 0.442 0 0 0 0.382-0.235l1.763-2.938a0.442 0.442 0 0 0-0.191-0.617zm26.496 0-1.572 2.614a0.442 0.442 0 0 1-0.382 0.235l-15.319 0a0.442 0.442 0 0 1-0.191-0.059l-0.191 0.323a0.442 0.442 0 0 0 0.382 0.676l15.319 0a0.442 0.442 0 0 0 0.382-0.235l1.763-2.938a0.442 0.442 0 0 0-0.191-0.617zm18.257 0-1.572 2.614a0.442 0.442 0 0 1-0.397 0.235l-15.304 0a0.442 0.442 0 0 1-0.191-0.044l-0.191 0.308a0.442 0.442 0 0 0 0.382 0.676l15.304 0a0.442 0.442 0 0 0 0.397-0.235l1.763-2.938a0.442 0.442 0 0 0-0.191-0.617zm10.546 1.043-0.015 0.015 3.202 5.846-3.187-5.86zm-1.19 6.095 0 0.911a0.442 0.442 0 0 0 0.441 0.441l3.54 0a0.442 0.442 0 0 0 0.044 0l0.25-0.837 0.088-0.308a0.442 0.442 0 0 1-0.176 0.162 0.442 0.442 0 0 1-0.206 0.044l-3.54 0a0.442 0.442 0 0 1-0.441-0.411zm-66.197 5.787c-0.011 0.141-0.029 0.283-0.029 0.426 0 0.03 0 0.058 0 0.088l0.103 0c-0.032-0.166-0.058-0.342-0.073-0.514zm46.501 0c-0.011 0.141-0.029 0.283-0.029 0.426 0 0.03-0.001 0.058 0 0.088l0.118 0c-0.032-0.166-0.07-0.342-0.088-0.514zm-35.661 0.044c-0.016 0.157-0.044 0.318-0.073 0.47l0.088 0c0-0.03 0-0.058 0-0.088 0-0.128-0.006-0.256-0.015-0.382zm46.515 0c-0.016 0.157-0.044 0.318-0.073 0.47l0.088 0c0-0.03 0-0.058 0-0.088 0-0.128-0.006-0.256-0.015-0.382z"/><path class="shade" d="m85.099 34.152-2.086 4.715 0.235 0.426 2.027-4.582a0.442 0.442 0 0 0-0.176-0.558zm-79.592 3.114-0.587 0.94 0.206 0 4.377 0a0.442 0.442 0 0 1 0.206 0.044L9.899 37.926A0.442 0.442 0 0 0 9.503 37.265l-3.995 0zm6.83 0a0.442 0.442 0 0 0-0.279 0.22l-1.763 2.938a0.442 0.442 0 0 0 0.191 0.617l1.572-2.614a0.442 0.442 0 0 1 0.294-0.22 0.442 0.442 0 0 1 0.103 0l15.304 0a0.442 0.442 0 0 1 0.191 0.044l0.191-0.323a0.442 0.442 0 0 0-0.382-0.661l-15.304 0a0.442 0.442 0 0 0-0.103 0 0.442 0.442 0 0 0-0.015 0zm26.496 0a0.442 0.442 0 0 0-0.279 0.22l-1.762 2.938a0.442 0.442 0 0 0 0.191 0.617l1.572-2.614a0.442 0.442 0 0 1 0.294-0.22 0.442 0.442 0 0 1 0.103 0l15.304 0a0.442 0.442 0 0 1 0.191 0.044L54.638 37.926a0.442 0.442 0 0 0-0.382-0.661l-15.304 0a0.442 0.442 0 0 0-0.103 0 0.442 0.442 0 0 0-0.015 0zm18.257 0a0.442 0.442 0 0 0-0.279 0.22l-1.762 2.938a0.442 0.442 0 0 0 0.191 0.632l1.572-2.629a0.442 0.442 0 0 1 0.294-0.22 0.442 0.442 0 0 1 0.088 0l15.304 0a0.442 0.442 0 0 1 0.206 0.044l0.191-0.323A0.442 0.442 0 0 0 72.498 37.265l-15.304 0a0.442 0.442 0 0 0-0.088 0 0.442 0.442 0 0 0-0.015 0zm25.336 1.175a0.442 0.442 0 0 0-0.367 0.441l0 0.94a0.442 0.442 0 0 1 0.397-0.441 0.442 0.442 0 0 1 0.441 0.25l3.349 6.125-3.231-5.948 0.22-0.499-0.338-0.617a0.442 0.442 0 0 0-0.441-0.25 0.442 0.442 0 0 0-0.029 0zm-61.144 6.771c-3.003 0-5.449 2.447-5.449 5.449 0 0.13 0.021 0.253 0.029 0.382 0.28-2.743 2.605-4.891 5.42-4.891 2.859 0 5.203 2.218 5.42 5.023 0.016-0.172 0.015-0.338 0.015-0.514 0-3.003-2.432-5.449-5.434-5.449zm46.501 0c-3.003 0-5.449 2.447-5.449 5.449 0 0.131 0.019 0.253 0.029 0.382 0.28-2.743 2.605-4.891 5.42-4.891 2.859 0 5.217 2.218 5.434 5.023 0.016-0.172 0.015-0.339 0.015-0.514 0-3.003-2.447-5.449-5.449-5.449zm18.638 1.322a0.442 0.442 0 0 1-0.338 0.206l-1.381 4.641a0.442 0.442 0 0 1-0.426 0.308l-11.045 0c-0.005 0.32-0.03 0.636-0.088 0.94l11.133 0a0.442 0.442 0 0 0 0.426-0.308L86.421 46.533zM3.804 47.326 3.76 48.031a0.442 0.442 0 0 0 0.059 0.25l2.35 4.127a0.442 0.442 0 0 0 0.382 0.22l9.385 0c-0.058-0.304-0.098-0.62-0.103-0.94l-9.282 0A0.442 0.442 0 0 1 6.169 51.468l-2.35-4.127a0.442 0.442 0 0 1-0.015-0.015zm22.912 4.362c-0.005 0.32-0.03 0.636-0.088 0.94l35.823 0c-0.058-0.304-0.111-0.62-0.117-0.94l-35.617 0z"/></g>
  <g id="bus-details"><path class="shade" d="m31.875 36.31c-1.216 0-2.205 0.99-2.205 2.205l0 6.771-25.692 0-0.043 0.588 25.735 0 0 2.058c0 1.216 0.99 2.214 2.205 2.214l1.764 0c1.216 0 2.214-0.998 2.214-2.214l0-2.058 37.971 0 0 2.058c0 1.216 0.99 2.214 2.205 2.214l1.773 0c1.216 0 2.205-0.998 2.205-2.214l0-9.417c0-1.216-0.99-2.205-2.205-2.205l-1.773 0c-1.216 0-2.205 0.99-2.205 2.205l0 6.771-37.971 0 0-6.771c0-1.216-0.998-2.205-2.214-2.205l-1.764 0zm0 0.882 1.764 0c0.742 0 1.332 0.582 1.332 1.323l0 9.417c0 0.742-0.59 1.323-1.332 1.323l-1.764 0c-0.742 0-1.323-0.582-1.323-1.323l0-9.417c0-0.742 0.582-1.323 1.323-1.323zm44.154 0 1.773 0c0.742 0 1.323 0.582 1.323 1.323l0 9.417c0 0.742-0.582 1.323-1.323 1.323l-1.773 0c-0.742 0-1.323-0.582-1.323-1.323l0-9.417c0-0.742 0.582-1.323 1.323-1.323z"/><path d="m31.875 35.841c-1.216 0-2.205 0.99-2.205 2.205l0 6.771-25.692 0-0.043 0.588 25.735 0 0 2.058c0 1.216 0.99 2.214 2.205 2.214l1.764 0c1.216 0 2.214-0.998 2.214-2.214l0-2.058 37.971 0 0 2.058c0 1.216 0.99 2.214 2.205 2.214l1.773 0c1.216 0 2.205-0.998 2.205-2.214l0-9.417c0-1.216-0.99-2.205-2.205-2.205l-1.773 0c-1.216 0-2.205 0.99-2.205 2.205l0 6.771-37.971 0 0-6.771c0-1.216-0.998-2.205-2.214-2.205l-1.764 0zm0 0.882 1.764 0c0.742 0 1.332 0.582 1.332 1.323l0 9.417c0 0.742-0.59 1.323-1.332 1.323l-1.764 0c-0.742 0-1.323-0.582-1.323-1.323l0-9.417c0-0.742 0.582-1.323 1.323-1.323zm44.154 0 1.773 0c0.742 0 1.323 0.582 1.323 1.323l0 9.417c0 0.742-0.582 1.323-1.323 1.323l-1.773 0c-0.742 0-1.323-0.582-1.323-1.323l0-9.417c0-0.742 0.582-1.323 1.323-1.323z" fill="#4d74ab"/></g>
  <path id="finish" d="M50.438 20L49.563 20.125 48.656 20.594 47.375 21.656 45.688 23.313 45.5 26.063 45.094 27.406 44.938 29.25 45.094 29.688 45.5 29.875 45.969 32.281 45.719 33.344 46.844 36.719 47 38.531 47.469 38.906 47.938 38.906 48.969 40.656 49.438 41.813 50.313 42.25 50.563 43.375 51.469 44 52.156 45.063 53.156 46.781 53.469 47.219 53.688 48.219 53.344 49.094 53.375 49.438 53.438 50.438 53.094 51.875 52.781 52.906 52.625 53.938 52.594 54 52 53.375 51 53.469 49.938 54.563 49.656 55.344 49 56 49.094 56.719 48.125 56.531 48.188 57.469 47.469 57.5 47.375 58.156 46.969 58.469 46.906 59.625 46.406 59.844 46.094 60.5 46.25 61.281 45.625 61.313 45.094 62.031 45.094 62.594 44.25 63.031 44.125 63.594 43.188 63.969 43.094 65.156 43.25 66.438 41.438 66.688 41.063 66.375 39.75 66.438 38.656 66.844 38.125 67.313 37.719 67.438 36.969 68.469 35.938 69.594 36.031 70.469 35.188 70.531 35.031 71.094 34.313 71.469 33.906 72.469 33.875 72.5 16.469 72.5A0.94 0.94 0 0 0 16.281 72.5 0.94 0.94 0 0 0 15.688 72.938L10.469 81.281 9.438 82.969A0.94 0.94 0 0 0 9.25 83.406L8.844 89.438 8 102.188A0.94 0.94 0 0 0 8.125 102.75L13.125 111.5A0.94 0.94 0 0 0 13.938 111.969L33.906 111.969C33.771 111.261 33.688 110.528 33.688 109.781 33.688 105.698 35.829 102.128 39.031 100.063L38.969 100.75 39.906 100.969 39.75 101.375 39.969 101.656C37.32 103.39 35.563 106.373 35.563 109.781 35.563 115.154 39.908 119.5 45.281 119.5 45.418 119.5 45.552 119.474 45.688 119.469L46.563 119.938 46.5 120.875 47.906 123.844 48 124.969 47.969 125.531 47.438 126.469 47.5 126.875 47.75 128.125 47.75 130.125 47.563 130.531 47.531 132.281 46.844 133.625 46.75 134.5 46.906 135.531 46.594 136.406 46.719 138.25 46.313 139.094 46.219 140.563 46.188 141 45.906 141.969 46.094 142.469 45.375 143.875 45.125 145.219 45.594 145.063 45.594 145.875 45.188 146.094 45.188 146.594 44.875 147.063 45.031 147.531 44.781 149.375 45.813 153.188 46.75 153.438 47.406 155.031 47.875 155.031 48.594 156.438 48.75 158.281 50 158.844 50.406 159.344 51.125 159.156 52 159.563 52.813 159.438 53.844 160.063 54.313 159.969 55.469 160.406 55.875 160.156 57.156 160.781 58.563 162.406 61.063 163.594 61.625 164.406 62.656 165.063 63.938 165.344 65.594 166.094 67.125 167.375 68.406 167.75 69.75 169.125 69.719 170.563 70.125 171.5 69.875 172 71.25 171.5 71.844 170.813 72.469 170.969 73.344 169.563 74.25 169 75.094 168.594 75.125 167.625 75.563 167.719 76 167.344 76.406 165.75 76.344 165.344 77.188 165.188 78.063 165.438 78.594 165.188 78.5 164.781 78.969 164.25 79.125 163.375 80.031 162.031 79.938 161.625 80.813 161 80.813 159.813 81 159.219 82.781 157.844 83.313 156.938 83.594 152.719 84.156 152.031 84.813 151.938 85.594 150.813 86.156 149.781 86.906 149.344 87.375 149.344 88.313 148.625 88.156 147.656 89.906 146.625 90.875 146.563 91.375 146.25 92.344 146.313 93.281 146.094 94.188 145.563 95.063 144.125 96.344 142.75 97.344 141.844 98.156 140.969 100.469 140.625 101.406 139.688 103.656 138.906 105.094 137.813 106.219 136.156 108.156 134.969 109.469 133.469 109.938 132.906 110.906 132.094 112.813 131.719 113.375 131.875 113.625 131.469 114.156 131.156 115 131.281 115.906 131.25 119.344 132.594 120.219 132.75 121.313 132.406 121.719 132.656 122.188 132.563 122.688 132.031 123.188 132.281 125.969 131.875 126.281 131 127.719 130.719 129.156 131.031 129.531 130.344 130.969 129.688 131.781 128.906 133.625 128.156 134.344 127.313 134.656 126.563 135.469 126.156 138.344 126 140.438 125.094 141.188 124.219 142.281 123.594 144 122.875 145.688 121.688 146.719 120.656 148.313 118.875 148.75 118.719 149.031 118.25C150.107 117.639 151.045 116.805 151.813 115.844L152.531 115.063 153.906 114.094 154.625 113.25 156.344 111.969 179.313 111.969A0.94 0.94 0 0 0 180.219 111.313L183.875 99A0.94 0.94 0 0 1 183.844 99 0.94 0.94 0 0 0 183.906 98.094L176.625 84.688 181.438 73.844A0.94 0.94 0 0 0 180.563 72.5L132.25 72.5 132.375 71.625 131.719 70.906 132.156 69.875 132.156 69.813 132.063 69.25 132.5 68.281 132.188 67.031 132.406 66.625 132.125 65.688 131.469 65.031 131.313 64.156 130.438 63.906 129.938 63.219 129 62.813 129 62.719 128.5 61.188 127.531 60.25 127.094 60.156 126.531 58.344 126.063 58.625 125.094 58.156 122.844 55.594 120.594 54.5 120.219 54.406 119.406 53.031 117.563 52.063 116.438 51.75 115.594 50.875 114.594 50.531 113.688 49.219 112.219 48.313 111.594 48.25 111.344 48.219 110.625 48 108.719 46.938 107.969 47 107.281 45.813 105.688 45.406 105.344 45.25 105.313 45.188 104.719 44.688 103.875 44.719 102.063 44.281 101.594 43.906 101.344 43.75 101.156 43.656 100.625 43.031 99.094 42.656 98.531 42.125 98.281 41.563 97.906 41.469 97.594 41.313 96.438 40.906 95.563 40.375 94.844 39.656 93.969 39.719 92.594 38.906 91.25 39.156 90.219 38.594 89.094 38.281 88.594 37.719 88.188 38 87.719 37.625 87 37.75 86.813 37.781 85.844 37.063 84.875 36.563 83.875 36.594 83.063 35.938 81.313 35.531 80.344 36.063 78.406 36.938 77.75 36.469 77.031 35.969 76.719 35.031 76.313 34.938 76.219 34.313 73.813 33.844 73.25 33.5 72.781 32.625 71.906 32.313 71.75 31.813 70.875 31.375 69.688 30.563 68.938 30 67.906 30 66.313 28.469 65.5 28.594 64.813 28.156 63.75 27.438 63.375 27.031 63.531 25.813 63.344 25.219 62.094 25.031 61.75 24.813 61.563 24.719 61.406 23.75 60.375 23.531 58.938 22.719 58.531 23.094 56.469 22.313 56.313 22.219 56.063 22 56.063 21.531 54.375 21.344 54.031 20.938 53.094 20.875 52.469 20 51.563 20 50.844 20.25 50.438 20zM175.094 83.875A0.94 0.94 0 0 1 175.156 83.875 0.94 0.94 0 0 0 175.094 83.906 0.94 0.94 0 0 1 175.094 83.875zM174.938 83.969A0.94 0.94 0 0 1 175 83.969 0.94 0.94 0 0 0 174.938 84 0.94 0.94 0 0 1 174.938 83.969zM17.188 89.063A0.94 0.94 0 0 0 17.219 89.063 0.94 0.94 0 0 1 17.188 89.125 0.94 0.94 0 0 0 17.188 89.063zM16.656 89.406A0.94 0.94 0 0 0 16.75 89.406 0.94 0.94 0 0 1 16.563 89.438 0.94 0.94 0 0 0 16.656 89.406z" transform="matrix(0.47,0,0,0.47,0,-0.0115665)" style="fill:url(#finish-gradient);opacity:0.1"/></svg>