<svg viewBox="0 0 279 206" xmlns="http://www.w3.org/2000/svg" fill-rule="evenodd" clip-rule="evenodd" stroke-linejoin="round" stroke-miterlimit="1.5">
  <filter id="phoneShadow">
    <feDropShadow dx="0" dy="0.8" stdDeviation="0.9" flood-opacity="0.5"/>
  </filter>
  <filter id="wireShadow">
    <feDropShadow dx="0" dy="0.5" stdDeviation="0.5" flood-opacity="0.2"/>
  </filter>
  <path id="wall" fill="#f3f3f4" d="M0 0h278.3v205.5H0z"/>
  <path id="clips" fill="#282828" d="M35.3 143.3h26.3v8.3H35.3zM37.5 103.5h20.3v8.3H37.5zM54.8 183h6.8v8.3h-6.8zM31.5 198.8h8.3v6.8h-8.3zM233.3 198.8h8.3v6.8h-8.3zM77.3 192.8h8.3v12.8h-8.3zM0 171.8h8.3v33.8H0zM177.8 192.8h8.3v12.8h-8.3zM208.5 192.8h8.3v12.8h-8.3zM74.3 81.8h8.3v19.5h-8.3zM107.3 49.5h6.8v8.3h-6.8zM216.8 108h6.8v8.3h-6.8zM216.8 180h6.8v8.3h-6.8zM188.3 187.5h6.8v8.3h-6.8z"/>
  <g id="wires" filter="url(#wireShadow)" fill="none" stroke="#282828" stroke-width="1.5">
    <path d="M0 174.8h21c10.3 0 18.8-8.5 18.8-18.8v-52.5c0-10.3 8.4-18.8 18.7-18.8h19.9c11.6 0 27.3-4.5 40.1-4h9.8"/>
    <path d="M0 180.8h27.8c10.3 0 18.7-8.5 18.7-18.8v-51c0-10.3 8.4-18.8 18.8-18.8h26.6c10.3 0 18.7-8.4 18.7-18.7V54c0-10.3 8.4-18.8 18.8-18.8h6.7"/>
    <path d="M0 187.5h33.8c10.3 0 18.7-8.4 18.7-18.8V117c0-10.3 8.4-18.8 18.8-18.8h.3c10.4 0 18.8-8.4 18.8-18.7V68.2"/>
    <path d="M0 195h41.3c10.3 0 18.7-8.4 18.7-18.8v-19.4c0-10.4 8.4-18.8 18.8-18.8h10.5"/>
    <path d="M0 202.5h173.3c10.3 0 18.7-8.4 18.7-18.8v-17.2"/>
    <path d="M0 195h201c10.3 0 18.8-8.4 18.8-18.8V81.8"/>
    <path d="M0 202.5h231c10.3 0 18.8-8.4 18.8-18.8v-18"/>
  </g>
  <path id="phones" filter="url(#phoneShadow)" fill="#252525" d="M106.5 6.6c0-2.4-2-4.3-4.4-4.3H78.6c-2.4 0-4.3 1.9-4.3 4.3v59.5c0 2.4 1.9 4.4 4.3 4.4h23.5c2.4 0 4.4-2 4.4-4.4V6.6zM207.8 111.5c0-2.3-2-4.2-4.3-4.2h-23c-2.3 0-4.2 1.9-4.2 4.2v52.2c0 2.4 1.9 4.3 4.2 4.3h23c2.3 0 4.2-2 4.2-4.3v-52.2zM236.3 18.2a4 4 0 00-4-4H205a4 4 0 00-3.9 4V80a4 4 0 004 3.9h27.3a4 4 0 004-4V18.3zM269.3 96c0-2.5-2-4.5-4.6-4.5h-31.4c-2.5 0-4.6 2-4.6 4.5v68.2c0 2.5 2 4.6 4.6 4.6h31.4c2.5 0 4.5-2 4.5-4.6V96zM187.5 28.9c0-2.7-2.2-4.9-4.9-4.9h-49.5a4.9 4.9 0 00-4.9 4.9v21c0 2.7 2.2 4.9 4.9 4.9h49.5c2.7 0 4.9-2.2 4.9-4.9v-21zM187.5 70.1c0-2.7-2.2-4.8-4.9-4.8h-49.5a4.9 4.9 0 00-4.9 4.8v21c0 2.7 2.2 4.9 4.9 4.9h49.5c2.7 0 4.9-2.2 4.9-4.9v-21zM166.5 114.2a4 4 0 00-4-4H82.8a4 4 0 00-4 4v48.4a4 4 0 004 3.9h79.9a4 4 0 003.9-4v-48.3z"/>
  <g id="screens">
    <path fill="#000" d="M75.8 6.8h29.3v58.5H75.8z"/>
    <path fill="#51ad58" d="M202.5 20.3h32.3v56.3h-32.3z"/>
    <path fill="#51ad58" d="M231 99h36v63h-36z"/>
    <path fill="#000" d="M178.5 113.3h27v49.5h-27z"/>
    <path fill="#51ad58" d="M135 26.3h46.5v26.3H135z"/>
    <path fill="#51ad58" d="M135 67.5h46.5v26.3H135z"/>
    <path fill="#51ad58" d="M87.8 116.3h72.8v43.5H87.8z"/>
  </g>
</svg>
