<?xml version="1.0" encoding="UTF-8" standalone="no"?><!DOCTYPE svg PUBLIC "-//W3C//DTD SVG 1.1//EN" "http://www.w3.org/Graphics/SVG/1.1/DTD/svg11.dtd"><svg width="100%" height="100%" viewBox="0 0 250 250" version="1.1" xmlns="http://www.w3.org/2000/svg" xmlns:xlink="http://www.w3.org/1999/xlink" xml:space="preserve" xmlns:serif="http://www.serif.com/" style="fill-rule:evenodd;clip-rule:evenodd;stroke-linejoin:round;stroke-miterlimit:2;"><g id="Background"><clipPath id="_clip1"><path d="M222.146,29.274c0,-2.221 -1.803,-4.024 -4.024,-4.024l-51.076,0c-2.221,0 -4.025,1.803 -4.025,4.024l0,34.952c0,2.221 1.804,4.024 4.025,4.024l51.076,0c2.221,0 4.024,-1.803 4.024,-4.024l0,-34.952Z"/></clipPath><g clip-path="url(#_clip1)"><rect id="Border" x="136.146" y="-9.687" width="112.875" height="112.875" style="fill:#1b5e20;"/><path id="Wall" d="M220.803,30.618c-0,-2.221 -1.803,-4.024 -4.024,-4.024l-48.39,-0c-2.221,-0 -4.024,1.803 -4.024,4.024l0,32.264c0,2.221 1.803,4.024 4.024,4.024l48.39,0c2.221,0 4.024,-1.803 4.024,-4.024l-0,-32.264Z" style="fill:#429a46;"/></g></g><g id="Foreground"><path d="M187.358,32.715c0,-1.483 -1.204,-2.687 -2.687,-2.687l-13.438,-0c-1.483,-0 -2.687,1.204 -2.687,2.687l-0,4.032c-0,1.483 1.204,2.687 2.687,2.687l13.438,0c1.483,0 2.687,-1.204 2.687,-2.687l0,-4.032Z" style="fill:#efefef;"/><path d="M217.667,32.715c0,-1.483 -1.204,-2.687 -2.687,-2.687l-14.483,-0c-1.483,-0 -2.687,1.204 -2.687,2.687l-0,6.122c-0,1.483 1.204,2.687 2.687,2.687l14.483,0c1.483,0 2.687,-1.204 2.687,-2.687l0,-6.122Z" style="fill:#efefef;"/><path d="M206.171,45.257c-0,-1.483 -1.204,-2.688 -2.688,-2.688l-19.708,0c-1.483,0 -2.688,1.205 -2.688,2.688l0,11.347c0,1.483 1.205,2.688 2.688,2.688l19.708,-0c1.484,-0 2.688,-1.205 2.688,-2.688l-0,-11.347Z" style="fill:#efefef;"/><path d="M178.997,44.212c0,-1.483 -1.204,-2.688 -2.687,-2.688l-5.077,0c-1.483,0 -2.687,1.205 -2.687,2.688l-0,14.482c-0,1.484 1.204,2.688 2.687,2.688l5.077,-0c1.483,-0 2.687,-1.204 2.687,-2.688l0,-14.482Z" style="fill:#efefef;"/></g><text x="31.73px" y="104.664px" style="font-family:'CascadiaMono-Regular', 'Cascadia Mono', monospace;font-size:12px;">Remote</text><g transform="matrix(0.5,0,0,0.5,61.6246,191.601)"><text x="53.685px" y="35.578px" style="font-family:'Lato-Regular', 'Lato', sans-serif;font-size:20px;">T<tspan x="63.055px " y="35.578px ">e</tspan>ll <tspan x="87.505px " y="35.578px ">A</tspan>DB to send</text><text x="53.685px" y="55.578px" style="font-family:'Lato-Regular', 'Lato', sans-serif;font-size:20px;">VIEW<tspan x="104.815px " y="55.578px "> </tspan>in<tspan x="125.755px " y="55.578px ">t</tspan>en<tspan x="154.455px " y="55.578px ">t</tspan></text></g><g transform="matrix(0.5,0,0,0.5,-22.8623,111.001)"><text x="53.685px" y="35.578px" style="font-family:'Lato-Regular', 'Lato', sans-serif;font-size:20px;">HTTP</text><text x="53.685px" y="55.578px" style="font-family:'Lato-Regular', 'Lato', sans-serif;font-size:20px;">r<tspan x="60.555px " y="55.578px ">e</tspan>quest to</text><text x="53.685px" y="75.578px" style="font-family:'Lato-Regular', 'Lato', sans-serif;font-size:20px;">sho<tspan x="84.695px 99.995px " y="75.578px 75.578px ">w </tspan>URL</text></g><g transform="matrix(0.5,0,0,0.5,170.816,111.001)"><text x="53.685px" y="35.578px" style="font-family:'Lato-Regular', 'Lato', sans-serif;font-size:20px;">Send in<tspan x="118.335px " y="35.578px ">t</tspan>en<tspan x="147.035px " y="35.578px ">t</tspan></text><text x="53.685px" y="55.578px" style="font-family:'Lato-Regular', 'Lato', sans-serif;font-size:20px;">to each</text><text x="53.685px" y="75.578px" style="font-family:'Lato-Regular', 'Lato', sans-serif;font-size:20px;">phone</text></g><text x="164.605px" y="104.664px" style="font-family:'CascadiaMono-Regular', 'Cascadia Mono', monospace;font-size:12px;">CellWall</text><text x="32.393px" y="241.289px" style="font-family:'CascadiaMono-Regular', 'Cascadia Mono', monospace;font-size:12px;">Server</text><text x="182.099px" y="241.406px" style="font-family:'CascadiaMono-Regular', 'Cascadia Mono', monospace;font-size:12px;">ADB</text><g><path d="M72.091,11.204c-0,-2.872 -2.332,-5.204 -5.205,-5.204l-28.102,-0c-2.872,-0 -5.204,2.332 -5.204,5.204l-0,71.092c-0,2.872 2.332,5.204 5.204,5.204l28.102,0c2.873,0 5.205,-2.332 5.205,-5.204l-0,-71.092Z" style="fill:#252525;"/><rect x="35.371" y="11.374" width="34.929" height="69.857" style="fill:#375a7f;"/></g><clipPath id="_clip2"><rect id="dns-24px" x="18.724" y="158.5" width="70" height="70"/></clipPath><g clip-path="url(#_clip2)"><rect x="18.724" y="158.5" width="70" height="70" style="fill:none;fill-rule:nonzero;"/><path d="M79.974,196.417l-52.5,-0l0,23.333l52.5,0l0,-23.333Zm-40.833,17.5c-3.208,-0 -5.833,-2.625 -5.833,-5.834c-0,-3.208 2.625,-5.833 5.833,-5.833c3.208,0 5.833,2.625 5.833,5.833c0,3.209 -2.625,5.834 -5.833,5.834Zm40.833,-46.667l-52.5,0l0,23.333l52.5,0l0,-23.333Zm-40.833,17.5c-3.208,0 -5.833,-2.625 -5.833,-5.833c-0,-3.209 2.625,-5.834 5.833,-5.834c3.208,0 5.833,2.625 5.833,5.834c0,3.208 -2.625,5.833 -5.833,5.833Z" style="fill-rule:nonzero;"/></g><clipPath id="_clip3"><rect id="adb-24px" x="157.584" y="158.5" width="70" height="70"/></clipPath><g clip-path="url(#_clip3)"><rect x="157.584" y="158.5" width="70" height="70" style="fill:none;fill-rule:nonzero;"/><path d="M172.167,205.167c0,11.287 9.129,20.416 20.417,20.416c11.287,0 20.417,-9.129 20.417,-20.416l-0,-11.667l-40.834,0l0,11.667Zm32.434,-33.921l6.125,-6.125l-2.392,-2.421l-6.708,6.737c-2.742,-1.37 -5.775,-2.187 -9.042,-2.187c-3.267,0 -6.3,0.817 -9.013,2.188l-6.737,-6.738l-2.392,2.421l6.125,6.125c-5.075,3.704 -8.4,9.654 -8.4,16.421l0,2.916l40.834,0l-0,-2.916c-0,-6.767 -3.325,-12.717 -8.4,-16.421Zm-20.767,13.504c-1.604,0 -2.917,-1.312 -2.917,-2.917c0,-1.604 1.313,-2.916 2.917,-2.916c1.604,-0 2.917,1.312 2.917,2.916c-0,1.605 -1.313,2.917 -2.917,2.917Zm17.5,0c-1.604,0 -2.917,-1.312 -2.917,-2.917c0,-1.604 1.313,-2.916 2.917,-2.916c1.604,-0 2.917,1.312 2.917,2.916c-0,1.605 -1.313,2.917 -2.917,2.917Z" style="fill-rule:nonzero;"/></g><path d="M52.455,112l2.539,0l-0,41.64l2.224,-2.224l1.795,1.795l-5.289,5.289l-5.289,-5.289l1.795,-1.795l2.225,2.224l-0,-41.64Z" style="fill:#1b5e20;"/><path d="M193.853,158.5l-2.538,0l-0,-41.64l-2.225,2.224l-1.795,-1.795l5.289,-5.289l5.289,5.289l-1.795,1.795l-2.225,-2.224l0,41.64Z" style="fill:#1b5e20;"/><path d="M92,194.769l0,-2.538l60.724,-0l-2.224,-2.225l1.795,-1.795l5.289,5.289l-5.289,5.289l-1.795,-1.795l2.224,-2.225l-60.724,0Z" style="fill:#1b5e20;"/></svg>