<svg viewBox="0 0 48 40" xmlns="http://www.w3.org/2000/svg"><style>.i{fill:rgba(0,0,0,0.87)}@media(prefers-color-scheme:dark){.i{fill:#fff}}</style><path d="M48 4.7c-1.8.8-3.7 1.4-5.7 1.6C44.3 5 46 3 46.7.7c-2 1.2-4 2-6.3 2.5C38.6 1.2 36 0 33.2 0c-5.4 0-9.8 4.5-9.8 10 0 1 0 1.7.2 2.4C15.6 12 8.2 8 3.3 1.8 2.5 3.3 2 5 2 6.8c0 3.6 1.7 6.7 4.4 8.5-1.6 0-3-.5-4.5-1.2v.2c0 5 3.3 9 7.8 10-.8 0-1.7.3-2.6.3-.6 0-1.2 0-1.8-.2 1.2 4 5 7 9.2 7C11.2 34 7 35.6 2.3 35.6H0C4.4 38.2 9.5 40 15 40c18.2 0 28-15.4 28-28.7V10c2-1.5 3.7-3.2 5-5.3" class="i"/></svg>
