<?xml version="1.0" encoding="UTF-8" standalone="no"?><!DOCTYPE svg PUBLIC "-//W3C//DTD SVG 1.1//EN" "http://www.w3.org/Graphics/SVG/1.1/DTD/svg11.dtd"><svg width="100%" height="100%" viewBox="0 0 188 94" version="1.1" xmlns="http://www.w3.org/2000/svg" xmlns:xlink="http://www.w3.org/1999/xlink" xml:space="preserve" xmlns:serif="http://www.serif.com/" style="fill-rule:evenodd;clip-rule:evenodd;stroke-linejoin:round;stroke-miterlimit:2;"><g id="Layer-1" serif:id="Layer 1"><path id="path193" d="M56.113,55.762c-2.591,-1.276 -4.193,-4.616 -4.193,-8.744c0,-4.216 1.622,-7.51 4.331,-8.796c1.895,-0.899 2.541,-0.196 0.776,0.846c-0.724,0.427 -1.705,1.504 -2.18,2.394c-0.745,1.395 -0.864,2.164 -0.864,5.556c-0,3.392 0.119,4.162 0.864,5.556c0.475,0.89 1.445,1.961 2.155,2.38c0.711,0.42 1.198,0.915 1.083,1.101c-0.283,0.457 -0.523,0.422 -1.972,-0.293Zm17.932,0.069c0,-0.31 0.222,-0.563 0.493,-0.563c0.735,0 2.389,-1.874 3.05,-3.457c0.789,-1.889 0.789,-7.697 -0,-9.586c-0.661,-1.583 -2.315,-3.457 -3.05,-3.457c-0.271,0 -0.493,-0.253 -0.493,-0.562c0,-1.273 2.684,0.074 4.233,2.124c1.095,1.449 2.142,4.719 2.142,6.688c0,1.969 -1.047,5.239 -2.142,6.688c-1.549,2.051 -4.233,3.398 -4.233,2.125Zm-35.25,-0.147c0,-0.184 0.404,-0.436 0.896,-0.559c0.493,-0.124 0.999,-0.492 1.124,-0.817c0.281,-0.733 2.48,-10.213 2.48,-10.692c0,-0.191 -0.337,-0.348 -0.75,-0.348c-1.032,0 -0.945,-0.686 0.121,-0.954c0.551,-0.138 1.04,-0.685 1.33,-1.489c0.705,-1.949 2.406,-3.182 4.391,-3.182c1.417,0 1.658,0.111 1.658,0.762c0,1.025 -1.039,1.373 -1.641,0.55c-0.39,-0.533 -0.629,-0.577 -1.269,-0.235c-0.434,0.232 -0.898,0.802 -1.032,1.267c-0.133,0.464 -0.325,1.139 -0.425,1.5c-0.15,0.536 0.06,0.656 1.143,0.656c1.024,0 1.277,0.128 1.11,0.563c-0.13,0.338 -0.696,0.562 -1.422,0.562l-1.207,0l-1.178,5.31c-0.965,4.346 -1.364,5.504 -2.199,6.375c-0.975,1.018 -3.13,1.521 -3.13,0.731l0,-0Zm22,-5.01c-0.114,-0.67 -0.321,-2.568 -0.46,-4.218c-0.155,-1.852 -0.473,-3.252 -0.829,-3.657c-0.538,-0.612 -0.475,-0.656 0.941,-0.656l1.517,0l0.272,3.795l0.272,3.794l1.084,-1.825c0.596,-1.005 1.35,-2.722 1.676,-3.817c0.502,-1.684 0.718,-1.973 1.404,-1.875c0.727,0.104 0.839,0.426 1.08,3.116c0.436,4.841 0.352,4.727 1.712,2.326c1.468,-2.589 1.854,-4.171 1.207,-4.95c-0.403,-0.486 -0.254,-0.564 1.078,-0.564c0.851,0 1.546,0.148 1.546,0.329c0,0.796 -1.36,3.469 -3.22,6.327c-2.479,3.811 -3.309,4.066 -3.662,1.125c-0.13,-1.082 -0.24,-2.559 -0.245,-3.281c-0.008,-1.259 -0.07,-1.199 -1.538,1.5c-1.862,3.421 -2.122,3.75 -2.964,3.75c-0.454,0 -0.728,-0.382 -0.871,-1.219Zm49.877,0.938c-0.092,-0.155 -0.286,-1.884 -0.432,-3.844c-0.145,-1.959 -0.489,-4.026 -0.763,-4.594l-0.499,-1.031l2.942,0l0.022,2.156c0.012,1.186 0.148,2.832 0.303,3.657l0.282,1.5l1.257,-2.438c0.691,-1.34 1.362,-2.944 1.492,-3.562c0.16,-0.769 0.489,-1.162 1.038,-1.242c0.864,-0.125 0.857,-0.15 1.442,5.352l0.238,2.234l0.901,-1.484c1.576,-2.597 2.22,-4.65 1.713,-5.462c-0.404,-0.646 -0.327,-0.711 0.849,-0.711c0.712,0 1.379,0.138 1.484,0.307c0.274,0.444 -1.35,3.793 -3.311,6.823c-2.536,3.922 -3.567,3.407 -3.581,-1.786c-0.004,-1.838 -0.371,-2.037 -1.036,-0.563c-1.261,2.797 -2.771,4.969 -3.453,4.969c-0.396,0 -0.796,-0.126 -0.888,-0.281Zm15.955,-0.304c-2.756,-1.93 -3.039,-9.026 -0.47,-11.775c1.411,-1.511 4.055,-1.632 5.437,-0.25c2.427,2.427 2.263,9.565 -0.269,11.695c-1.275,1.073 -3.422,1.224 -4.698,0.33Zm3.935,-1.665c0.662,-1.315 0.622,-7.192 -0.06,-8.824c-0.45,-1.077 -0.738,-1.301 -1.674,-1.301c-0.784,0 -1.275,0.259 -1.6,0.844c-0.658,1.184 -0.639,7.629 0.027,9.207c0.451,1.069 0.681,1.223 1.679,1.125c0.791,-0.077 1.306,-0.41 1.628,-1.051l0,0Zm5.808,-2.103c-0.234,-2.395 -0.621,-4.589 -0.859,-4.875c-0.355,-0.429 -0.198,-0.522 0.882,-0.522c1.546,0 1.761,0.476 1.778,3.938c0.017,3.546 0.457,3.667 2.015,0.553c0.748,-1.494 1.359,-3.116 1.359,-3.604c0,-0.682 0.205,-0.887 0.887,-0.887c0.77,0 0.918,0.228 1.125,1.74c0.131,0.957 0.241,2.349 0.244,3.094c0.01,2.311 0.524,2.548 1.578,0.727c0.517,-0.893 1.154,-2.284 1.415,-3.092c0.426,-1.315 0.404,-1.521 -0.208,-1.969c-0.612,-0.447 -0.525,-0.5 0.825,-0.5c0.83,0 1.609,0.1 1.731,0.222c0.695,0.695 -4.606,9.528 -5.718,9.528c-0.83,0 -1.127,-0.72 -1.134,-2.749c-0.011,-3.482 -0.324,-3.52 -2.164,-0.262c-1.309,2.318 -1.888,3.011 -2.515,3.011c-0.764,0 -0.84,-0.266 -1.241,-4.353Zm-47.325,-0.147c0,-0.72 0.25,-0.75 6.188,-0.75c5.937,0 6.187,0.03 6.187,0.75c0,0.72 -0.25,0.75 -6.187,0.75c-5.938,0 -6.188,-0.03 -6.188,-0.75Zm0,-4.5c0,-0.72 0.25,-0.75 6.188,-0.75c5.937,0 6.187,0.03 6.187,0.75c0,0.72 -0.25,0.75 -6.187,0.75c-5.938,0 -6.188,-0.03 -6.188,-0.75Z" style="fill-rule:nonzero;"/></g></svg>