<svg xmlns="http://www.w3.org/2000/svg" width="196" height="196" viewBox="0 0 90.2 90.2">
  <defs>
    <radialGradient id="finish-gradient" cx="13.5" cy="273.9" r="88" fx="13.5" fy="273.9" gradientTransform="matrix(-.001 2.17 -2.182 -.001 597.9 -29)" gradientUnits="userSpaceOnUse"/>
    <filter id="shadow">
      <feGaussianBlur id="feGaussianBlur2990" stdDeviation="2"/>
    </filter>
  </defs>
  <style>
    .shade,.shadow{opacity:.2;fill:#263238}.shadow{filter:url(#shadow)}.tint{opacity:.2;fill:#fff}
  </style>
  <path id="island-shadow" d="M24.7 12.2h-.5l-.3.1H23.3l-.4.2-.6.5-.8.8-.1 1.3-.2.6v1.1h.2l.2 1.2-.1.5.5 1.6.1.8.2.2h.2l.5.8.2.6.4.2.2.5.4.3.3.5.5.8.1.2.1.5-.1.4v.6l-.1.7-.2.5v.5l-.4-.3H24l-.5.6-.2.3-.3.3v.4l-.4-.1v.4h-.3v.4l-.2.1v.5l-.3.1-.1.3v.4h-.3l-.2.4v.2l-.4.2v.3l-.5.2V34l-.8.2-.2-.2h-.6l-.5.2-.3.3h-.2l-.3.5-.5.5v.4h-.4v.3l-.4.2-.2.5-.4.3-.2.3h-.4l-.2.1v.3l-.4.4v.3l-.2.1.2.9-.1.4v.6l-.4.2v.3l.4.5.2.7v.4l.2.2h.2l.1.2h.3v.6l.3.1-.2.6.1.7.9.3.4.2h.3l.3.7v.5l.6.7v.6l.3.5.1.4v.4h.2v.2l-.1.2v.4h.4l-.1.3.2.2v.6l-.3.2v.3l.3.4v.4l.3.4v.5l.4.2h.5l.4.2v.2l-.2.8.3.9.1.7.3.1v.7h.3v.2l-.3.5.3.3v.2l.2.2v.2l.4.3v.4l.6 1.4v.8l-.2.5v.2l.2.5v1l-.1.2v.8l-.4.6v2.2l-.2.4V69l-.2.4v.3l-.3.6v.7l.1-.1v.4h-.2v.3l-.1.2V73l.4 1.8.5.1.3.8h.2l.3.6.1.9.6.3.2.2h.3l.4.1h.4l.5.2h.2l.6.2.2-.1.6.3.6.8 1.2.5.3.4.5.3.6.1.7.4.8.6.6.2.6.6v.7l.2.4-.2.3.7-.3.3-.3h.3l.4-.6.4-.3.4-.1v-.5h.2l.2-.1.2-.8v-.2H37v-.2l.1-.3.1-.4.4-.6v-.2l.4-.3V77.6l1-.6.2-.4.1-2 .3-.3h.3l.3-.6.3-.5.4-.2h.2l.4-.3v-.5l.8-.5h.4l.3-.1h.4l.4-.1.5-.3.4-.6.6-.7.5-.4.3-.4 1.1-.2.5-.4 1-.4.7-.5.5-.8 1-.5.6-.7.2-.3.4-.4 1-.2h.2l.1-.1.3-.1h.8l1.6.6.4.1.5-.2.2.2h.2l.3-.3h.2l1.3-.1.2-.4.6-.1.7.1.2-.3.7-.3.4-.4.8-.3.4-.4.1-.4.4-.2H65l1-.5.4-.4.5-.3.8-.3.8-.6.5-.5.7-.8h.2l.4-.7.9-.7h.2l.3-.4.7-.5.3-.3 2-1.6.8-1 .4-.8h-.1l.1-.7v-.4h.4l.2-.2-.9-.8-.6-.2-.3-.2-.5-.5h-.4l-2.4-1.1-.4-.5-.4-.3-.3-.4-.7-.3-.4-.4v-.5L69 46l-1-.4-.4-.3v-.8l-.1-1 .2-.5v-.7l-.4-1-.4-.6-.2-.5-.5-.4v.2H66l-.4-.2H64.1l-.2.1v.3l-.4.4v-.3l-.1-.2v.2l-.5.4h-.5v-.3l-.2-1V39l-.2-.7.3-.7v-.1L62 37l.1-.6-.3-.3.2-.5v-.3l.2-.5-.1-.6V33.7l-.4-.3V33l-.5-.1-.2-.4-.5-.1-.2-.8-.4-.5h-.2l-.3-.8h-.2l-.5-.1-1-1.2-1.1-.6h-.2l-.4-.7-.8-.4-.6-.1-.4-.5-.4-.1-.4-.6-.7-.5h-.5l-.3-.1-.9-.5h-.3l-.4-.5-.7-.2-.2-.1-.3-.3h-.4l-.8-.2-.2-.1-.2-.1-.3-.3-.7-.2-.3-.3-.1-.2H46l-.1-.2-.6-.2-.4-.2-.3-.3h-.4l-.7-.4-.6.1-.5-.2-.5-.2-.2-.2h-.8l-.5-.3-.5-.3h-.5l-.3-.3-.9-.2-.4.3-1 .4-.2-.2-.4-.3-.1-.4h-.2V19l-1.2-.3-.3-.1-.2-.4-.4-.2v-.2l-.5-.2-.5-.4-.4-.3H32l-.7-.7h-.4l-.3-.1-.5-.4-.2-.2v-.8l-.6-.1-.2-.1-.1-.5-.5-.1-.7-.4-.2.2-1-.4-.1-.1V13l-.8-.1-.2-.2H25l-.3-.5z" class="shadow"/>
  <g id="island">
    <path fill="#4caf50" d="M24.7 9.4h-.5l-.3.1-.2-.1h-.4l-.4.3-.6.5-.8.8-.1 1.2-.2.7v1l.2.1.2 1.2-.1.5.5 1.6.1.8.2.2h.2l.5.8.2.5.4.2.2.6.4.3.3.5.5.8.1.2.1.4-.1.5v.6l-.1.7-.2.5v.4l-.3-.2H24l-.5.5-.2.4-.3.3v.4l-.4-.1v.4h-.3v.3l-.2.2v.5l-.3.1-.1.3v.4h-.2l-.3.4v.2l-.4.2v.3l-.5.2v1.1l-.8.1-.2-.1h-.6l-.5.2-.3.2h-.2l-.3.6-.5.5v.4h-.4v.3l-.4.2-.2.5-.4.2-.2.4h-.4l-.2.1v.3l-.4.4v.3l-.2.1.2.9-.1.4v.6l-.4.1v.3l.4.6.2.7v.4l.2.2.2-.1.1.3h.3v.6h.3l-.2.7.1.7.9.3.4.2h.3l.3.7v.5l.6.7v.6l.4.5v.7h.2v.3l-.1.1v.5h.4l-.1.2.2.3v.6l-.3.1v.3l.3.5v.4l.3.4v.4l.4.3h.5l.4.1v.2l-.2.8.3 1 .1.7h.3v.7h.3v.3l-.3.5.3.3v.1l.2.3v.2l.4.3v.4l.6 1.4v.8l-.2.4v.2l.2.6v1l-.1.1v.9l-.4.6V65l-.2.4V66.3l-.2.4v.3l-.3.6v.6h.1v.4h-.2v.7l-.1 1 .4 1.7.5.1.3.8h.2l.4.6v.9l.6.2.2.3.3-.1.4.2h.4l.5.2h.2l.6.2.2-.1.6.3.6.7 1.2.6.3.4.5.3.6.1.7.4.8.6.6.1.6.7v.7l.2.4-.2.2.7-.2.3-.3h.3l.4-.6.4-.3.4-.2v-.4h.2l.2-.1.2-.8v-.2H37v-.3l.1-.2.1-.4.4-.6V76l.4-.3V74.8l1-.6.2-.4.1-2 .3-.3h.3l.3-.6.3-.5.4-.2h.2l.4-.3v-.5l.8-.5h.4l.3-.2h.8l.5-.3.4-.7.6-.6.5-.4.4-.4 1-.2.5-.4 1-.4.7-.5.5-.8 1-.6.6-.7.2-.2.4-.4 1-.2h.2l.1-.1.3-.2.4.1h.4l1.6.6.4.1.5-.2.2.1h.2l.3-.2h.2l1.3-.1.2-.4.6-.2.7.2.2-.3.7-.3.4-.4.8-.4.4-.4.1-.3.4-.2H65l1-.5.4-.4.5-.3.8-.3.8-.6.5-.5.7-.8h.2l.4-.7.9-.7h.2l.3-.4.7-.5.3-.4 2-1.5.8-1 .5-.8-.2-.1.1-.6v-.4h.4l.2-.2-.8-.8-.7-.3-.3-.2-.5-.4h-.4l-2.4-1.1-.4-.5-.4-.3-.3-.4-.7-.3-.4-.4v-.5l-.1-.2-1-.5-.4-.2v-.8l-.1-1 .2-.5v-.7l-.4-1v-.1l-.4-.5-.2-.5-.5-.4v.2H66l-.4-.2H64.1l-.2.1v.2l-.4.5v-.3l-.1-.2v.2l-.5.3h-.5v-.2l-.2-1v-.4l-.2-.7.3-.8-.2-.4.1-.6-.3-.4.2-.5v-.2l.2-.5-.1-.6V31l-.4-.3v-.4l-.5-.2-.2-.3-.4-.2-.3-.7-.4-.5h-.2l-.3-.9-.2.2-.5-.3-1-1.2-1.1-.5h-.2l-.4-.7-.8-.4-.6-.2-.3-.4-.5-.1-.4-.7-.7-.4h-.5l-.3-.1-.9-.5h-.3l-.4-.6-.7-.2h-.2l-.3-.3h-.4l-.8-.2-.2-.2h-.2l-.3-.4-.7-.1-.3-.3v-.3h-.4l-.6-.3-.4-.2-.3-.3h-.4l-.7-.4-.6.1-.5-.2-.5-.2-.2-.3-.2.2-.3-.2H41l-.5-.3-.5-.2h-.5l-.3-.3-.9-.2-.4.3-1 .4-.2-.2-.4-.3-.1-.4h-.2V16l-1.2-.2-.3-.1-.2-.5-.4-.1V15l-.5-.2-.5-.4-.4-.3H32l-.7-.7h-.4l-.3-.2-.5-.3-.2-.2V12l-.6-.1-.2-.1-.1-.5-.5-.1-.7-.4-.2.2-1-.4-.1-.1V10h-.8l-.2-.3H25l-.3-.4z"/>
    <path d="m50.4 20-.8.1-1 .5-1.2 1-1.7 1.7-.2 2.6.3 1.4 1.6-1.6 1.3-1.1.9-.5.8-.1.4.3.8-.3h.9l.6.9h1l.3.4 1.7.2v.5l.2.2.2.1 2 .8.4-.4 1.5.8 1 .3.2 1h.2l.3.2 1.2.2.2.6-.1 1.2.4.4 1 .8.7.4.8-.1L68 34h1l.8.6 1.2.8.9.4.1.5.9.3.5 1 .5.3 2.4.4.1.6.4.1.3 1 .8.5.6.4 2-.8 1-.6 1.7.4.8.7h1l1 .5 1 .7h.1l.7-.2.5.4.4-.3.5.6 1.1.3 1 .6 1.4-.3 1.4.8h.8l.8.7.8.5 1.2.4.3.2h.4l.2.6.6.6 1.5.3.6.7h.1l.3.2.5.4 1.8.4h.8l.6.5.4.2 1.6.4.7 1.2h.7l2 1 .6.2h.3l.6.1 1.5 1 .9 1.2 1 .4.8.9 1.2.3 1.8 1 .8 1.3.4.1 2.2 1.1 2.3 2.6 1 .4.4-.2.6 1.8h.4l1 1 .5 1.5v.1l1 .4.4.7 1 .3v.8l.7.7V69l.3-1.3-.7-.8.5-1v-.2l-.7-.7-.2-.8-.9-.3-.5-.7-.9-.4-.5-1.6-1-1h-.4l-.6-1.9-.4.3-1-.4-2.3-2.6-2.2-1.1h-.4l-.8-1.5-1.8-1-1.2-.2-.8-1-1-.3-.9-1.3-1.5-.9H111.3l-.7-.3-1.9-1h-.7l-.7-1.2-1.6-.4-.4-.1v-.1l-.5-.5h-1l-1.7-.4-.5-.4-.3-.1-.1-.1-.6-.7-1.5-.3-.6-.6-.2-.5-.4-.1-.3-.2-1.2-.4-.8-.5-.8-.7H94l-1.4-.8-1.3.3-1-.6-1.2-.3-.5-.6-.4.3-.5-.4-.7.1h-.2l-1-.6-1-.5h-1l-.7-.7-1.8-.4-1 .6-1.9.8-.6-.4-.8-.5-.3-1h-.4v-.7l-2.5-.5-.5-.3-.5-.9-.9-.3-.2-.5-.8-.4-1.2-.8-.8-.6h-1l-1.6-1.5h-.8l-.7-.3-1-.8-.4-.4.2-1.2-.3-.6-1.2-.2-.4-.2h-.1l-.2-1-1-.3-1.5-.8-.4.4-2-.8h-.2l-.2-.3v-.5l-1.7-.2-.4-.4h-1l-.5-.9h-1l-.7.3-.4-.3zm3 31-.3.9-.3 1-.2 1v.1l-.6-.6h-1l-1 1.2-.3.7-.7.7.1.7-1-.2v1h-.6l-.1.7-.4.3v1.1l-.6.2-.3.7.2.8h-.6l-.6.7v.6l-.8.4-.2.6-1 .4v1.2l.2 1.2-1.8.3-.4-.3h-1.3l-1.1.4-.5.5-.5.1-.7 1-1 1.2v.9h-.8l-.2.6-.7.4-.4 1-.9.6-.5.7h-.7l-.5.3v.6l-1 .8V76.4l-.3.1.4 1.7V79.4l1-.7v-.6l.4-.3h.7l.5-.7 1-.6.3-1 .7-.4.2-.6h.8v-.9l1-1.1.7-1 .4-.2.6-.5 1-.4h1.4l.3.3 1.9-.3-.2-1.2V68l1-.4.2-.6.8-.4V66l.5-.7h.6l-.1-.8.3-.7.5-.2v-1.1l.5-.3v-.7h.8v-1l.9.2-.1-.7.7-.7.2-.7 1.1-1.1 1-.1.6.6.2-1 .3-1.1.3-1.5v-1.3l.3-.9-.2-1-.2-.2zm78.8 22-.1.2v.6l-.4 1.1.3.3.3-1V74l-.1-.7V73zm.1 5.3-.4 1.1.3 1.5V82l.4 2 .2.5h.9l1-.8.2-.4.3.5v.5l.7-.9V83l.4-.4.4.2.8-.3 1 .3.9-.1.8.4h.9v-.5l1 1 .4 1 .7 1 .2.4.4 1v-.3l.2-.6v-.2l.1-1.3-.4-1.8-.3-.8-.2-.3-.7-1-.4-1-1-1v.4h-.8l-1-.4-.9.1-.9-.3-.8.3-.4-.2-.4.4v.4l-.8 1v-.6l-.2-.5-.2.4-1 .8h-1V80l-.4-1.7zM144 90l-.3.7.4 2-.2 1.2.2.5.7.5 2.1.9v.2l.1.3.2 1.1.8.8 1.5.7.6.9 1 .6.7 1 5.1 2.4h.9l1.1.9.6.4h.1l1-1.1.9-1.8-.3-.3-.3-.2-1.4-.6-.6-.4-1-.9h-1l-5-2.5-.9-.9-.9-.6-.6-1-1.5-.6-.8-.8-.2-1.1v-.5l-2.2-.9-.7-.5-.1-.4zm-96.4 37v.2l.2 1v1.7l.2-.4v-1.7l-.4-.7zm0 4.1v1.2l-.8 1.3v.9l.1 1-.3 1 .1 1.8-.4.8v1.9l-.4 1 .2.5-.7 1.4-.3 1.3.5-.1v.8l-.4.2v.5l.2 1.2.7-1.3-.2-.5.3-1v-.4l.1-1.5.4-.8-.1-1.9.3-.9-.1-1v-.9l.7-1.3v-1.8l.3-.4v-2l-.2-1z" class="tint" transform="matrix(.47 0 0 .47 0 0)"/>
    <path d="m45.5 29.9.5 2.4-.3 1 1.1 3.4.2 1.8.5.4h.4l1 1.8.5 1.1 1 .5.2 1 .9.7.7 1 1 1.8.1.2.1-.6v-1.3l.3-.9-.2-1-.3-.4-1-1.7-.7-1.1-1-.6-.2-1.1-.9-.5-.4-1.1-1-1.8h-.5l-.5-.4-.2-1.8-1-3.4-.3.6zM132 71.2v.2l.2 1.5.2-1.2zM30.5 79.4l-.1.1v.7h-.1v.2l-.3.1.4 1.7v.4l.2 1.4v.8l.5.6.4-.3.3.6.5-.1.1 1.4.5.2-.4 1.4.4 1.3 1.8.8.7.3.9.1.5 1.4.2 1 1 1.6.1 1.2.7 1.1.2.8-.2.9h.5l.2.5-.4.3-.1.8 1 .3-.3.4.4.5v1.2l-.4.4-.2.7.7.8.2 1 .5.8v1l.9.5h.9l1 .3v.4l-.5 1.7.7 2 .2 1.5.5.2v1l.2.4h.4l.1.6-.6 1 .6.8.2.2.2.5v.5l.9.5-.1 1 1 2.2V122.5l.5-1v-1.7l-1.5-3v-.9l-.8-.5v-.5l-.2-.5-.2-.2-.6-.8.6-1v-.5h-.5l-.2-.5v-1l-.5-.2-.2-1.4-.7-2 .5-1.8v-.4l-1-.4h-1l-.9-.4.1-1-.5-.8-.2-1-.7-.8.2-.7.4-.4V98l-.3-.5.1-.4-.9-.3V96l.5-.3-.2-.5h-.5l.2-.9-.2-.8-.7-1V91L37 89.6l-.2-1.1-.5-1.4-.9-.1-.7-.3-1.8-.8-.4-1.3.4-1.4-.5-.2-.1-1.4-.5.1-.3-.6-.4.3-.4-.6-.1-.8zm129.2 25.8-.8.8-4.3 3.3-.7.8-1.4 1-.7.7-.4.1-1.8 1.4-.8 1.4-.5.2-1.6 1.8-1 1-1.7 1.2-1.7.7-1 .6-.9.9-2 .9-3 .2-.7.4-.4.7-.6.9-1.9.7-.8.8-1.4.6-.4.7-1.5-.3-1.4.3-.3.9-2.8.4-.5-.3-.5.6h-.5l-.4-.2-1 .4-1-.2-3.4-1.3h-.9l-.8-.1-.6.3-.2.4-.6-.2-1.9.4-1 .8-.4.6-1.3 1.5-2 1.2-1.1 1.6-1.4 1.1-2.3.8-1 1-2.2.3-.8.8-1 1L95 140l-.9 1.5-1 .5-.8.2h-1l-.5.3h-1l-1.7 1 .1 1-.9.7H87l-.7.5-.6 1-.7 1.1-.7.1-.6.7-.3 4.2-.5 1-1.8 1.3-.2.6v1.2l-.8.6v.4l-.9 1.4-.1.9-.5.5.1.4-.5.2-.9-.2-.8.1v.5l-.4 1.5-.4.4h-.4v.9l-.9.4-1 .6-.8 1.4-.6-.2-.6.7-1.4.5.2-.5-.4-1v-1.4l-1.2-1.3-1.3-.4-1.6-1.3-1.6-.7-1.3-.3-1-.7-.6-.8-2.5-1.2-1.4-1.6-1.3-.6-.4.2-1.2-.4H54l-1-.6-.9.2-.9-.4-.7.2-.4-.5-1.2-.6-.2-1.9-.7-1.4h-.4l-.7-1.6-1-.2-.3-1.4h-.1l-.3 1.4.5-.1v.8l-.4.2v.6l.6 2.5 1 .3.6 1.5h.5l.7 1.5.2 1.8 1.2.6.4.5.8-.2.8.4.8-.1 1 .6.5-.1 1.2.4.4-.2 1.3.6 1.4 1.6 2.5 1.2.6.8 1 .7 1.3.3 1.6.7 1.6 1.3 1.3.4 1.3 1.3v1.5l.4 1-.3.4 1.4-.5.6-.7.6.2.9-1.4 1-.6.7-.4v-1l.5.1.4-.3.4-1.6v-.4l.8-.2.9.3.6-.3-.2-.4.5-.5.2-1 .9-1.3-.1-.4.8-.6v-1.2l.2-.6 1.8-1.3.5-1 .4-4.2.5-.7h.7l.7-1.2.6-1 .8-.4h.4l1-.8-.2-1 1.7-1h1l.5-.3h1l1-.2.8-.5.9-1.5 1.3-1.3 1-1 .8-.8 2.3-.4 1-.9 2.2-.8 1.4-1 1.2-1.7 1.9-1.2 1.3-1.5.5-.6 1-.8 1.8-.4.6.2.3-.4.5-.3.8.1h1l3.4 1.3.9.2 1-.4.5.3.4-.1.5-.5.6.2 2.7-.4.3-.9 1.5-.3 1.4.4.4-.7 1.4-.7.9-.8 1.8-.7.7-.9.3-.7.8-.4 2.9-.2 2-.9.9-.9 1-.6 1.8-.7 1.7-1.2 1-1 1.6-1.8.4-.2.8-1.3 1.8-1.4.5-.1.7-.8 1.4-1 .7-.8 4.3-3.2 1.8-2.1.7-1.8-.3-.2-.2-.3-1.3-.5zm-112 20.7-.3.6.1.4v.2-.6l.3-.4z" class="shade" transform="matrix(.47 0 0 .47 0 0)"/>
  </g>
  <g id="wheel-front">
    <path fill="#424242" d="M21.3 47a4.6 4.6 0 1 0 0 9.1 4.6 4.6 0 0 0 0-9z" transform="translate(46.5)"/>
    <path d="M21.3 47a4.6 4.6 0 0 0-4.6 5 4.6 4.6 0 0 1 9.1 0v-.4c0-2.5-2-4.6-4.5-4.6z" class="tint" transform="translate(46.5)"/>
    <path d="M16.7 51.1v.5a4.6 4.6 0 1 0 9.1-.5 4.6 4.6 0 0 1-9 0z" class="shade" transform="translate(46.5)"/>
  </g>
  <g id="wheel-back">
    <path fill="#424242" d="M21.3 47a4.6 4.6 0 1 0 0 9.1 4.6 4.6 0 0 0 0-9z"/>
    <path d="M21.3 47a4.6 4.6 0 0 0-4.6 5 4.6 4.6 0 0 1 9.1 0v-.4c0-2.5-2-4.6-4.5-4.6z" class="tint"/>
    <path d="M16.7 51.1v.5a4.6 4.6 0 1 0 9.1-.5 4.6 4.6 0 0 1-9 0z" class="shade"/>
  </g>
  <path id="windows" fill="#263238" d="m5 38.2-.6.8a.4.4 0 0 0 0 .2L4.1 42h3.5a.4.4 0 0 0 .2 0 .4.4 0 0 0 .2-.2l1.8-3a.4.4 0 0 0-.4-.6H4.9zm7.4 0a.4.4 0 0 0-.3.2l-1.8 3a.4.4 0 0 0 .4.6H26a.4.4 0 0 0 .4-.2l1.7-3a.4.4 0 0 0-.3-.6H12.5a.4.4 0 0 0-.1 0zm26.5 0a.4.4 0 0 0-.3.2l-1.8 3a.4.4 0 0 0 .4.6h15.3a.4.4 0 0 0 .4-.2l1.7-3a.4.4 0 0 0-.3-.6H38.9zm18.2 0a.4.4 0 0 0-.3.2l-1.8 3a.4.4 0 0 0 .4.6h15.3a.4.4 0 0 0 .4-.2l1.8-3a.4.4 0 0 0-.4-.6H57.2zm25.4 1.2a.4.4 0 0 0-.4.4v6.5a.4.4 0 0 0 .4.4H86a.4.4 0 0 0 .4-.6L83 39.6a.4.4 0 0 0-.4-.2z"/>
  <path id="bus-shadow" d="M7.6 36.9a.4.4 0 0 0-.2.2l-2.5 4H9.5a.4.4 0 0 1 .4.6l-1.8 3a.4.4 0 0 1-.2.1.4.4 0 0 1-.1 0H4.1l-.4 6a.4.4 0 0 0 0 .3l2.4 4.1a.4.4 0 0 0 .4.2h9.3a5.5 5.5 0 1 1 10.7 0h35.8v-1a5.5 5.5 0 1 1 10.7 1h11.2a.4.4 0 0 0 .4-.3l1.8-5.9a.4.4 0 0 1-.5.3h-3.5a.4.4 0 0 1-.4-.4v-6.5a.4.4 0 0 1 .4-.4.4.4 0 0 1 .4.2l3.5 6.5-3.4-6.3 2.3-5a.4.4 0 0 0-.4-.7H7.7zm4.8 4.1h15.4a.4.4 0 0 1 .3.7l-1.7 3a.4.4 0 0 1-.4.1H10.7a.4.4 0 0 1-.4-.6l1.8-3a.4.4 0 0 1 .3-.2zm26.5 0h15.4a.4.4 0 0 1 .3.7l-1.7 3a.4.4 0 0 1-.4.1H37.2a.4.4 0 0 1-.4-.6l1.8-3a.4.4 0 0 1 .3-.2zM57 41h15.4a.4.4 0 0 1 .4.7l-1.8 3a.4.4 0 0 1-.4.1H55.4a.4.4 0 0 1-.4-.6l1.8-3a.4.4 0 0 1 .3-.2zm29.4 8a.4.4 0 0 1 0 .2.4.4 0 0 0 0-.2z" class="shadow"/>
  <g id="bus-body">
    <path fill="#e1e5e8" d="M7.6 34a.4.4 0 0 0-.2.3l-2.5 3.9H9.5a.4.4 0 0 1 .4.7L8 41.8a.4.4 0 0 1-.2.2.4.4 0 0 1-.1 0H4.1l-.4 6a.4.4 0 0 0 0 .3l2.4 4.1a.4.4 0 0 0 .4.2h9.3a5.5 5.5 0 1 1 10.7 0h35.8v-1a5.5 5.5 0 1 1 10.7 1h11.2a.4.4 0 0 0 .4-.3l1.8-5.9a.4.4 0 0 1-.5.3h-3.5a.4.4 0 0 1-.4-.4v-6.5a.4.4 0 0 1 .4-.4.4.4 0 0 1 .4.2l3.5 6.5-3.4-6.3 2.3-5.1a.4.4 0 0 0-.4-.6H7.7zm4.8 4.2h15.4a.4.4 0 0 1 .3.7l-1.7 2.9a.4.4 0 0 1-.4.2H10.7a.4.4 0 0 1-.4-.6l1.8-3a.4.4 0 0 1 .3-.2zm26.5 0h15.4a.4.4 0 0 1 .3.7L53 41.8a.4.4 0 0 1-.4.2H37.2a.4.4 0 0 1-.4-.6l1.8-3a.4.4 0 0 1 .3-.2zm18.2 0h15.4a.4.4 0 0 1 .4.7L71 41.8a.4.4 0 0 1-.4.2H55.4a.4.4 0 0 1-.4-.6l1.8-3a.4.4 0 0 1 .3-.2zm29.4 8a.4.4 0 0 1 0 .2.4.4 0 0 0 0-.2z"/>
    <path d="M7.7 34a.4.4 0 0 0-.3.3l-2.5 4H5.5l1.9-3a.4.4 0 0 1 .3-.3H85a.4.4 0 0 1 .2 0l.2-.3a.4.4 0 0 0-.4-.6H7.7zm2 5.2-1.6 2.6a.4.4 0 0 1-.2.2.4.4 0 0 1-.1 0H4.1l-.4 6a.4.4 0 0 0 0 .3l.4-5.3h3.5a.4.4 0 0 0 .2 0 .4.4 0 0 0 .2-.3l1.8-2.9a.4.4 0 0 0-.2-.6zm18.3 0-1.6 2.6a.4.4 0 0 1-.4.2H10.7a.4.4 0 0 1-.2 0l-.2.3a.4.4 0 0 0 .4.7H26a.4.4 0 0 0 .4-.3l1.7-2.9a.4.4 0 0 0-.1-.6zm26.4 0L53 41.8a.4.4 0 0 1-.4.2H37.2a.4.4 0 0 1-.2 0l-.2.3a.4.4 0 0 0 .4.7h15.3a.4.4 0 0 0 .4-.3l1.7-2.9a.4.4 0 0 0-.2-.6zm18.3 0-1.6 2.6a.4.4 0 0 1-.4.2H55.4a.4.4 0 0 1-.2 0l-.2.3a.4.4 0 0 0 .4.7h15.3a.4.4 0 0 0 .4-.3l1.8-2.9a.4.4 0 0 0-.2-.6zm10.6 1 3.1 5.9-3.2-5.9zM82 46.3v1a.4.4 0 0 0 .4.4H86l.3-.9.1-.3a.4.4 0 0 1-.2.2.4.4 0 0 1-.2 0h-3.5a.4.4 0 0 1-.4-.4zm-66.2 5.8v.5-.5zm46.5 0v.5-.5zm-35.7 0v.5-.4zm46.5 0v.5-.4z" class="tint"/>
    <path d="m85.1 34.2-2 4.7.1.4 2-4.6a.4.4 0 0 0-.1-.5zm-79.6 3-.6 1H9.5a.4.4 0 0 1 .2 0l.2-.3a.4.4 0 0 0-.4-.6h-4zm6.8 0a.4.4 0 0 0-.2.3l-1.8 3a.4.4 0 0 0 .2.5l1.6-2.6a.4.4 0 0 1 .3-.2h15.4a.4.4 0 0 1 .2 0l.1-.3a.4.4 0 0 0-.3-.6H12.5a.4.4 0 0 0-.1 0zm26.5 0a.4.4 0 0 0-.2.3l-1.8 3a.4.4 0 0 0 .2.5l1.6-2.6a.4.4 0 0 1 .2-.2.4.4 0 0 1 .2 0h15.3a.4.4 0 0 1 .1 0l.2-.3a.4.4 0 0 0-.3-.6H39a.4.4 0 0 0-.2 0zm18.3 0a.4.4 0 0 0-.3.3l-1.8 3a.4.4 0 0 0 .2.6l1.6-2.7a.4.4 0 0 1 .3-.2h15.4a.4.4 0 0 1 .2 0l.2-.3a.4.4 0 0 0-.4-.6H57.2a.4.4 0 0 0-.1 0zm25.3 1.2a.4.4 0 0 0-.3.5v1a.4.4 0 0 1 .4-.5.4.4 0 0 1 .4.2l3.3 6.2-3.2-6 .2-.5-.3-.6a.4.4 0 0 0-.4-.3zm-61.1 6.8c-3 0-5.5 2.5-5.5 5.5v.3a5.4 5.4 0 0 1 10.8.1l.1-.4c0-3-2.4-5.5-5.4-5.5zm46.5 0c-3 0-5.5 2.5-5.5 5.5v.3a5.5 5.5 0 0 1 11 .2v-.5c0-3-2.5-5.5-5.5-5.5zm18.6 1.3a.4.4 0 0 1-.3.2l-1.4 4.7a.4.4 0 0 1-.4.3h-11l-.2 1h11.2a.4.4 0 0 0 .4-.4l1.7-5.8zm-82.6.8v.7a.4.4 0 0 0 0 .3l2.4 4.1a.4.4 0 0 0 .4.2h9.3v-1H6.5a.4.4 0 0 1-.4-.1l-2.4-4.2zm23 4.4-.2 1h35.9l-.2-1H26.7z" class="shade"/>
  </g>
  <g id="bus-details">
    <path d="M31.9 36.3c-1.2 0-2.2 1-2.2 2.2v6.8H4v.6h25.7v2c0 1.2 1 2.2 2.2 2.2h1.7c1.3 0 2.3-1 2.3-2.2v-2h38v2c0 1.2 1 2.2 2.1 2.2h1.8c1.2 0 2.2-1 2.2-2.2v-9.4c0-1.2-1-2.2-2.2-2.2H76c-1.2 0-2.2 1-2.2 2.2v6.8h-38v-6.8c0-1.2-1-2.2-2.2-2.2H32zm0 .9h1.7c.8 0 1.4.6 1.4 1.3V48c0 .8-.6 1.4-1.4 1.4H32c-.8 0-1.3-.6-1.3-1.4v-9.4c0-.7.5-1.3 1.3-1.3zm44.1 0h1.8c.7 0 1.3.6 1.3 1.3V48c0 .8-.6 1.4-1.3 1.4H76c-.7 0-1.3-.6-1.3-1.4v-9.4c0-.7.6-1.3 1.3-1.3z" class="shade"/>
    <path fill="#4d74ab" d="M31.9 35.8c-1.2 0-2.2 1-2.2 2.2v6.8H4v.6h25.7v2c0 1.3 1 2.3 2.2 2.3h1.7c1.3 0 2.3-1 2.3-2.2v-2h38v2c0 1.2 1 2.2 2.1 2.2h1.8c1.2 0 2.2-1 2.2-2.2V38c0-1.2-1-2.2-2.2-2.2H76c-1.2 0-2.2 1-2.2 2.2v6.8h-38V38c0-1.2-1-2.2-2.2-2.2H32zm0 1h1.7c.8 0 1.4.5 1.4 1.2v9.5c0 .7-.6 1.3-1.4 1.3H32c-.8 0-1.3-.6-1.3-1.3V38c0-.7.5-1.3 1.3-1.3zm44.1 0h1.8c.7 0 1.3.5 1.3 1.2v9.5c0 .7-.6 1.3-1.3 1.3H76c-.7 0-1.3-.6-1.3-1.3V38c0-.7.6-1.3 1.3-1.3z"/>
  </g>
  <path id="finish" fill="url(#finish-gradient)" d="m50.4 20-.8.1-1 .5-1.2 1-1.7 1.7-.2 2.8-.4 1.3-.2 1.9.2.4.4.2.5 2.4-.3 1 1.1 3.4.2 1.8.5.4h.4l1 1.8.5 1.1 1 .5.2 1 .9.7.7 1 1 1.8.3.4.2 1-.4.9v.3l.1 1-.3 1.5-.3 1-.2 1v.1l-.6-.6h-1l-1 1.2-.3.7-.7.7v.7l-.9-.2v1h-.6l-.1.7-.4.3v1.1l-.6.2-.3.7.1.8h-.6l-.5.7v.6l-.9.4v.6l-1 .4-.1 1.2.1 1.2-1.8.3-.3-.3h-1.4l-1 .4-.6.5-.4.1-.7 1-1 1.2v.9h-.8l-.2.6-.7.4-.4 1H16.5a1 1 0 0 0-.2 0 1 1 0 0 0-.6.4l-5.2 8.4-1 1.7a1 1 0 0 0-.3.4l-.4 6-.8 12.8a1 1 0 0 0 .1.5l5 8.8a1 1 0 0 0 .8.5h20l-.2-2.2c0-4.1 2.1-7.7 5.3-9.7v.7l1 .2-.3.4.3.3a9.7 9.7 0 0 0 5.3 17.8h.4l.9.4-.1 1 1.4 3 .1 1v.6l-.6 1 .1.4.3 1.2v2l-.2.4v1.8l-.8 1.3v.9l.1 1-.3 1 .1 1.8-.4.8v1.5l-.1.4-.3 1 .2.5-.7 1.4-.3 1.3.5-.1v.8l-.4.2v.5l-.3.5.1.4-.2 1.9 1 3.8 1 .2.6 1.6h.5l.7 1.4.1 1.9 1.3.5.4.5.7-.1.9.4.8-.2 1 .7.5-.1 1.2.4.4-.2 1.3.6 1.4 1.6 2.5 1.2.5.8 1 .7 1.3.2 1.7.8 1.5 1.3 1.3.3 1.3 1.4v1.5l.4.9-.2.5 1.3-.5.6-.7.7.2.8-1.4 1-.6.8-.4v-1l.5.1.4-.4.4-1.6v-.4l.8-.1.9.2.5-.2-.1-.4.5-.6.1-.8 1-1.4-.2-.4 1-.6v-1.2l.1-.6 1.8-1.4.5-.9.3-4.2.6-.7h.6l.8-1.2.6-1 .7-.5h.5l1-.7-.2-1 1.7-1h1l.5-.3h1l.9-.2.9-.5.9-1.5 1.2-1.3 1-1 .9-.8 2.3-.4 1-1 2.2-.7 1.4-1 1.1-1.7 2-1.2 1.3-1.5.4-.6 1-.8 2-.4.5.2.2-.4.6-.3h1.8l3.3 1.4 1 .2 1-.4.4.3.5-.1.5-.6.5.3 2.8-.4.3-.9 1.4-.3 1.5.3.3-.7 1.5-.6.8-.8 1.8-.7.7-.9.4-.7.8-.4 2.8-.2 2.1-1 .8-.8 1-.6 1.8-.7 1.7-1.2 1-1 1.6-1.8.4-.2.3-.5c1.1-.6 2-1.4 2.8-2.4l.7-.7 1.4-1 .7-.8 1.7-1.3h23a1 1 0 0 0 1-.7l3.6-12.3a1 1 0 0 0 0-1l-7.3-13.3 4.8-10.9a1 1 0 0 0-.8-1.3h-48.3v-.9l-.6-.7.5-1-.1-.7.4-1-.3-1.2.2-.4-.3-1-.6-.6-.2-.8-.9-.3-.5-.7-.9-.4-.5-1.6-1-1h-.4l-.6-1.9-.4.3-1-.4-2.3-2.6-2.2-1.1h-.4l-.8-1.5-1.8-1-1.2-.3-.8-.8-1-.4-1-1.3-1.4-.9H111.3l-.7-.3-1.9-1h-.7l-.7-1.2-1.6-.4-.4-.1v-.1l-.6-.5h-.8l-1.8-.4-.5-.4-.3-.1-.1-.1-.6-.7-1.5-.3-.6-.6-.2-.5-.4-.1-.3-.2-1.2-.4-.8-.5-.8-.7H94l-1.4-.8-1.3.3-1-.6-1.2-.3-.5-.6-.4.3-.5-.4-.7.1h-.2l-1-.6-1-.5h-1l-.7-.7-1.8-.4-1 .6-1.9.8-.7-.4-.7-.5-.3-1h-.4v-.7l-2.5-.5-.5-.3-.5-.9-.9-.3-.2-.5-.8-.4-1.2-.8-.8-.6h-1l-1.6-1.5h-.8l-.7-.3-1-.8-.4-.4.1-1.2-.2-.6-1.2-.2-.4-.2h-.1l-.2-1-1-.3-1.5-.8-.4.4-2-.8h-.2l-.2-.3v-.5l-1.7-.2-.4-.4h-1l-.5-.9h-1l-.7.3-.4-.3zm124.7 63.9zm-.2 0a1 1 0 0 1 .1 0 1 1 0 0 0 0 .1zM17.2 89.2zm-.5.3a1 1 0 0 1-.1 0z" opacity=".1" transform="matrix(.47 0 0 .47 0 0)"/>
</svg>
