<svg xmlns="http://www.w3.org/2000/svg" xml:space="preserve" fill-rule="evenodd" stroke-linejoin="round" stroke-miterlimit="1.4" clip-rule="evenodd" viewBox="0 0 56 56">
  <path fill="#4db6ac" fill-rule="nonzero" d="m18.2 5.1-7 5c.8 1.7 2 3.3 3.5 4.3 1.4 1 2.5 2.2 3.5 3.4V5.1Zm34.7 0L36.5 15.7v1.7h.1c1.4-.9 3-1.4 4.8-1.2a5 5 0 0 1 3 1.7 16 16 0 0 1 3.7 9c.5 3 .9 5.5 2.4 6.9a5 5 0 0 0 2.5 1l-.1-29.7Zm-33.2 0v14.8l1 1.5 2 2.7c.7.6 1.4 1 2.2 1 2.8 0 5.2-2.1 7.7-4.5l1.9-1.6v-3.3L19.7 5.1ZM9.7 11l-6.5 4.6-.2 19 1-.5c.7-.4 1.3-1 1.8-1.6l.4-.7c1.3-2 2.8-4 4.4-6 1.2-1.3 2.4-2.5 3.9-2.6.7-.1 1.5.2 2 .9.4.7.6 1.6.7 2.8.2 1.6.4 2.6.7 3.2 0 .3.2.4.3.6v-10a17.2 17.2 0 0 0-4.4-4.8c-1.8-1.3-3-3-4-4.9h-.1Zm31 6.9a6 6 0 0 0-3.3 1l-.9.6v27l.3.6-.3.1v3.7L53 41.7v-5.1a6.8 6.8 0 0 1-3.5-1.5c-2.2-1.9-2.6-5-3-7.9-.6-3-1.2-5.9-3.3-8V19a3.6 3.6 0 0 0-2.5-1.2v.1Zm-6.2 3.4-.8.6c-2.5 2.4-5.2 5-8.8 4.9a5 5 0 0 1-3.2-1.4l-2-2.4.1 9c1.4.8 3.7 1.7 7 3.7a26 26 0 0 1 7.7 7.2V21.3Zm-19.8 3.6c-.5 0-1.7.9-2.9 2.2a40 40 0 0 0-4.2 5.7l-.4.7s-.8 1.1-2.3 2a7 7 0 0 1-1.9 1v1.6c0 4 .2 8.8.1 12.8 5.2-4 9.9-8 15-12V33a5.2 5.2 0 0 1-1.7-2.1c-.5-1-.7-2.2-.8-3.9a5 5 0 0 0-.5-2c-.2-.2-.2-.2-.4-.1Zm26 5.7h4.5v3.2h-4v12h-.4v-12l-.1-3.2ZM19.8 34v4.9l14.7 12V46c-1.1-2-3.6-5.7-8.5-8.8-2.7-1.6-4.7-2.5-6.2-3.2Z"/>
</svg>
