<svg xmlns="http://www.w3.org/2000/svg" xml:space="preserve" fill-rule="evenodd" stroke-linejoin="round" stroke-miterlimit="2" clip-rule="evenodd" viewBox="0 0 512 512">
  <path fill="#fff" fill-rule="nonzero" d="M474.38 278.26v-29a6.2 6.2 0 0 0-5.4-6.14H44.06a6.2 6.2 0 0 0-5.42 6.14v29a21.66 21.66 0 0 0 18.87 21.44v101.2c.02 19.3 15.77 35.17 34.92 35.2H420.6c19.15-.03 34.9-15.9 34.92-35.2V299.7a21.66 21.66 0 0 0 18.86-21.44Z"/>
  <path fill="#fff" fill-rule="nonzero" d="M17.05 113.26a5.46 5.46 0 0 1 6.36-3.18l8.82 2.2c.38.01.77.07 1.16.16l30.85 7.72a5.5 5.5 0 0 1 2.8 1.7l125.44 125.45a21.67 21.67 0 0 1 5.63-9.78 21.85 21.85 0 0 1 30.86 0c4.13 4.1 6.4 9.59 6.4 15.41a21.7 21.7 0 0 1-6.39 15.44c-2.13 2.14-53.84 15.6-53.84 15.6s-54-30.94-55.06-32l-10.6-10.6-.04.03-81.13-81.13a5.44 5.44 0 0 1-1.59-2.82l-2.19-8.76a5.88 5.88 0 0 1-.23-.71l-7.71-30.86a5.4 5.4 0 0 1 .46-3.87Z"/>
  <path fill="#fff" fill-rule="nonzero" d="m214.54 89.79 4.25-6.77.24-.36 6.08-9.66a4.44 4.44 0 0 1 7.88.67c.32.46.56.99.7 1.57l6.9 30.37.08.46 4 17.61a4.5 4.5 0 0 1-.63 3.59l-9 14.29L276.07 322a4.45 4.45 0 0 1-3.35 5.32c-2.4.55-14.16 2.42-16.56 2.96a4.45 4.45 0 0 1-5.32-3.35L209.8 146.49l-14.29-9a4.44 4.44 0 0 1-1.8-1.98l-.01-.03c-.14-.3-.24-.6-.3-.93l-6.87-30.18a4.43 4.43 0 0 1-.13-1.32l-3.6-15.85c-.27-1.2-.03-2.4.58-3.37a4.44 4.44 0 0 1 6.51-2.13l15.96 10.05-.58-2.53a4.44 4.44 0 1 1 8.68-1.98l.58 2.55Z"/>
  <path fill="#fff" fill-rule="nonzero" d="m284.03 290.15-5.7-3.3a22.96 22.96 0 0 1-8.4-31.34l51.61-89.4a22.96 22.96 0 0 1 31.27-8.44l.07.04a3.83 3.83 0 0 0 5.22-1.4l2.9-5.03c-.03-.2-.96-14.35-.96-14.35-.12-1.81 1.41-3.32 2.2-4.3a6.36 6.36 0 0 1 2.52-1.61l17.58-7.51a3.81 3.81 0 0 1 1.9-.29 3.8 3.8 0 0 1 4.35-.37l11.2 6.46a19.13 19.13 0 0 1 4.45-13.6 23.63 23.63 0 0 1 43.67 9.61 19.1 19.1 0 0 1-11.28 25.27l11.76 6.92a3.82 3.82 0 0 1 1.73 4.5c.45.54 3.12 22.18 2.92 22.73a3.82 3.82 0 0 1-1.9 4.77l-12.35 6.1a3.8 3.8 0 0 1-.99.34l-3.13 5.42c-.59 1.01-.8 2-.25 2.44.52.42 1.49.87 2.19 1.28a22.96 22.96 0 0 1 8.4 31.33c-.03.03-52.16 90.91-52.16 90.91a22.96 22.96 0 0 1-31.34 8.4l-72.84-42.06c-1.73-1-3.28-2.19-4.64-3.52Z"/>
  <path fill="#a3bed8" fill-rule="nonzero" d="M142.4 256h41.51L60.2 132.8l-26.29-5.9 6.35 28.26L142.41 256Zm81.22-161.67-9.42 13.77-14.09-8.16 5.48 31.54 14.92 7.16 11-14.58-7.89-29.73Z"/>
  <path fill="#a3bed8" fill-rule="nonzero" d="M142.4 256h41.51L60.2 132.8l-26.29-5.9 6.35 28.26L142.41 256Z"/>
  <path fill="#ffce54" fill-rule="nonzero" d="M236.68 315.94c4-.25 8.1 1.17 11.17 4.23a14.63 14.63 0 1 1-20.73 20.68 14.47 14.47 0 0 1-4.24-11.16 14.58 14.58 0 0 1 13.8-13.75Z"/>
  <path fill="#ed5565" fill-rule="nonzero" d="m176.86 283.65 18.67 18.68 13.8 13.8 13.55 13.56a14.58 14.58 0 0 1 13.8-13.75v-.05l-20.43-20.49-13.8-13.8-11.8-11.75-13.8 13.8Z"/>
  <path fill="#d37231" fill-rule="nonzero" d="m176.86 283.65-20.68 20.68a14.63 14.63 0 0 1-20.67 0 14.58 14.58 0 0 1-.06-20.67 14.66 14.66 0 0 1 16.68-2.84l7.46-7.5 20.72-20.67 7.46-7.5a14.64 14.64 0 0 1 23.55-16.64 14.64 14.64 0 0 1 0 20.68l-20.67 20.66-13.8 13.8Z"/>
  <path fill="#333" fill-rule="nonzero" d="M205.88 238.69a4.9 4.9 0 0 1-4.88 4.9 4.85 4.85 0 0 1-4.87-4.85v-.05a4.87 4.87 0 1 1 9.75 0ZM64.34 131.77a4.88 4.88 0 0 1-6.06 4.74l-27.58-6.9a4.88 4.88 0 1 1 2.37-9.46l27.57 6.9a4.88 4.88 0 0 1 3.7 4.72Z"/>
  <path fill="#333" fill-rule="nonzero" d="M43.66 152.46a4.88 4.88 0 0 1-9.6 1.18l-6.9-27.58a4.87 4.87 0 1 1 9.46-2.36l6.9 27.58c.1.4.14.8.14 1.18Z"/>
  <path fill="#333" fill-rule="nonzero" d="m177.02 256.22-121-121a4.87 4.87 0 1 1 6.9-6.9l121 121-6.9 6.9Zm-10.35 10.35-93.43-93.44a4.87 4.87 0 1 1 6.9-6.9l93.43 93.44-6.9 6.9Zm-58.72-38.05L35.33 155.9a4.87 4.87 0 1 1 6.9-6.89l72.62 72.62-6.9 6.9Z"/>
  <path fill="#333" fill-rule="nonzero" d="M192.68 245.14c0 1.25-.48 2.5-1.43 3.44l-35.67 35.68a4.87 4.87 0 1 1-6.9-6.9l35.67-35.67a4.87 4.87 0 0 1 8.33 3.45Zm23.54 4.04c0 1.25-.48 2.5-1.43 3.45l-55.16 55.16a4.87 4.87 0 1 1-6.9-6.9l55.17-55.15a4.87 4.87 0 0 1 8.32 3.44Z"/>
  <path fill="#333" fill-rule="nonzero" d="M220.5 238.83a19.4 19.4 0 0 1-5.7 13.8 4.87 4.87 0 1 1-6.9-6.89 10 10 0 0 0 0-13.8 9.77 9.77 0 0 0-13.8 0 9.77 9.77 0 0 0 0 13.79 4.87 4.87 0 1 1-6.89 6.9 19.53 19.53 0 0 1 0-27.58 19.53 19.53 0 0 1 33.3 13.78Zm-99.6.57c-1.24 0-2.5-.49-3.44-1.44L62.3 182.8a4.87 4.87 0 1 1 6.89-6.9l55.16 55.17a4.87 4.87 0 0 1-3.45 8.32ZM263.92 327.32a4.45 4.45 0 0 1-5.33-3.35L207.3 98.34a4.44 4.44 0 1 1 8.68-1.97L267.28 322a4.45 4.45 0 0 1-3.36 5.32Z"/>
  <path fill="#333" fill-rule="nonzero" d="M215.59 114.71a4.44 4.44 0 0 1-4.75-6.7l10.05-15.98a4.44 4.44 0 1 1 7.53 4.74l-10.05 15.98a4.44 4.44 0 0 1-2.78 1.96Z"/>
  <path fill="#333" fill-rule="nonzero" d="M215.59 114.71a4.44 4.44 0 0 1-3.36-.57l-15.97-10.06a4.44 4.44 0 1 1 4.74-7.53l15.97 10.06a4.44 4.44 0 0 1-1.38 8.1Zm6.91 30.38a4.43 4.43 0 0 1-4.76-6.71l10.06-15.98a4.45 4.45 0 1 1 7.53 4.74l-10.06 15.98a4.44 4.44 0 0 1-2.78 1.97Z"/>
  <path fill="#333" fill-rule="nonzero" d="M222.5 145.09a4.43 4.43 0 0 1-3.36-.58l-15.98-10.06a4.44 4.44 0 1 1 4.74-7.52l15.98 10.05a4.45 4.45 0 0 1-1.39 8.1Z"/>
  <path fill="#333" fill-rule="nonzero" d="M206.52 135.03a4.45 4.45 0 0 1-5.33-3.35l-6.9-30.38a4.44 4.44 0 1 1 8.68-1.97l6.9 30.37a4.44 4.44 0 0 1-3.35 5.33Zm26.03-5.92a4.45 4.45 0 0 1-5.33-3.35l-6.9-30.37A4.44 4.44 0 1 1 229 93.4l6.9 30.38a4.44 4.44 0 0 1-3.35 5.32Zm31.37 198.21a4.44 4.44 0 0 1-4.05-1.1l-11.64-11.05a4.45 4.45 0 1 1 6.13-6.46l11.63 11.05a4.45 4.45 0 0 1-2.07 7.56Z"/>
  <path fill="#333" fill-rule="nonzero" d="M263.92 327.32a4.45 4.45 0 0 1-5.14-5.93l5.71-14.98a4.45 4.45 0 0 1 8.32 3.17l-5.72 15a4.44 4.44 0 0 1-3.17 2.74Z"/>
  <path fill="#ffb14a" fill-rule="nonzero" d="m423.7 148.45-2.92 5.07-13.24-7.65 2.92-5.07a15.31 15.31 0 0 1 20.9-20.91 15.31 15.31 0 0 1-7.65 28.56Z"/>
  <path fill="#ffb14a" fill-rule="nonzero" d="m440.65 164.99 2.28 18.98-12.35 6.1-59.6-34.4-.9-13.76 17.59-7.51 52.98 30.59Z"/>
  <path fill="#d37231" d="m430.58 190.08-59.6-34.41-5.74 9.93 59.6 34.41 5.74-9.93Z"/>
  <path fill="#a3bed8" fill-rule="nonzero" d="m434.64 236.57-13.38 23.18-12.43 23.16-131.5-16.7 36.05-64.32 15.3-26.5a19.12 19.12 0 0 1 26.11-7 7.62 7.62 0 0 0 10.45-2.79l59.6 34.41a7.62 7.62 0 0 0 2.8 10.45 19.13 19.13 0 0 1 7 26.11Z"/>
  <path fill="#879f7d" fill-rule="nonzero" d="m405.87 231.45 8.79 6.93 7.2-7.12 9.6 10.73-48.44 83.98a19.1 19.1 0 0 1-26.11 7l-72.85-42.06a19.1 19.1 0 0 1-7-26.11L297 230.28l10 7.29 6.4-6.18 8.74 6.94 7.3-6.89 7.84 6.22 7.55-6.4 8.07 7.4 6.36-7.6 8.31 7.18 7.73-7.37 8.6 7.18 6.6-6.65 7.6 5.5 7.78-5.45Z"/>
  <path fill="#333" fill-rule="nonzero" d="M282.15 293.67a22.96 22.96 0 0 1-8.4-31.34 3.82 3.82 0 1 1 6.62 3.83 15.3 15.3 0 0 0 5.6 20.89 3.82 3.82 0 1 1-3.82 6.62ZM355 335.73a3.82 3.82 0 1 1 3.82-6.62 15.3 15.3 0 0 0 20.89-5.6 3.82 3.82 0 1 1 6.62 3.82 22.96 22.96 0 0 1-31.34 8.4Z"/>
  <path fill="#333" fill-rule="nonzero" d="m355 335.73-72.85-42.06a3.82 3.82 0 1 1 3.82-6.62l72.85 42.06a3.82 3.82 0 1 1-3.83 6.62Zm26.1-7a3.82 3.82 0 0 1-1.39-5.22l51.62-89.4a3.82 3.82 0 1 1 6.62 3.82l-51.62 89.4a3.82 3.82 0 0 1-5.22 1.4Zm-105.95-61.17a3.82 3.82 0 0 1-1.4-5.23l51.62-89.4a3.82 3.82 0 1 1 6.62 3.82l-51.62 89.4a3.82 3.82 0 0 1-5.22 1.4Zm104.42 2.89a3.84 3.84 0 0 1-1.41-5.23 3.8 3.8 0 0 1 5.2-1.42l.03.03a3.82 3.82 0 0 1-3.82 6.62Zm-19.49 10.82a3.84 3.84 0 0 1-1.42-5.23 3.8 3.8 0 0 1 5.2-1.41l.04.02a3.82 3.82 0 1 1-3.82 6.62Zm5.6 20.89a3.84 3.84 0 0 1-1.42-5.23 3.8 3.8 0 0 1 5.2-1.41l.04.02a3.82 3.82 0 1 1-3.82 6.62Z"/>
  <path fill="#333" fill-rule="nonzero" d="M326.77 178.15a3.82 3.82 0 0 1-1.4-5.22 22.96 22.96 0 0 1 31.34-8.4 3.82 3.82 0 1 1-3.83 6.63 15.31 15.31 0 0 0-20.89 5.6 3.82 3.82 0 0 1-5.22 1.4Zm105.96 61.18a3.82 3.82 0 0 1-1.4-5.23 15.31 15.31 0 0 0-5.6-20.89 3.82 3.82 0 1 1 3.82-6.62 22.96 22.96 0 0 1 8.4 31.34 3.82 3.82 0 0 1-5.22 1.4Z"/>
  <path fill="#333" fill-rule="nonzero" d="M352.88 171.16a3.82 3.82 0 1 1 3.83-6.63 3.83 3.83 0 0 0 5.22-1.4 3.82 3.82 0 1 1 6.62 3.83 11.48 11.48 0 0 1-15.67 4.2Zm72.85 42.05a11.48 11.48 0 0 1-4.2-15.67 3.82 3.82 0 1 1 6.62 3.83 3.82 3.82 0 0 0 1.4 5.22 3.82 3.82 0 1 1-3.82 6.62Z"/>
  <path fill="#333" fill-rule="nonzero" d="M363.33 168.36a3.82 3.82 0 0 1-1.4-5.23l5.73-9.93a3.82 3.82 0 1 1 6.63 3.82l-5.74 9.94a3.82 3.82 0 0 1-5.22 1.4Z"/>
  <path fill="#333" fill-rule="nonzero" d="m428.67 192.83-59.6-34.4a3.82 3.82 0 1 1 3.82-6.63l59.6 34.41a3.82 3.82 0 1 1-3.82 6.62Z"/>
  <path fill="#333" fill-rule="nonzero" d="M422.93 202.77a3.82 3.82 0 0 1-1.4-5.23l5.74-9.93a3.82 3.82 0 1 1 6.62 3.82l-5.74 9.94a3.82 3.82 0 0 1-5.22 1.4Z"/>
  <path fill="#333" fill-rule="nonzero" d="m422.93 202.77-59.6-34.41a3.82 3.82 0 1 1 3.82-6.63l59.6 34.41a3.82 3.82 0 1 1-3.82 6.63Zm-53.86-44.35a3.81 3.81 0 0 1-1.91-3.06l-.89-13.76a3.82 3.82 0 1 1 7.63-.5l.89 13.76a3.82 3.82 0 0 1-5.72 3.56Zm59.59 34.41a3.84 3.84 0 0 1 .22-6.74l12.36-6.1a3.82 3.82 0 1 1 3.39 6.85l-12.36 6.11c-1.19.6-2.54.5-3.6-.12Zm10.08-25.09-52.98-30.58a3.82 3.82 0 1 1 3.82-6.63l52.98 30.6a3.82 3.82 0 1 1-3.82 6.61Z"/>
  <path fill="#333" fill-rule="nonzero" d="M368.17 144.66a3.82 3.82 0 0 1 .41-6.82l17.58-7.5a3.82 3.82 0 0 1 3 7.02l-17.57 7.5a3.8 3.8 0 0 1-3.42-.2Zm72.86 42.07a3.82 3.82 0 0 1-1.9-2.86l-2.28-18.98a3.82 3.82 0 1 1 7.59-.91l2.29 18.98a3.82 3.82 0 0 1-5.7 3.77Zm-32.47-43.19a3.79 3.79 0 0 1-1.4-1.4 19.2 19.2 0 0 1 0-19.12 19.14 19.14 0 0 1 26.11-7 19.14 19.14 0 0 1 7 26.12 19.19 19.19 0 0 1-16.54 9.56 3.82 3.82 0 1 1-.02-7.64 11.48 11.48 0 0 0 5.74-21.4 11.48 11.48 0 0 0-15.67 15.67 3.82 3.82 0 0 1-5.22 5.21Z"/>
  <path fill="#333" fill-rule="nonzero" d="M421.9 135.95a3.84 3.84 0 0 1-1.41-5.23 3.8 3.8 0 0 1 5.2-1.41l.04.02a3.82 3.82 0 1 1-3.83 6.62ZM405.62 148.63a3.82 3.82 0 0 1-1.4-5.23l2.94-5.08a3.82 3.82 0 1 1 6.62 3.82l-2.93 5.09a3.82 3.82 0 0 1-5.23 1.4ZM418.87 156.28a3.82 3.82 0 0 1-1.4-5.23l2.94-5.08a3.82 3.82 0 1 1 6.62 3.82l-2.93 5.09a3.82 3.82 0 0 1-5.23 1.4ZM306.88 241.43a3.82 3.82 0 0 1-2.7-6.52l7.64-7.65a3.82 3.82 0 1 1 5.4 5.4l-7.64 7.65a3.82 3.82 0 0 1-2.7 1.12Z"/>
  <path fill="#333" fill-rule="nonzero" d="M322.17 241.43c-.98 0-1.96-.37-2.7-1.12l-7.65-7.64a3.82 3.82 0 1 1 5.4-5.4l7.65 7.64a3.82 3.82 0 0 1-2.7 6.52Zm-15.3 0a3.8 3.8 0 0 1-2.7-1.12l-7.65-7.64a3.82 3.82 0 1 1 5.41-5.4l7.65 7.64a3.82 3.82 0 0 1-2.7 6.52Z"/>
  <path fill="#333" fill-rule="nonzero" d="M322.17 241.43a3.82 3.82 0 0 1-2.7-6.52l7.64-7.65a3.82 3.82 0 1 1 5.4 5.4l-7.64 7.65a3.81 3.81 0 0 1-2.7 1.12Z"/>
  <path fill="#333" fill-rule="nonzero" d="M337.46 241.43a3.8 3.8 0 0 1-2.7-1.12l-7.65-7.64a3.82 3.82 0 1 1 5.4-5.4l7.66 7.64a3.82 3.82 0 0 1-2.7 6.52Z"/>
  <path fill="#333" fill-rule="nonzero" d="M337.46 241.43a3.82 3.82 0 0 1-2.7-6.52l7.65-7.65a3.82 3.82 0 1 1 5.4 5.4l-7.64 7.65a3.81 3.81 0 0 1-2.7 1.12Z"/>
  <path fill="#333" fill-rule="nonzero" d="M352.76 241.43c-.98 0-1.96-.37-2.7-1.12l-7.65-7.64a3.82 3.82 0 1 1 5.4-5.4l7.65 7.64a3.82 3.82 0 0 1-2.7 6.52Z"/>
  <path fill="#333" fill-rule="nonzero" d="M352.76 241.43a3.81 3.81 0 0 1-2.7-6.52l7.64-7.65a3.82 3.82 0 1 1 5.4 5.4l-7.64 7.65a3.81 3.81 0 0 1-2.7 1.12Z"/>
  <path fill="#333" fill-rule="nonzero" d="M368.05 241.43c-.98 0-1.96-.37-2.7-1.12l-7.65-7.64a3.82 3.82 0 1 1 5.4-5.4l7.65 7.64a3.82 3.82 0 0 1-2.7 6.52Z"/>
  <path fill="#333" fill-rule="nonzero" d="M368.05 241.43a3.81 3.81 0 0 1-2.7-6.52l7.64-7.65a3.82 3.82 0 1 1 5.41 5.4l-7.65 7.65a3.81 3.81 0 0 1-2.7 1.12Z"/>
  <path fill="#333" fill-rule="nonzero" d="M383.35 241.43c-.98 0-1.96-.37-2.7-1.12l-7.65-7.64a3.82 3.82 0 1 1 5.4-5.4l7.65 7.64a3.82 3.82 0 0 1-2.7 6.52Z"/>
  <path fill="#333" fill-rule="nonzero" d="M383.35 241.43a3.81 3.81 0 0 1-2.7-6.52l7.64-7.65a3.82 3.82 0 1 1 5.4 5.4l-7.64 7.65a3.82 3.82 0 0 1-2.7 1.12Z"/>
  <path fill="#333" fill-rule="nonzero" d="M398.64 241.43c-.98 0-1.96-.37-2.7-1.12l-7.65-7.64a3.82 3.82 0 1 1 5.4-5.4l7.65 7.64a3.82 3.82 0 0 1-2.7 6.52Z"/>
  <path fill="#333" fill-rule="nonzero" d="M398.64 241.43a3.82 3.82 0 0 1-2.7-6.52l7.64-7.65a3.82 3.82 0 1 1 5.4 5.4l-7.64 7.65a3.82 3.82 0 0 1-2.7 1.12Z"/>
  <path fill="#333" fill-rule="nonzero" d="M413.93 241.43c-.98 0-1.96-.37-2.7-1.12l-7.65-7.64a3.82 3.82 0 1 1 5.4-5.4l7.66 7.64a3.82 3.82 0 0 1-2.7 6.52Z"/>
  <path fill="#333" fill-rule="nonzero" d="M413.93 241.43a3.82 3.82 0 0 1-2.7-6.52l7.65-7.65a3.82 3.82 0 1 1 5.4 5.4l-7.64 7.65a3.82 3.82 0 0 1-2.7 1.12Z"/>
  <path fill="#333" fill-rule="nonzero" d="M429.23 241.43c-.98 0-1.96-.37-2.7-1.12l-7.65-7.64a3.82 3.82 0 1 1 5.4-5.4l7.65 7.64a3.82 3.82 0 0 1-2.7 6.52Z"/>
  <path fill="#ffb14a" d="M442.85 289.41H70.11a14.6 14.6 0 0 1-14.53-14.53v-16.37h401.8v16.37a14.6 14.6 0 0 1-14.53 14.53Z"/>
  <path fill="#ffb14a" d="M412.17 417.67H100.79a27.44 27.44 0 0 1-27.31-27.31V289.4h366v100.95a27.44 27.44 0 0 1-27.31 27.31Z"/>
  <path fill="#5d829c" d="M369.1 319.6h-12.8c-7.13 0-13-5.87-13-13v-48.1h38.8v48.1c0 7.14-5.87 13-13 13Zm-212.44 0h-12.8c-7.13 0-13-5.87-13-13v-48.1h38.8v48.1c0 7.14-5.87 13-13 13Z"/>
  <path fill="#333" d="M458.1 252.73H54.94a5.85 5.85 0 0 0-5.15 5.78v16.37a20.45 20.45 0 0 0 17.9 20.2v95.28a33.33 33.33 0 0 0 33.14 33.13H412.2a33.33 33.33 0 0 0 33.13-33.13v-95.29a20.45 20.45 0 0 0 17.9-20.19V258.5a5.85 5.85 0 0 0-5.13-5.77ZM175.5 306.6v-11.38h162.02v11.38a18.93 18.93 0 0 0 18.81 18.81h12.8a18.92 18.92 0 0 0 18.82-18.81v-42.29h63.65v10.56a8.77 8.77 0 0 1-8.72 8.71h-34.64a5.85 5.85 0 0 0-5.82 5.82c0 3.2 2.63 5.82 5.82 5.82h25.45v95.13a21.62 21.62 0 0 1-21.49 21.49H100.83a21.62 21.62 0 0 1-21.5-21.5v-95.12h25.38a5.85 5.85 0 0 0 5.74-5.82 5.85 5.85 0 0 0-5.74-5.82H70.14a8.76 8.76 0 0 1-8.7-8.71v-10.55h63.64v42.28a18.93 18.93 0 0 0 18.81 18.81h12.8a18.92 18.92 0 0 0 18.82-18.81Zm-38.78-42.28h27.15v42.28a7.22 7.22 0 0 1-7.18 7.17h-12.8a7.22 7.22 0 0 1-7.17-7.17v-42.28Zm212.44 0h27.14v42.28a7.22 7.22 0 0 1-7.17 7.17h-12.8a7.22 7.22 0 0 1-7.17-7.17v-42.28Zm-173.65 0h162.01v19.26H175.51v-19.26Z"/>
</svg>