<svg id="laptop-icon" width="409.5" height="338.7" viewBox="0 0 1451 1200" ><path d="m215.7 217.1 77.3-472.8 756.1-146.7-26.5 681.5"/><path d="m1049.7-404.9 10.1 7.1-26.2 713.1C899.6 411 769.1 511.8 635.3 607.8l-887.8-209.7-28.3-16.2-6.1-21.2 503.1-143.4"/><path d="M213.3 216.3 1020 280 607.8 561.7-285.5 363.5"/><path d="m302.8-227.7-63 399.6 761.1 32.9 25.3-559.2z"/><path d="m119.6 325.2-195.4 64.7 237 48.4 198.3-79.1-102.3-14.1-32.6 10.8-29.7-4.6 11.2-12.5z"/><path d="M215.3 230.5-16 299.2 735.5 405.2 918.3 292.1Z"/><rect width="100" height="100"/></svg>