<svg xmlns="http://www.w3.org/2000/svg" width="80" height="80"><path fill="#dcb869" d="M40 0c0 2.6-3 8.8-3 13 0 4.4 1.6 10 2 11.6l.3 1.5h1.3c0-.4 0-1 .2-1.4.4-1.6 2-7.2 2-11.5C43 9 40 2.7 40 0zM29.8 9.6c-1.3 1.3-2 2.5-2 5.5 0 6 2.4 9.5 3.8 11l.5.3h6c0-.6-.3-1.3-.7-2-1-1.7-3-4.6-5.2-8.3-2-3.7-1.8-5-2-6.4zm20.4 0c-.4 1.5 0 2.7-2.2 6.4-2 3.7-4.2 6.6-5.2 8.4-.3.6-.6 1.2-.8 2h6l.5-.5c1.4-1.5 3.8-4.8 3.8-11 0-3-.7-4-2-5.4zm-29 9c-.3 0-.5.2-.6.5-1.2 4.6 2.3 10.7 4 12.5l.8.7H29c-.4-.6-.7-1.2-.8-1.7H25v-4.2h2c0-.3-.2-.6-.4-1-1.2-2-4.2-3.7-4.7-5.6-.3-1-.6-1.2-.8-1.3zm37.7 0c-.3 0-.6.3-.8 1.2-.5 1.8-3.5 3.6-4.7 5.7l-.4 1h2.7v4H52l-.8 1.8h3.5l.7-.7c1.8-1.8 5.3-8 4-12.4 0-.3-.2-.6-.4-.6zm-42.4 7.7c-1 0-4.6.2-4.3 4.3.4 4.8 8.2 5 7.7 5.2-3.2 1-6 1.4-8 1.4-1.8 0-1.3-.5-3.8-.5C3 36.5 0 40.3 0 40.3s.5 1 4.7 1c4 0 8.6-2 10.4-2.7v.2h-.2c-1 1-3 3.2-3 7.3 0 5 4.3 9.7 8.2 9.7h1.6c1 0 2-.5 3-1.3 1.2-1 3-4.5 2.8-9 0-2.4-.6-3.3-1.6-4.3-.3 1.3 0 2.2-1.6 5-1.6 3-2.8 3.3-3.3 4.8-.8 2.2-.2 2.7-1 4.3-1.2 0-4.5-2-5.3-3.5-1-1.4-1.7-1.6-1.7-5.8 0-1.3.4-2.7 1.2-4v.7c.2-.4-.6 5.6 3 6.5 3 .7 3.7-2 3.8-2.8 0-1 0-2.7-2.2-3-2-.4-2.2 1-2.2 1.2 0 .3-.4 1.3 1.2.7 1.6-.5 1.4.3 1.3.8 0 .5-.5 1.2-1.5 1-1-.2-1.2-1-1.7-1.8-.3-.5-.7-3.2 0-5 2-2 4.8-3.4 8.2-3.4 2.2 0 4.6 1 6.6 2.2v-1.6h1.6L31 35.5h-.4L26.2 33c1.4 1.4 2.8 2.7 3.4 3.8-1.6.4-3.5-1.2-5-1.2-4 0-6.7-1-8-2.2-1.2-1-1.6-1.3-1.6-2.7 0-1.4 1-2 1.6-2 .7 0 1.7 0 .6 2-1 2 .2 1.6.6 1.6.4 0 2.2.2 2.2-2.6 0-2.8-2.3-3.5-3.5-3.5zm46.7 0c-1 0-3.5.7-3.5 3.5s1.7 2.6 2.2 2.6c.4 0 1.7.2.6-1.6-1-2 0-2 .6-2 .7 0 1.6.6 1.6 2s-.4 1.8-1.5 2.7c-1.5 1-4 2.2-8 2.2-1.6 0-3.4 1.6-5 1.2.4-1 1.5-2 2.6-3.2l-3.3 1.8h-1l-1 1.7h2v1.3c2-1 4-2 6-2 3.6 0 6.5 1.5 8.4 3.5.7 2 .3 4.7 0 5-.5 1-.6 1.8-1.7 2-1 0-1.5-.6-1.6-1 0-.6-.2-1.4 1.3-.8 1.6.6 1.2-.4 1.2-.7 0-.3 0-1.7-2.2-1.3-2 .3-2.3 2.2-2.2 3 0 1 .7 3.6 3.8 2.8 3.6-1 2.8-7 3-6.5v-.7c.8 1.3 1.2 2.7 1.2 4 0 4.2-.8 4.3-1.7 5.8-.7 1.4-4 3.6-5.3 3.6-.7-1.6-.2-2-.8-4.3-.6-1.6-1.8-2-3.4-4.8-1.6-3-1.3-3.8-1.6-5-1 1-1.6 2-1.6 4.2 0 4.7 1.6 8 2.7 9 1 1 2.2 1.3 3 1.4H60c4 0 8.3-4.8 8.3-9.6 0-4-2-6.3-3-7.2 0-.2-.2-.2-.3-.3 1.7.5 6.2 2.7 10.4 2.7 4.4 0 4.8-1 4.8-1s-3-3.7-8.2-3.7c-2.5 0-2 .5-4 .5-1.8 0-4.6-.4-7.8-1.4-.5-.2 7.3-.4 7.7-5.2.3-4-3.2-4.3-4.3-4.3zm-26.7 4l1 1.5v.3h4.6l.2-.2 1-1.4h-6.8zm-2.5.8c-.7 0-1.4.5-2 1h4c-.4-.5-1.2-1-2-1zm12 0c-1 0-1.6.5-2 1h3.8c-.4-.5-1.2-1-2-1zm-13.4 4.4c.4.4 1 .6 1.6.6.3 0 .7 0 1-.2.7.4 1.2.8 1.6 1.3h1.6l-.7-.7-.5-1h-4.5zm6.6 0l.2 1.7h1.3c0-.4 0-1 .2-1.6h-2zm3.8 0l-.5 1-.7.7h1.6L45 36l1 .2c.6 0 1.2-.2 1.6-.6H43zm-11 4.2c1.2.8 2.2 1.7 3 2.6v-1h.5l-1.3-1.7H32zm6.3 0l.7 2.7c0 .2 0 .4.2.7v-1.7h2.4c0-.5.2-1 .4-1.7h-3.6zm7.6 0l-1.4 1.7h1v.4c.7-.7 1.5-1.4 2.4-2h-2.2zm-2.7 3.8L41.6 46v2.2c.4-1 1-2.3 1.7-3.5v-1.4zm-5.8.8v1.5c.8 1.6 1.4 3 1.7 4v-2.5c-.4-.8-1-2-1.7-3zm-2.5 8c-.6 0-1.2.2-1.7.6V57c.4.6 1 .8 1.8.8.7 0 1.2-.2 1.7-.5h.4c.4.6 1 .7 1.7 4 1 3 .3 6.3.3 10-1.2-2-2.4-5-6-8.8-3.8-3.7-8-4-10.6-4 2 0 5.4 4.5 5.8 6 .4 1.4 3 4.6 5.5 5.3 2.5.7 5.3 3.4 5.3 5.3 0 2-.3 1.6-.3 2.7 0 1 .5 2.2.5 2.2H41s.5-1.2.5-2.3c0-1-.3-.8-.3-2.6 0-1.7 2.7-4.5 5.3-5.2C49 69 51.7 66 52 64.5c.4-1.4 3.7-6 5.8-6-2.7 0-6.8.3-10.5 4s-5 6.8-6 8.8c0-3.7-.7-7 .2-10 1-3.3 1.4-3.4 1.6-4h.5c.5.3 1 .5 1.6.5 1 0 2-.5 2.5-1.2v-3.3c-.4-.6-1-1-1.7-1V57h-2.5v-4.3c-.6.5-1 1.3-1 2.2 0 .5 0 1 .4 1.5 0 0-1.5 1.7-2 3V57h-1.4v2.6c-.4-1.4-1.8-3-2-3 .4-.6.6-1 .6-1.7s-.3-1.3-.7-1.8V57h-2.5v-5z"/><path fill="#dcb869" d="M24.8 30.4V32h31v-1.6h-31zm5.8 5V37h19.2v-1.6H30.6zm0 4.2v1.7H33v16H35v-16h2.5v16H39v-16h2.5v16h1.7v-16h2.5v16h1.7v-16H50v-1.7H30.6z"/></svg>