<svg viewBox="0 0 154 154" xmlns="http://www.w3.org/2000/svg" xml:space="preserve" fill-rule="evenodd" clip-rule="evenodd" stroke-linecap="round" stroke-linejoin="round" stroke-miterlimit="1.5">
  <circle cx="222.8" cy="253.5" r="16.2" fill="#a855f7" transform="matrix(.98609 0 0 .98609 -159.7 -213)"/>
  <circle cx="222.8" cy="253.5" r="16.2" fill="none" stroke="#a855f7" stroke-width="4.4" transform="translate(-297 -369.3) scale(1.60239)"/>
  <circle cx="222.8" cy="253.5" r="16.2" fill="#14b8a6" transform="matrix(.98609 0 0 .98609 -96 -171.3)"/>
  <circle cx="222.8" cy="253.5" r="16.2" fill="none" stroke="#14b8a6" stroke-width="4.4" transform="translate(-233.4 -327.5) scale(1.60239)"/>
  <g>
    <circle cx="222.8" cy="253.5" r="16.2" fill="#ef4444" transform="matrix(.98609 0 0 .98609 -187.8 -160.8)"/>
    <circle cx="222.8" cy="253.5" r="16.2" fill="none" stroke="#ef4444" stroke-width="4.4" transform="translate(-325.1 -317) scale(1.60239)"/>
  </g>
  <g>
    <g fill-rule="nonzero">
      <path d="M54.5 122c-1.2 0-2.2-.8-2.5-2l-.3-1.2c-1.4-6.4-5.2-12-10.7-16.4a14 14 0 0 1-3-3.4c-4.5-6.8-7-12.8-9.3-18.7a83.8 83.8 0 0 0-8-16 9.8 9.8 0 0 1-.4-7.2 5 5 0 0 1 3.1-3.3c1.2-.5 2.4-.7 3.4-.7 3.8 0 7 2.8 10.7 9.1 4 6.8 4.1 8.5 4.2 8.6 0 .8.6 1.4 1.5 1.4.8 0 1.4-.7 1.5-1.5v-57c0-2.1 1.3-8 7-8 6.5 0 8.7 5.7 8.7 8.3v19.6c0 .4.2.9.6 1.2a1.5 1.5 0 0 0 1.3.2 14 14 0 0 1 4-.6c3.9 0 6.3 2 7.7 3.6a5.8 5.8 0 0 0 6.3 1.7c.7-.2 1.5-.4 2.3-.4a10.5 10.5 0 0 1 8.2 4.3c1 1.1 2.8 3 5 3l1-.1 1.7-.2a9 9 0 0 1 8 5.2c1.7 3.4 1.7 22.4 1.7 28.7 0 16.5-11.4 39.9-11.5 40.1l-.1.3c-.3 1-1.3 1.8-2.4 1.8l-39.8-.4Z" fill="url(#a)" transform="translate(8.5 24.8)"/>
      <path d="M60.2 32c6 0 7.3 5.4 7.3 6.8v19.6a3 3 0 0 0 3 3l.8-.1c1.3-.4 2.5-.6 3.6-.6 2.6 0 4.8 1 6.5 3a7.3 7.3 0 0 0 7.9 2.2 6 6 0 0 1 1.8-.3 9 9 0 0 1 7 3.7c1.1 1.3 3.4 3.6 6.2 3.6.5 0 1 0 1.4-.2l1.3-.2c2.3 0 5.2 1.2 6.8 4.4.7 1.4 1.5 7.4 1.4 28 0 16.2-11.2 39.3-11.3 39.5l-.2.5a1 1 0 0 1-1 .8l-39.7-.4a1 1 0 0 1-1-.8l-.2-1.3A30.8 30.8 0 0 0 50.5 126c-1-.8-2-1.8-2.7-3-4.4-6.7-6.8-12.7-9.2-18.4a85.5 85.5 0 0 0-8-16.4 8.5 8.5 0 0 1-.3-5.8c.5-1.7 1.5-2.2 2.2-2.4 1-.4 2-.6 2.9-.6 2 0 5 1 9.4 8.4a38 38 0 0 1 4 8 3 3 0 0 0 2.8 2.7h.1a3 3 0 0 0 3-2.7v-.3l.1-57c0-.1.2-6.5 5.4-6.5m0-3c-6.4 0-8.4 6.3-8.4 9.5l-.1 57c0-.2-.2-2-4.3-9.2-3.9-6.7-7.6-9.9-12-9.9-1.3 0-2.6.3-4 .8-5.7 2-5 10.2-3.3 12.7 7.2 10.9 8.4 21.3 17.1 34.8 1 1.5 2.2 2.7 3.4 3.7 5 4 8.8 9.3 10.2 15.5l.3 1.3a4 4 0 0 0 3.9 3.1l39.7.4a4 4 0 0 0 3.9-3s11.6-23.7 11.6-40.7c0-11.6-.1-26-1.7-29.4a10.4 10.4 0 0 0-12.2-5.7c-1.4 0-2.9-1.3-3.8-2.5a12 12 0 0 0-9.4-4.8c-1 0-2 .2-2.8.5l-1.3.2c-1.3 0-2.5-.5-3.3-1.5-1.7-2-4.5-4.1-8.8-4.1-1.4 0-2.9.2-4.5.7V38.8c0-3.2-2.6-9.8-10.2-9.8Z" fill="#eda600"/>
      <path d="m67.9 78.5-.5-21.1L70 59c.6 0 1 .7 1 1.6L70 78.6c-.1 1.7-2.1 1.7-2.2 0ZM51.7 103.6l-2.8-7-1-2.5 3.4.9 3.2 1v7.4c0 1.4-2.2 1.2-2.8.2ZM85 79l-.8-13.1c0-.6 2.6-.3 2.6-.3.6 0 1 .5 1 1.1L87 79c-.2 1.2-1.9 1.2-2 0ZM101.6 78.7l-.7-7c0-.4 2.5-.2 2.5-.2.6 0 1 .3 1 .6l-.8 6.6c-.1.7-1.9.7-2 0Z" fill="#eda600"/>
    </g>
  </g>
  <defs>
    <linearGradient id="a" x1="0" y1="0" x2="1" y2="0" gradientUnits="userSpaceOnUse" gradientTransform="matrix(-.24428 116.6 -116.6 -.24428 64.2 5.7)">
      <stop offset="0" stop-color="#ffca28"/>
      <stop offset=".3" stop-color="#ffca28"/>
      <stop offset=".9" stop-color="#ffb300"/>
      <stop offset="1" stop-color="#ffb300"/>
    </linearGradient>
  </defs>
</svg>
