<svg xmlns="http://www.w3.org/2000/svg" viewBox="150 0 850 800">
  <style>
    #listener {
      animation: bubble 5s ease infinite;
    }
    #fire {
      animation: fire 5s ease infinite;
    }

    @keyframes bubble {
      0% { transform: translate(-295px, 570px); opacity: 0; }
      10% { transform: translate(-295px, 570px); opacity: 1 }
      50% { transform: translate(0, 290px); opacity: 1 }
      90% { transform: translate(0, 0); opacity: 1 }
      100% { transform: translate(0, 0); opacity: 0 }
    }
    @keyframes fire {
      0% { transform: translate(-292px,0); opacity: 0; }
      10% { transform: translate(-292px,0); opacity: 1 }
      20% { transform: translate(-292px,0); opacity: 0 }

      40% { transform: translate(0,-275px); opacity: 0 }
      50% { transform: translate(0,-275px); opacity: 1 }
      60% { transform: translate(0,-275px); opacity: 0 }

      80% { transform: translate(0,-565px); opacity: 0 }
      90% { transform: translate(0,-565px); opacity: 1 }
      100% { transform: translate(0,-565px); opacity: 0 }
    }
  </style>
  <path id="fire" fill="red" d="M658.3 662.5a83.7 83.7 0 0 1-83.3 83.3 83.7 83.7 0 0 1-83.3-83.3 83.7 83.7 0 0 1 83.3-83.3 83.7 83.7 0 0 1 83.3 83.3z"/>
  <path fill-opacity="0" stroke="#000" stroke-width="8" d="M366.7 662.5a83.7 83.7 0 0 1-83.4 83.3 83.7 83.7 0 0 1-83.3-83.3 83.7 83.7 0 0 1 83.3-83.3 83.7 83.7 0 0 1 83.4 83.3zM658.3 95.8a83.7 83.7 0 0 1-83.3 83.4 83.7 83.7 0 0 1-83.3-83.4A83.7 83.7 0 0 1 575 12.5a83.7 83.7 0 0 1 83.3 83.3zM658.3 387.5a83.7 83.7 0 0 1-83.3 83.3 83.7 83.7 0 0 1-83.3-83.3 83.7 83.7 0 0 1 83.3-83.3 83.7 83.7 0 0 1 83.3 83.3zM950 662.5a83.7 83.7 0 0 1-83.3 83.3 83.7 83.7 0 0 1-83.4-83.3 83.7 83.7 0 0 1 83.4-83.3 83.7 83.7 0 0 1 83.3 83.3z"/>
  <path fill-opacity="0" stroke="#000" stroke-width="8" d="M658.3 662.5a83.7 83.7 0 0 1-83.3 83.3 83.7 83.7 0 0 1-83.3-83.3 83.7 83.7 0 0 1 83.3-83.3 83.7 83.7 0 0 1 83.3 83.3z"/>
  <path d="M579.2 241.4h12.5L575 304.2l-16.7-62.8h12.5v-62.2h8.4v62.2zM579.2 516.4h12.5L575 579.2l-16.7-62.8h12.5V476h8.4v40.4zM760.6 553.7l8.8-8.9 32.7 56.2-56.2-32.6 8.8-8.8-113-113 5.9-6 113 113zM393.2 559.6l8.8 8.8-56.2 32.6 32.7-56.2 8.8 8.9 113-113 6 5.8-113.1 113z"/>
  <path id="text" d="M473.7 78.5l-4 1V86H463v3.5h6.6v12.3c0 2.7.7 4.8 2.2 6.1 1.4 1.3 3.6 2 6.6 2a27.1 27.1 0 0 0 5.9-.7v-3.5a25.2 25.2 0 0 1-5.3.8c-1.7 0-3-.5-4-1.3-.9-.8-1.3-2-1.3-3.8v-12h10.6V86h-10.6v-7.5zM369 85.6a3.7 3.7 0 0 0-3.3 2.2l-.3 1.4a3.5 3.5 0 0 0 2.2 3.3 3.5 3.5 0 0 0 2.8 0 3.6 3.6 0 0 0 2.2-3.3c0-.5-.1-1-.3-1.3a3.6 3.6 0 0 0-3.3-2.3zm30 0c-1.4 0-2.7.4-4.1 1.2-1.4.7-2.7 2-4.1 3.6l-.1-4.4h-3.8v23.6h4.2V94.5a30.5 30.5 0 0 1 4-4.1 4.9 4.9 0 0 1 3.4-1.2c1.2 0 2.1.4 2.7 1.3.7 1 1 2.5 1 4.5h4c.2-3-.4-5.4-1.7-7-1.2-1.6-3-2.4-5.5-2.4zm23.1 0c-1.8 0-3.3.3-4.7 1a9.8 9.8 0 0 0-3.6 2.5 11 11 0 0 0-2.2 3.9 16.9 16.9 0 0 0 0 10.2c.5 1.4 1.2 2.7 2 3.7 1 1 2.2 1.8 3.5 2.3 1.3.5 2.8.8 4.5.8a12 12 0 0 0 4.8-.9 10.2 10.2 0 0 0 5.7-6.4 16.3 16.3 0 0 0 0-10.2 9.8 9.8 0 0 0-2-3.8c-1-1-2.1-1.8-3.5-2.3-1.3-.5-2.8-.8-4.5-.8zm26.4 0c-1.7 0-3.3.3-4.7 1a9.8 9.8 0 0 0-3.5 2.5A11 11 0 0 0 438 93c-.5 1.5-.7 3.1-.7 5 0 2 .2 3.6.7 5.1.5 1.5 1.2 2.8 2.1 3.8 1 1 2.1 1.8 3.4 2.3 1.4.5 2.9.8 4.6.8a12 12 0 0 0 4.7-.9 10.2 10.2 0 0 0 5.8-6.4c.5-1.6.7-3.2.7-5 0-2-.2-3.7-.7-5.2a9.8 9.8 0 0 0-2.1-3.8c-1-1-2-1.8-3.4-2.3-1.4-.5-2.9-.8-4.6-.8zM422 89.1c1 0 2 .2 2.8.6.9.3 1.6.9 2.2 1.6.6.7 1 1.6 1.3 2.7.4 1 .5 2.4.5 3.8 0 1.2-.1 2.3-.4 3.4a8 8 0 0 1-1.2 2.7c-.5.8-1.2 1.5-2.1 2-.9.4-2 .7-3.1.7s-2-.2-2.9-.6c-.8-.4-1.6-1-2.1-1.6a8 8 0 0 1-1.4-2.8 14.2 14.2 0 0 1 0-7.1c.1-1 .5-2 1-2.8a6.2 6.2 0 0 1 5.4-2.6zm26.4 0c1 0 2 .2 2.8.6.9.3 1.6.9 2.2 1.6.6.7 1 1.6 1.4 2.7a13.8 13.8 0 0 1 0 7.1 8 8 0 0 1-1.1 2.8c-.6.8-1.3 1.5-2.2 2-.8.4-1.9.7-3.1.7-1 0-2-.2-2.9-.6-.8-.4-1.5-1-2.1-1.6a8 8 0 0 1-1.4-2.8 14.2 14.2 0 0 1 0-7.1c.2-1 .6-2 1.1-2.8a6.2 6.2 0 0 1 5.3-2.6zM369 102.8a3.7 3.7 0 0 0-3.3 2.2l-.3 1.4a3.5 3.5 0 0 0 2.2 3.3 3.5 3.5 0 0 0 2.8 0 3.6 3.6 0 0 0 2.2-3.3 3.6 3.6 0 0 0-3.6-3.6zm74 270.9c-.3 0-.6 0-1 .2a2.4 2.4 0 0 0-1.3 1.3l-.1 1 .1 1 .6.8.8.5 1 .2c.3 0 .6 0 1-.2l.7-.5.6-.8a2.4 2.4 0 0 0 0-2 2.4 2.4 0 0 0-1.4-1.3l-1-.2zm-18.8 1.8l-3.2.8v5H416v2.7h5.1v9.6c0 2.1.6 3.7 1.7 4.8 1.1 1 2.8 1.5 5.1 1.5a21 21 0 0 0 4.6-.5v-2.7a19.6 19.6 0 0 1-4 .5c-1.4 0-2.5-.3-3.2-1-.7-.6-1-1.6-1-2.9V384h8.2v-2.6h-8.2v-5.9zm-67 4L345 389.7l12.2 10.3 2-2-9.9-8.3 10-8.2-2-2zm135.6 0l-2 2 10 8.3-10 8.2 2 2 12.2-10.3-12.2-10.2zM371.6 381c-1.4 0-2.6.2-3.6.6-1 .3-1.7.7-2.3 1.3a4.7 4.7 0 0 0-1.6 3.3 4.4 4.4 0 0 0 1.7 3.6 8 8 0 0 0 1.8 1c.7.4 1.4.6 2.3.9a30.3 30.3 0 0 1 4 1.6c.3.2.5.5.6.8l.2.8c0 .8-.4 1.4-1.1 1.8a7 7 0 0 1-3.4.6 21.3 21.3 0 0 1-6.3-1v3a23 23 0 0 0 10 .2l1.5-.7c.5-.3 1-.6 1.3-1l1-1.4c.2-.5.3-1 .3-1.7a5 5 0 0 0-.3-1.8c-.2-.6-.6-1-1-1.5-.5-.4-1-.8-1.8-1.1-.8-.4-1.7-.7-2.8-1a29.7 29.7 0 0 1-3.8-1.6c-.4-.2-.6-.5-.8-.8a2.1 2.1 0 0 1 0-1.8l.8-.7 1.3-.5c.5-.2 1.2-.2 2-.2a24.5 24.5 0 0 1 5.2.7v-2.8a23.2 23.2 0 0 0-5.2-.6zm17.5 0a7.8 7.8 0 0 0-6.2 2.9c-.7.8-1.2 1.9-1.6 3a14.4 14.4 0 0 0 0 7.6c.3 1.2.9 2.2 1.6 3a7 7 0 0 0 2.8 1.9c1 .4 2.4.6 4 .6a23.3 23.3 0 0 0 6.3-.8v-2.6a19.7 19.7 0 0 1-5.8.8c-2 0-3.5-.5-4.6-1.5-1-1-1.5-2.5-1.5-4.4h12.8a16.9 16.9 0 0 0-.4-5.5 7 7 0 0 0-4-4.4 9 9 0 0 0-3.4-.6zm72.2 0a9 9 0 0 0-3.7.8c-1 .4-2 1-2.7 2-.8.8-1.4 1.8-1.8 3a13.1 13.1 0 0 0 0 8c.4 1 1 2 1.7 2.8.7.8 1.6 1.4 2.6 1.8 1 .4 2.2.6 3.5.6 1.4 0 2.6-.2 3.7-.7a8 8 0 0 0 4.5-5c.4-1.2.6-2.5.6-4 0-1.4-.2-2.8-.6-4-.4-1.1-1-2-1.6-2.9a6.8 6.8 0 0 0-2.7-1.7c-1-.5-2.2-.7-3.5-.7zm19.5 0a7.2 7.2 0 0 0-3 .7l-1.5 1-1.5 1.6-.1-3h-2.9v18.4h3.2v-12.2a28.8 28.8 0 0 1 2.9-3 3.9 3.9 0 0 1 2.3-.7c1 0 1.8.3 2.4 1 .5.7.8 1.8.8 3.2v11.7h3.1v-12c0-2.2-.4-3.9-1.4-5-1-1.1-2.4-1.7-4.3-1.7zm-72 .1c-1.4 0-2.6.2-3.8.7a8.3 8.3 0 0 0-4.8 5 11 11 0 0 0-.6 3.9c0 3 .7 5.3 2.3 6.9 1.6 1.5 3.8 2.3 6.7 2.3a14.8 14.8 0 0 0 5.2-.9v-3a10.4 10.4 0 0 1-4.8 1.2 6 6 0 0 1-4.5-1.6c-1-1.1-1.6-2.8-1.6-5 0-1 .1-2 .5-2.9a5.5 5.5 0 0 1 3.2-3.5c.7-.2 1.4-.4 2.3-.4a10.9 10.9 0 0 1 5 1.2v-3a11 11 0 0 0-2.5-.7l-2.6-.2zm27.7.3v2.6h5.4v13h-6v2.7h14.7V397h-5.4v-15.6h-8.7zm-47.6 2.2a5 5 0 0 1 2.1.4 4 4 0 0 1 1.5 1.1c.5.5.8 1 1 1.8.2.6.2 1.4.2 2.2H384c0-.8.2-1.6.4-2.2.3-.7.6-1.3 1-1.8a4.3 4.3 0 0 1 3.4-1.5zm72.2.1c.8 0 1.6.2 2.2.5.7.3 1.3.7 1.7 1.3.5.5.8 1.2 1 2 .3 1 .5 1.9.5 3 0 1-.1 1.8-.4 2.6-.1.8-.5 1.6-.9 2.2-.4.6-1 1.1-1.7 1.5a5 5 0 0 1-2.4.5c-.8 0-1.5-.1-2.2-.4-.7-.3-1.2-.7-1.7-1.3-.4-.5-.8-1.3-1-2.1a11 11 0 0 1 0-5.5c0-.9.4-1.6.8-2.2a4.8 4.8 0 0 1 4.1-2zM137 642.2c-.5 0-1 0-1.3.2a3 3 0 0 0-1.7 1.7c-.2.4-.3.8-.3 1.3l.3 1.2c.2.4.4.8.7 1 .3.4.6.6 1 .8l1.3.2c.4 0 .8 0 1.2-.2a3 3 0 0 0 1-.7l.7-1a3 3 0 0 0 0-2.6 3 3 0 0 0-1.7-1.7l-1.2-.2zm291.9 0c-.5 0-1 0-1.3.2a3 3 0 0 0-1.7 1.7c-.2.4-.2.8-.2 1.3 0 .4 0 .8.2 1.2.2.4.4.8.7 1 .3.4.6.6 1 .8l1.3.2c.4 0 .8 0 1.2-.2a3 3 0 0 0 1-.7l.7-1a3 3 0 0 0 0-2.6 3 3 0 0 0-1.7-1.7l-1.2-.2zm292.4 0c-.5 0-.9 0-1.3.2a3 3 0 0 0-1.7 1.7l-.2 1.3c0 .4 0 .8.2 1.2.2.4.4.8.7 1 .3.4.6.6 1 .8l1.3.2c.4 0 .9 0 1.3-.2a3 3 0 0 0 1-.7c.3-.3.5-.7.6-1a3 3 0 0 0 0-2.6 3 3 0 0 0-1.6-1.7l-1.3-.2zm-605.6.3v9.9a14.3 14.3 0 0 0-4.3-.6c-1.7 0-3.3.2-4.7.8a9.8 9.8 0 0 0-3.7 2.4 11 11 0 0 0-2.3 4 20.6 20.6 0 0 0-.3 10.1c.3 1.4.8 2.7 1.5 3.7s1.6 1.8 2.6 2.4a8.2 8.2 0 0 0 7.9-.4c1.3-.8 2.5-2 3.7-3.7v4.5h3.8v-33.1h-4.2zm292 0v9.9a14.3 14.3 0 0 0-4.4-.6c-1.7 0-3.3.2-4.7.8a9.8 9.8 0 0 0-3.7 2.4 11 11 0 0 0-2.3 4 20.6 20.6 0 0 0-.3 10.1c.3 1.4.9 2.7 1.5 3.7.7 1 1.6 1.8 2.6 2.4a8.2 8.2 0 0 0 7.9-.4c1.3-.8 2.5-2 3.7-3.7l.1 4.5h3.7v-33.1h-4.1zm292.4 0v9.9a14.3 14.3 0 0 0-4.4-.6c-1.7 0-3.3.2-4.7.8a9.8 9.8 0 0 0-3.6 2.4 11 11 0 0 0-2.4 4 20.6 20.6 0 0 0-.3 10.1c.4 1.4.9 2.7 1.6 3.7.6 1 1.5 1.8 2.5 2.4 1 .5 2.2.8 3.6.8 1.5 0 3-.4 4.3-1.2 1.3-.8 2.5-2 3.7-3.7l.1 4.5h3.7v-33.1H700zm-610.3 7.2L74 662.8 89.8 676l2.5-2.6-12.8-10.6 12.8-10.5-2.5-2.6zm94.3 0l-2.6 2.6 12.8 10.6-12.8 10.5 2.6 2.6 15.7-13.2-15.7-13.1zm197.7 0l-15.8 13.1 15.8 13.2 2.5-2.6-12.8-10.6 12.8-10.5-2.5-2.6zm94.2 0l-2.6 2.6 12.8 10.6-12.8 10.5 2.6 2.6 15.7-13.2-15.7-13.1zm198.2 0l-15.8 13.1 15.8 13.2 2.5-2.6-12.7-10.6 12.7-10.5-2.5-2.6zm94.2 0l-2.5 2.6 12.7 10.6-12.7 10.5 2.5 2.6 15.8-13.2-15.8-13.1zM128.5 652v3.4h7v16.8h-7.8v3.4h18.9v-3.4h-7V652h-11.1zm23.1 0l9.3 23.6h4.6l9.3-23.6h-4.5l-5.7 15.5-1.3 4-1.2-3.9-5.8-15.6h-4.7zm268.8 0v3.4h7v16.8h-7.8v3.4h18.9v-3.4h-7V652h-11.1zm23.2 0l9.2 23.6h4.6l9.3-23.6h-4.5l-5.7 15.5-1.3 4-1.2-3.9-5.8-15.6h-4.6zm269.2 0v3.4h7v16.8H712v3.4H731v-3.4h-7V652h-11.1zm23.2 0l9.2 23.6h4.7L759 652h-4.5l-5.7 15.5-1.3 4-1.2-3.9-5.8-15.6H736zm-625 3.1a11.6 11.6 0 0 1 4.6 1v11a19.6 19.6 0 0 1-3.6 4 5.3 5.3 0 0 1-3.2 1.4 4 4 0 0 1-3.6-2c-.8-1.5-1.2-3.6-1.2-6.5 0-3 .6-5.3 1.8-6.7 1.3-1.4 3-2.2 5.2-2.2zm292 0a11.6 11.6 0 0 1 4.6 1v11a19.6 19.6 0 0 1-3.7 4 5.3 5.3 0 0 1-3.2 1.4 4 4 0 0 1-3.6-2c-.8-1.5-1.2-3.6-1.2-6.5 0-3 .6-5.3 1.8-6.7 1.3-1.4 3-2.2 5.2-2.2zm292.3 0a11.6 11.6 0 0 1 4.7 1v11a19.6 19.6 0 0 1-3.7 4 5.3 5.3 0 0 1-3.2 1.4 4 4 0 0 1-3.6-2c-.8-1.5-1.2-3.6-1.2-6.5 0-3 .6-5.3 1.8-6.7 1.3-1.4 3-2.2 5.2-2.2z" transform="translate(150)"/>
  <path id="listener" fill="#d00" fill-opacity=".4" stroke="#000" stroke-width="8" d="M522.9 41.7h104.2v104.2H522.9z"/>
</svg>
