<svg xmlns="http://www.w3.org/2000/svg" xml:space="preserve" fill-rule="evenodd" stroke-linejoin="round" stroke-miterlimit="2" clip-rule="evenodd" viewBox="0 0 800 800">
  <path fill="url(#a)" fill-rule="nonzero" d="M721 410c0-33.6-8.8-65.1-24.3-92.4-41.1-42.3-130.5-52.1-152.7-.2-22.8 53.2 38.3 112.4 65 107.7 34-6-6-84-6-84 52 98 40 68-54 158S359 779 345 787l-1.9 1h368.7a8.8 8.8 0 0 0 7.8-12.7l-96.4-190.8a8.7 8.7 0 0 1 3.4-11.5A187.7 187.7 0 0 0 721 410Z" transform="translate(-213.9 -215) scale(1.22652)"/>
  <path fill="url(#b)" fill-rule="nonzero" d="M721 410c0-33.6-8.8-65.1-24.3-92.4-41.1-42.3-130.5-52.1-152.7-.2-22.8 53.2 38.3 112.4 65 107.7 34-6-6-84-6-84 52 98 40 68-54 158S359 779 345 787l-1.9 1h368.7a8.8 8.8 0 0 0 7.8-12.7l-96.4-190.8a8.7 8.7 0 0 1 3.4-11.5A187.7 187.7 0 0 0 721 410Z" transform="translate(-213.9 -215) scale(1.22652)"/>
  <path fill="url(#c)" fill-rule="nonzero" d="M345 787c14-8 110-198 204-288s106-60 54-158c0 0-199 279-271 417" transform="translate(-213.9 -215) scale(1.22652)"/>
  <path fill="url(#d)" fill-rule="nonzero" d="M373 537c134.4-247.1 152-272 222-272 36.8 0 73.9 16.6 97.9 46.1a187.7 187.7 0 0 0-156.9-89H307.7a8.7 8.7 0 0 0-8.7 8.7V691c13.6-35.1 36.7-85.3 74-154Z" transform="translate(-213.9 -215) scale(1.22652)"/>
  <path fill="url(#e)" fill-rule="nonzero" d="M549 499c-94 90-190 280-204 288s-37.5 9-50-5c-13.3-14.9-34-39 78-245 134.4-247.1 152-272 222-272 36.8 0 73.9 16.6 97.9 46.1l3.9 6.5c-41.1-42.3-130.5-52.1-152.7-.2-22.8 53.2 38.3 112.4 65 107.7 34-6-6-84-6-84C655 439 643 409 549 499Z" transform="translate(-213.9 -215) scale(1.22652)"/>
  <path fill="url(#f)" fill-rule="nonzero" d="M384 548c134.4-247.1 152-272 222-272 30.3 0 60.8 11.3 84 31.7a127.5 127.5 0 0 0-95-42.7c-70 0-87.6 24.9-222 272-112 206-91.3 230.1-78 245 1.9 2.1 4.1 3.9 6.4 5.4-11.7-17-16.9-56.5 82.6-239.4Z" transform="translate(-213.9 -215) scale(1.22652)"/>
  <defs>
    <linearGradient id="a" x1="0" x2="1" y1="0" y2="0" gradientTransform="matrix(154 36 -36 154 444.5 526)" gradientUnits="userSpaceOnUse">
      <stop offset="0" stop-color="#ff6533"/>
      <stop offset=".2" stop-color="#ff5633"/>
      <stop offset=".4" stop-color="#ff4333"/>
      <stop offset=".7" stop-color="#ff3733"/>
      <stop offset="1" stop-color="#f33"/>
    </linearGradient>
    <linearGradient id="b" x1="0" x2="1" y1="0" y2="0" gradientTransform="matrix(276.001 214 -214 276.001 420.4 475)" gradientUnits="userSpaceOnUse">
      <stop offset="0" stop-color="#bf3338"/>
      <stop offset="1" stop-color="#f33"/>
    </linearGradient>
    <linearGradient id="c" x1="0" x2="1" y1="0" y2="0" gradientTransform="matrix(40 42 -42 40 429.4 517.2)" gradientUnits="userSpaceOnUse">
      <stop offset="0" stop-color="#ff6533"/>
      <stop offset=".2" stop-color="#ff5633"/>
      <stop offset=".4" stop-color="#ff4333"/>
      <stop offset=".7" stop-color="#ff3733"/>
      <stop offset="1" stop-color="#f33"/>
    </linearGradient>
    <linearGradient id="d" x1="0" x2="1" y1="0" y2="0" gradientTransform="matrix(-12 -172 172 -12 502.1 589.5)" gradientUnits="userSpaceOnUse">
      <stop offset="0" stop-color="#ff6533"/>
      <stop offset=".2" stop-color="#ff5633"/>
      <stop offset=".4" stop-color="#ff4333"/>
      <stop offset=".7" stop-color="#ff3733"/>
      <stop offset="1" stop-color="#f33"/>
    </linearGradient>
    <linearGradient id="e" x1="0" x2="1" y1="0" y2="0" gradientTransform="scale(68.71) rotate(34.2 -8.9 14.4)" gradientUnits="userSpaceOnUse">
      <stop offset="0" stop-color="#fbb040"/>
      <stop offset="1" stop-color="#fb8840"/>
    </linearGradient>
    <linearGradient id="f" x1="0" x2="1" y1="0" y2="0" gradientTransform="matrix(-58 638 -638 -58 508.3 295.8)" gradientUnits="userSpaceOnUse">
      <stop offset="0" stop-color="#fff" stop-opacity=".3"/>
      <stop offset="1" stop-color="#fff" stop-opacity="0"/>
    </linearGradient>
  </defs>
</svg>
