<svg viewBox="0 0 128 128" xmlns="http://www.w3.org/2000/svg"><path fill="#555" d="M0 0h128v128H0z"/><path fill="#f59b31" d="M0 64h128v64H0z"/><path d="M41.3 107.6h-3.2V87.4c-.7.7-1.7 1.4-3 2.2-1.2.7-2.3 1.3-3.3 1.6v-3c1.8-.9 3.3-1.9 4.6-3 1.4-1.3 2.3-2.4 2.8-3.5h2.1v25.9zM51.1 92.5V89h3.6v3.6h-3.6zm0 15V104h3.6v3.6h-3.6zM59.4 94.9c0-3.1.3-5.6 1-7.4a9.1 9.1 0 012.7-4.3c1.3-1 2.8-1.5 4.7-1.5 1.4 0 2.6.3 3.6.8 1 .6 2 1.4 2.6 2.4a13 13 0 011.6 3.9c.4 1.5.6 3.5.6 6 0 3-.3 5.5-1 7.4a9.1 9.1 0 01-2.7 4.3 7.2 7.2 0 01-4.7 1.5c-2.5 0-4.4-1-5.9-2.7-1.7-2.1-2.5-5.6-2.5-10.4zm3.2 0c0 4.2.5 7 1.5 8.4 1 1.4 2.3 2.1 3.7 2.1 1.4 0 2.7-.7 3.7-2.1 1-1.4 1.4-4.2 1.4-8.4 0-4.3-.5-7.1-1.4-8.5-1-1.4-2.3-2.1-3.7-2.1a4 4 0 00-3.5 1.8c-1.1 1.6-1.7 4.5-1.7 8.8zM79.4 94.9c0-3.1.3-5.6 1-7.4a9.1 9.1 0 012.7-4.3c1.3-1 2.8-1.5 4.7-1.5 1.4 0 2.6.3 3.6.8 1 .6 2 1.4 2.6 2.4a13 13 0 011.6 3.9c.4 1.5.6 3.5.6 6 0 3-.3 5.5-1 7.4a9.1 9.1 0 01-2.7 4.3 7.2 7.2 0 01-4.7 1.5c-2.5 0-4.4-1-5.9-2.7-1.6-2.1-2.5-5.6-2.5-10.4zm3.3 0c0 4.2.5 7 1.4 8.4 1 1.4 2.3 2.1 3.7 2.1 1.5 0 2.7-.7 3.7-2.1 1-1.4 1.5-4.2 1.5-8.4 0-4.3-.5-7.1-1.5-8.5-1-1.4-2.2-2.1-3.7-2.1a4 4 0 00-3.5 1.8c-1 1.6-1.6 4.5-1.6 8.8z" fill="#fff"/><path d="M86.7 20.4h3.2v20.2c.7-.7 1.7-1.4 3-2.2 1.2-.7 2.3-1.3 3.3-1.6v3c-1.8.9-3.3 1.9-4.6 3a11.6 11.6 0 00-2.8 3.5h-2.1V20.4zM76.9 35.5V39h-3.6v-3.6h3.6zm0-15V24h-3.6v-3.6h3.6zM68.6 33.1c0 3.1-.3 5.6-1 7.4a9.1 9.1 0 01-2.7 4.3 7.2 7.2 0 01-4.7 1.5c-1.4 0-2.6-.3-3.6-.8-1-.6-2-1.4-2.6-2.4a13 13 0 01-1.6-3.9 25 25 0 01-.6-6c0-3 .3-5.5 1-7.4a9.1 9.1 0 012.7-4.3c1.3-1 2.8-1.5 4.7-1.5 2.5 0 4.4 1 5.9 2.7 1.7 2.1 2.5 5.6 2.5 10.4zm-3.2 0c0-4.2-.5-7-1.5-8.4-1-1.4-2.3-2.1-3.7-2.1-1.4 0-2.7.7-3.7 2.1-1 1.4-1.4 4.2-1.4 8.4 0 4.3.5 7.1 1.4 8.5 1 1.4 2.3 2.1 3.7 2.1a4 4 0 003.5-1.8c1.1-1.6 1.7-4.5 1.7-8.8zM48.6 33.1c0 3.1-.3 5.6-1 7.4a9.1 9.1 0 01-2.7 4.3 7.2 7.2 0 01-4.7 1.5c-1.4 0-2.6-.3-3.6-.8-1-.6-2-1.4-2.6-2.4a13 13 0 01-1.6-3.9 25 25 0 01-.6-6c0-3 .3-5.5 1-7.4a9.1 9.1 0 012.7-4.3c1.2-1 2.8-1.5 4.7-1.5 2.5 0 4.4 1 5.9 2.7 1.6 2.1 2.5 5.6 2.5 10.4zm-3.3 0c0-4.2-.5-7-1.4-8.4-1-1.4-2.3-2.1-3.7-2.1-1.5 0-2.7.7-3.7 2.1-1 1.4-1.5 4.2-1.5 8.4 0 4.3.5 7.1 1.5 8.5 1 1.4 2.2 2.1 3.7 2.1a4 4 0 003.5-1.8c1-1.6 1.6-4.5 1.6-8.8z" fill="#252525"/></svg>
