<svg viewBox="0 0 108 108" xmlns="http://www.w3.org/2000/svg" fill-rule="evenodd" clip-rule="evenodd" stroke-linejoin="round" stroke-miterlimit="2">
  <path fill="#fbefd2" d="M0 0h108v108H0z"/>
  <circle cx="55.4" cy="55" r="43" fill="#ffd567" transform="translate(-1.4 -1)"/>
  <path d="M108 0v108H0V0h108zM54 11a43 43 0 110 86 43 43 0 010-86z" fill="none" stroke="#0a214d" stroke-width="5" stroke-linecap="round" stroke-miterlimit="1.5" stroke-dasharray="10 10 5 0"/>
  <path d="M39 82.2a4 4 0 01-3.9-4.5l2.2-15.5-10.4-11.3a4 4 0 012.2-6.5l14.5-2.6L50.5 28a4 4 0 017 0l6.9 13.8L79 44.4a4 4 0 012.1 6.5L70.7 62.2l2.2 15.5v.6a4 4 0 01-5.7 3.4L54 75l-13.2 6.9c-.5.2-1.2.4-1.8.4zm-3-31.8l8.8 9.4-1.7 12.7L54 66.8l11 5.7-1.8-12.7 8.7-9.4-12.3-2.2L54 36.9l-5.6 11.3-12.3 2.2z" fill="#0a214d" fill-rule="nonzero"/>
</svg>
