<svg viewBox="0 0 48 47" xmlns="http://www.w3.org/2000/svg"><path d="M24 0C10.7 0 0 10.8 0 24 0 34.8 7 44 16.4 47c1.2.2 1.7-.6 1.7-1.2v-4c-6.7 1.4-8-3.3-8-3.3C8.7 35.7 7.2 35 7.2 35c-2.2-1.5 0-1.5 0-1.5 2.5.2 3.8 2.5 3.8 2.5 2.3 3.6 5.7 2.6 7 2 .3-1.6 1-2.7 1.6-3.3-5.3-.6-11-2.6-11-12 0-2.5 1-4.6 2.6-6.3-.3-.6-1-3 .2-6.4 0 0 2-.7 6.6 2.5 2-.6 4-.8 6-.8s4 .2 6 .8c4.6-3.2 6.6-2.5 6.6-2.5 1.3 3.3.5 5.8.2 6.4 1.6 1.7 2.5 3.8 2.5 6.4 0 9.3-5.6 11.3-11 12 1 .7 1.7 2 1.7 4.4v6.6c0 .6.4 1.4 1.6 1.2C41 43.8 48 34.7 48 24 48 11 37.3 0 24 0" fill="#fff" fill-rule="evenodd"/></svg>