<svg width="24" height="24" fill="none" xmlns="http://www.w3.org/2000/svg"><path d="M12 2A10 10 0 0 0 2 12v10h10a10 10 0 0 0 0-20Zm0 6.5a3.5 3.5 0 1 1 0 7H8.5V12A3.5 3.5 0 0 1 12 8.5Z" fill="url(#HomeLogo_svg__a)"></path><path d="M22 12a10 10 0 0 1-10 10H2a6.5 6.5 0 0 1 6.5-6.5H12a3.5 3.5 0 0 0 3.5-3.5H22Z" fill="url(#HomeLogo_svg__b)"></path><path d="M22 12a10 10 0 0 1-10 10H2a6.5 6.5 0 0 1 6.5-6.5H12a3.5 3.5 0 0 0 3.5-3.5H22Z" fill="url(#HomeLogo_svg__c)" fill-opacity="0.56"></path><path d="M22 12a10 10 0 0 1-10 10H2a6.5 6.5 0 0 1 6.5-6.5H12a3.5 3.5 0 0 0 3.5-3.5H22Z" fill="url(#HomeLogo_svg__d)" fill-opacity="0.15"></path><path d="M12 2A10 10 0 0 0 2 12v10a6.5 6.5 0 0 0 6.5-6.48l.02-.02H8.5V12a3.5 3.5 0 0 1 6-2.46l4.6-4.58A9.97 9.97 0 0 0 12 2Z" fill="url(#HomeLogo_svg__e)"></path><path d="M12 2A10 10 0 0 0 2 12v10a6.5 6.5 0 0 0 6.5-6.48l.02-.02H8.5V12a3.5 3.5 0 0 1 6-2.46l4.6-4.58A9.97 9.97 0 0 0 12 2Z" fill="url(#HomeLogo_svg__f)"></path><defs><radialGradient id="HomeLogo_svg__c" cx="0" cy="0" r="1" gradientUnits="userSpaceOnUse" gradientTransform="matrix(4 2.75 -4.83318 7.0301 5.5 17.75)"><stop></stop><stop offset="0.7" stop-opacity="0"></stop></radialGradient><radialGradient id="HomeLogo_svg__d" cx="0" cy="0" r="1" gradientUnits="userSpaceOnUse" gradientTransform="matrix(7.4 4.6 -8.08463 13.0057 4.3 17)"><stop offset="0.33"></stop><stop offset="0.6" stop-opacity="0"></stop></radialGradient><radialGradient id="HomeLogo_svg__f" cx="0" cy="0" r="1" gradientUnits="userSpaceOnUse" gradientTransform="matrix(13.40004 -2.3 6.04701 35.2304 .3 8.2)"><stop stop-color="#6D05E8"></stop><stop offset="1" stop-color="#6D05E8" stop-opacity="0"></stop></radialGradient><linearGradient id="HomeLogo_svg__a" x1="14.2" y1="9.1" x2="10.9" y2="22.6" gradientUnits="userSpaceOnUse"><stop stop-color="#9237E3"></stop><stop offset="1" stop-color="#48E6F3"></stop></linearGradient><linearGradient id="HomeLogo_svg__b" x1="8.5" y1="20.5" x2="17.3" y2="18.5" gradientUnits="userSpaceOnUse"><stop stop-color="#51E6FF"></stop><stop offset="1" stop-color="#71D4FF" stop-opacity="0"></stop></linearGradient><linearGradient id="HomeLogo_svg__e" x1="6.1" y1="12.7" x2="11.2" y2="5.5" gradientUnits="userSpaceOnUse"><stop stop-color="#6E06E9"></stop><stop offset="1" stop-color="#AB5ADD" stop-opacity="0"></stop></linearGradient></defs></svg>
