<svg xmlns="http://www.w3.org/2000/svg" width="512" height="512" viewBox="0 0 135.5 135.5">
  <path fill="#7dc36b" d="M60.3 130.6c-1.2-.8-1.3-1.5-.3-1.5.4 0 1.1-.2 1.6-.5 1-.6 1.5-1.7 6.7-12.8A4255.5 4255.5 0 0 1 88 73.4a4208.2 4208.2 0 0 1 13.5-29.3c.2-.9.6-.9 1.4 0 1.2 1.2 1 1.7-5 14.5a3069.8 3069.8 0 0 0-16 34.5l-10.4 22.4c-5.6 12-6.9 14.6-7.7 15.1a3 3 0 0 1-3.5 0zm-4.2-4.1c-.4-.3-1-1-1.2-1.5-.4-1-.7.4 7-31l3.3-13.8c1.1-4.6 2-8.4 1.8-8.5-.1-.1-5.4 1-11.8 2.7-8.2 2-12 2.9-12.6 2.8-1-.2-2.5-1.4-2.2-1.8a834 834 0 0 0 27.3-6.8c.3-.2.6-.6.7-1.4V66c0-.1-6.7 1.4-14.7 3.4C42.7 72.2 39 73 38.3 73c-1-.2-2.6-1.7-2.6-2.4A8285.4 8285.4 0 0 0 50 11.2a4 4 0 0 1 1.2-2l1-.7h12.5c10.6 0 12.7 0 13.3.4 1 .5 1.6 1.3 1.6 2.3 0 .4-1.4 4.6-3.2 9.4a821977.5 821977.5 0 0 0-9 24.6c0 .7 2.8 0 3.1-.7l10.3-28c1.2-3.5 1.5-3.9 2.5-2.6.3.4.6 1 .6 1.5 0 .4-1.3 4.1-2.8 8.2a606 606 0 0 0-7.3 20c0 .2.2.3.4.3l11.1-2.7c7.8-1.9 11-2.6 11.6-2.5 1.3.3 2.4 1.6 2.4 2.8 0 .7-1.6 4.3-5.6 12.9a3069.6 3069.6 0 0 0-16 34.5l-10.5 22.3c-5.5 12-6.8 14.6-7.7 15.2a3 3 0 0 1-3.4 0z"/>
</svg>

