<?xml version="1.0" encoding="UTF-8" standalone="no"?>
<!DOCTYPE svg PUBLIC "-//W3C//DTD SVG 1.1//EN" "http://www.w3.org/Graphics/SVG/1.1/DTD/svg11.dtd">
<svg width="100%" height="100%" viewBox="0 0 800 800" version="1.1" xmlns="http://www.w3.org/2000/svg" xmlns:xlink="http://www.w3.org/1999/xlink" xml:space="preserve" xmlns:serif="http://www.serif.com/" style="fill-rule:evenodd;clip-rule:evenodd;stroke-linejoin:round;stroke-miterlimit:2;">
    <g id="XMLID_15_" transform="matrix(1.22652,0,0,1.22652,-213.861,-214.951)">
        <path d="M721,410C721,376.4 712.2,344.9 696.7,317.6C655.6,275.3 566.2,265.5 544,317.4C521.2,370.6 582.3,429.8 609,425.1C643,419.1 603,341.1 603,341.1C655,439.1 643,409.1 549,499.1C455,589.1 359,779 345,787C344.4,787.4 343.8,787.7 343.1,788L711.8,788C718.3,788 722.5,781.1 719.6,775.3L623.2,584.5C621.1,580.4 622.6,575.3 626.6,573C683,540.6 721,479.8 721,410Z" style="fill:url(#_Linear1);fill-rule:nonzero;"/>
    </g>
    <g id="XMLID_10_" transform="matrix(1.22652,0,0,1.22652,-213.861,-214.951)">
        <path d="M721,410C721,376.4 712.2,344.9 696.7,317.6C655.6,275.3 566.2,265.5 544,317.4C521.2,370.6 582.3,429.8 609,425.1C643,419.1 603,341.1 603,341.1C655,439.1 643,409.1 549,499.1C455,589.1 359,779 345,787C344.4,787.4 343.8,787.7 343.1,788L711.8,788C718.3,788 722.5,781.1 719.6,775.3L623.2,584.5C621.1,580.4 622.6,575.3 626.6,573C683,540.6 721,479.8 721,410Z" style="fill:url(#_Linear2);fill-rule:nonzero;"/>
    </g>
    <g id="XMLID_3_" transform="matrix(1.22652,0,0,1.22652,-213.861,-214.951)">
        <path d="M345,787C359,779 455,589 549,499C643,409 655,439 603,341C603,341 404,620 332,758" style="fill:url(#_Linear3);fill-rule:nonzero;"/>
    </g>
    <g id="XMLID_12_" transform="matrix(1.22652,0,0,1.22652,-213.861,-214.951)">
        <path d="M373,537C507.4,289.9 525,265 595,265C631.8,265 668.9,281.6 692.9,311.1C660.2,258.4 602.3,223.1 536,222.1L307.7,222.1C302.9,222.1 299,226 299,230.8L299,691C312.6,655.9 335.7,605.7 373,537Z" style="fill:url(#_Linear4);fill-rule:nonzero;"/>
    </g>
    <g id="XMLID_6_" transform="matrix(1.22652,0,0,1.22652,-213.861,-214.951)">
        <path d="M549,499C455,589 359,779 345,787C331,795 307.5,796 295,782C281.7,767.1 261,743 373,537C507.4,289.9 525,265 595,265C631.8,265 668.9,281.6 692.9,311.1C694.2,313.2 695.5,315.4 696.8,317.6C655.7,275.3 566.3,265.5 544.1,317.4C521.3,370.6 582.4,429.8 609.1,425.1C643.1,419.1 603.1,341.1 603.1,341.1C655,439 643,409 549,499Z" style="fill:url(#_Linear5);fill-rule:nonzero;"/>
    </g>
    <g id="XMLID_13_" transform="matrix(1.22652,0,0,1.22652,-213.861,-214.951)">
        <path d="M384,548C518.4,300.9 536,276 606,276C636.3,276 666.8,287.3 690,307.7C666,280.3 630.4,265 595,265C525,265 507.4,289.9 373,537C261,743 281.7,767.1 295,782C296.9,784.1 299.1,785.9 301.4,787.4C289.7,770.4 284.5,730.9 384,548Z" style="fill:url(#_Linear6);fill-rule:nonzero;"/>
    </g>
    <defs>
        <linearGradient id="_Linear1" x1="0" y1="0" x2="1" y2="0" gradientUnits="userSpaceOnUse" gradientTransform="matrix(154,36,-36,154,444.469,526.051)"><stop offset="0" style="stop-color:rgb(255,101,51);stop-opacity:1"/><stop offset="0.16" style="stop-color:rgb(255,86,51);stop-opacity:1"/><stop offset="0.43" style="stop-color:rgb(255,67,51);stop-opacity:1"/><stop offset="0.71" style="stop-color:rgb(255,55,51);stop-opacity:1"/><stop offset="1" style="stop-color:rgb(255,51,51);stop-opacity:1"/></linearGradient>
        <linearGradient id="_Linear2" x1="0" y1="0" x2="1" y2="0" gradientUnits="userSpaceOnUse" gradientTransform="matrix(276.001,214,-214,276.001,420.382,475.002)"><stop offset="0" style="stop-color:rgb(191,51,56);stop-opacity:1"/><stop offset="1" style="stop-color:rgb(255,51,51);stop-opacity:1"/></linearGradient>
        <linearGradient id="_Linear3" x1="0" y1="0" x2="1" y2="0" gradientUnits="userSpaceOnUse" gradientTransform="matrix(40,42,-42,40,429.386,517.156)"><stop offset="0" style="stop-color:rgb(255,101,51);stop-opacity:1"/><stop offset="0.16" style="stop-color:rgb(255,86,51);stop-opacity:1"/><stop offset="0.43" style="stop-color:rgb(255,67,51);stop-opacity:1"/><stop offset="0.71" style="stop-color:rgb(255,55,51);stop-opacity:1"/><stop offset="1" style="stop-color:rgb(255,51,51);stop-opacity:1"/></linearGradient>
        <linearGradient id="_Linear4" x1="0" y1="0" x2="1" y2="0" gradientUnits="userSpaceOnUse" gradientTransform="matrix(-12,-172,172,-12,502.111,589.457)"><stop offset="0" style="stop-color:rgb(255,101,51);stop-opacity:1"/><stop offset="0.16" style="stop-color:rgb(255,86,51);stop-opacity:1"/><stop offset="0.43" style="stop-color:rgb(255,67,51);stop-opacity:1"/><stop offset="0.71" style="stop-color:rgb(255,55,51);stop-opacity:1"/><stop offset="1" style="stop-color:rgb(255,51,51);stop-opacity:1"/></linearGradient>
        <linearGradient id="_Linear5" x1="0" y1="0" x2="1" y2="0" gradientUnits="userSpaceOnUse" gradientTransform="matrix(56.818,38.637,-38.637,56.818,450.125,514.209)"><stop offset="0" style="stop-color:rgb(251,176,64);stop-opacity:1"/><stop offset="1" style="stop-color:rgb(251,136,64);stop-opacity:1"/></linearGradient>
        <linearGradient id="_Linear6" x1="0" y1="0" x2="1" y2="0" gradientUnits="userSpaceOnUse" gradientTransform="matrix(-58,638,-638,-58,508.333,295.758)"><stop offset="0" style="stop-color:white;stop-opacity:0.3"/><stop offset="1" style="stop-color:white;stop-opacity:0"/></linearGradient>
    </defs>
</svg>
