<svg xmlns="http://www.w3.org/2000/svg" viewBox="150 0 850 800">
  <style>
    #listener {
      animation: bubble 5s ease infinite;
    }
    #fire {
      animation: fire 5s ease infinite;
    }

    @keyframes bubble {
      0% { transform: translate(-295px, 570px); opacity: 0; }
      10% { transform: translate(-295px, 570px); opacity: 1 }
      50% { transform: translate(0, 290px); opacity: 1 }
      90% { transform: translate(0, 0); opacity: 1 }
      100% { transform: translate(0, 0); opacity: 0 }
    }
    @keyframes fire {
      0% { transform: translate(-292px,0); opacity: 0; }
      10% { transform: translate(-292px,0); opacity: 1 }
      20% { transform: translate(-292px,0); opacity: 0 }

      40% { transform: translate(0,-275px); opacity: 0 }
      50% { transform: translate(0,-275px); opacity: 1 }
      60% { transform: translate(0,-275px); opacity: 0 }

      80% { transform: translate(0,-565px); opacity: 0 }
      90% { transform: translate(0,-565px); opacity: 1 }
      100% { transform: translate(0,-565px); opacity: 0 }
    }
  </style>
  <path id="fire" fill="red" d="M658.3 662.5a83.7 83.7 0 0 1-83.3 83.3 83.7 83.7 0 0 1-83.3-83.3 83.7 83.7 0 0 1 83.3-83.3 83.7 83.7 0 0 1 83.3 83.3z"/>
  <path fill-opacity="0" stroke="#000" stroke-width="8" d="M366.7 662.5a83.7 83.7 0 0 1-83.4 83.3 83.7 83.7 0 0 1-83.3-83.3 83.7 83.7 0 0 1 83.3-83.3 83.7 83.7 0 0 1 83.4 83.3zM658.3 95.8a83.7 83.7 0 0 1-83.3 83.4 83.7 83.7 0 0 1-83.3-83.4A83.7 83.7 0 0 1 575 12.5a83.7 83.7 0 0 1 83.3 83.3zM658.3 387.5a83.7 83.7 0 0 1-83.3 83.3 83.7 83.7 0 0 1-83.3-83.3 83.7 83.7 0 0 1 83.3-83.3 83.7 83.7 0 0 1 83.3 83.3zM950 662.5a83.7 83.7 0 0 1-83.3 83.3 83.7 83.7 0 0 1-83.4-83.3 83.7 83.7 0 0 1 83.4-83.3 83.7 83.7 0 0 1 83.3 83.3z"/>
  <path fill-opacity="0" stroke="#000" stroke-width="8" d="M658.3 662.5a83.7 83.7 0 0 1-83.3 83.3 83.7 83.7 0 0 1-83.3-83.3 83.7 83.7 0 0 1 83.3-83.3 83.7 83.7 0 0 1 83.3 83.3z"/>
  <path d="M579.2 241.4h12.5L575 304.2l-16.7-62.8h12.5v-62.2h8.4v62.2zM579.2 516.4h12.5L575 579.2l-16.7-62.8h12.5V476h8.4v40.4zM760.6 553.7l8.8-8.9 32.7 56.2-56.2-32.6 8.8-8.8-113-113 5.9-6 113 113zM393.2 559.6l8.8 8.8-56.2 32.6 32.7-56.2 8.8 8.9 113-113 6 5.8-113.1 113z"/>
  <path d="M528.7 399.7l-2.7 2.7-16.4-13.7L526 375l2.7 2.7-13.3 11 13.3 11zM537.7 377.5h3.8l.1 4c.7-.9 1.4-1.6 2.1-2.2.7-.5 1.3-1 2-1.3.6-.4 1.3-.6 2-.7.6-.2 1.3-.2 2-.2 2.5 0 4.4.7 5.7 2.2 1.3 1.5 2 3.7 2 6.7v16H553v-15.6c0-2-.3-3.4-1-4.3-.8-1-1.8-1.4-3.2-1.4a5 5 0 0 0-3.1 1l-1.8 1.6-2 2.4V402h-4.3v-24.5zM581 402l-.2-3.3a13.3 13.3 0 0 1-4 2.9 11 11 0 0 1-4.4.8c-1.4 0-2.6-.1-3.6-.5s-1.8-.8-2.4-1.5a5.7 5.7 0 0 1-1.4-2.2c-.3-.8-.5-1.7-.5-2.7 0-2.5 1-4.4 2.7-5.8 1.9-1.4 4.6-2.1 8.2-2.1h5v-2.2c0-1.4-.4-2.6-1.3-3.4-1-.9-2.4-1.3-4.3-1.3-1.4 0-2.7.1-4 .4-1.4.3-2.8.8-4.2 1.3v-3.8a26.4 26.4 0 0 1 8.5-1.5c1.5 0 2.9.1 4 .4 1.2.4 2.2.9 3 1.5.9.7 1.5 1.5 2 2.5.4 1 .6 2.2.6 3.6V402H581zm-.6-11.2H575c-1 0-2 .2-2.7.4-.8.2-1.4.5-1.9.9s-.8.8-1 1.4a4.6 4.6 0 0 0-.2 3.2l.7 1.1 1.3.8c.5.2 1.1.3 1.9.3a8 8 0 0 0 3.4-.9c1.2-.6 2.5-1.5 4-2.8v-4.4zM590.4 377.5h4.8l6 16.2 1.3 4 1.3-4.1 6-16.1h4.7l-9.7 24.5H600l-9.5-24.5zM621.3 377.7l2.7-2.7 16.4 13.7-16.4 13.7-2.7-2.7 13.3-11-13.3-11zM517 84.8c.4 0 1 0 1.4.3a4 4 0 0 1 2 2 3.5 3.5 0 0 1 0 2.9 4 4 0 0 1-2 2 3.6 3.6 0 0 1-3 0 3.8 3.8 0 0 1-2-2l-.2-1.5c0-.5 0-1 .3-1.4a3.8 3.8 0 0 1 3.4-2.3zm0 17.8c.4 0 1 .2 1.4.4a4 4 0 0 1 2 2 3.5 3.5 0 0 1 0 2.9 4 4 0 0 1-2 2 3.6 3.6 0 0 1-3 0 3.8 3.8 0 0 1-2.2-3.5c0-.5 0-1 .3-1.4a3.8 3.8 0 0 1 3.4-2.4zM535.6 85.2h3.9v4.5c1.5-1.7 3-3 4.4-3.8a8.7 8.7 0 0 1 4.2-1.1c2.6 0 4.5.8 5.8 2.4 1.3 1.7 2 4.1 1.8 7.3h-4.3c0-2.1-.2-3.7-1-4.6-.6-1-1.6-1.5-2.9-1.5l-1.7.3a7 7 0 0 0-1.8 1l-2 1.7L540 94v15.7h-4.3V85.2zM583.4 97.3c0 1.9-.3 3.6-.8 5.2s-1.3 3-2.3 4c-1 1.2-2.3 2-3.7 2.7-1.5.6-3 1-5 1-1.7 0-3.3-.3-4.7-.9a9.4 9.4 0 0 1-3.5-2.4c-1-1-1.7-2.3-2.2-4a17.3 17.3 0 0 1 0-10.5c.6-1.6 1.3-3 2.3-4 1-1.2 2.3-2 3.7-2.7 1.5-.6 3.1-1 5-1 1.7 0 3.3.3 4.7.9a9.4 9.4 0 0 1 5.7 6.3c.6 1.5.8 3.3.8 5.4zm-4.3.1a14 14 0 0 0-.5-4 8 8 0 0 0-1.5-2.8A5.9 5.9 0 0 0 575 89c-1-.3-1.9-.5-3-.5-1.3 0-2.3.2-3.2.7-1 .5-1.7 1.2-2.3 2-.5.8-1 1.8-1.2 2.9a14.5 14.5 0 0 0 0 7.4 8 8 0 0 0 1.5 2.9c.6.7 1.4 1.3 2.2 1.7 1 .4 1.9.6 3 .6a6.5 6.5 0 0 0 5.5-2.7c.6-1 1-1.9 1.3-3 .2-1 .4-2.2.4-3.5zM610.9 97.3c0 1.9-.3 3.6-.8 5.2s-1.3 3-2.3 4c-1 1.2-2.3 2-3.7 2.7-1.5.6-3.1 1-5 1-1.7 0-3.3-.3-4.7-.9a9.3 9.3 0 0 1-3.5-2.4c-1-1-1.7-2.3-2.2-4a17.3 17.3 0 0 1 0-10.5c.5-1.6 1.3-3 2.3-4 1-1.2 2.3-2 3.7-2.7 1.5-.6 3.1-1 5-1 1.7 0 3.3.3 4.7.9a9.4 9.4 0 0 1 5.7 6.3c.5 1.5.8 3.3.8 5.4zm-4.3.1c0-1.5-.2-2.8-.5-4a8 8 0 0 0-1.5-2.8 5.9 5.9 0 0 0-2.2-1.7c-1-.3-2-.5-3-.5-1.3 0-2.4.2-3.3.7-.9.5-1.6 1.2-2.2 2-.6.8-1 1.8-1.3 2.9a14.5 14.5 0 0 0 .1 7.4 8 8 0 0 0 1.5 2.9 6 6 0 0 0 2.2 1.7c.9.4 1.9.6 3 .6a6.5 6.5 0 0 0 5.5-2.7c.6-1 1-1.9 1.3-3 .2-1 .4-2.2.4-3.5zM636.8 109.4a20.7 20.7 0 0 1-6.1.6c-3 0-5.4-.6-6.9-2s-2.3-3.6-2.3-6.4V88.8h-6.8v-3.6h6.8v-6.7l4.3-1.1v7.8h11v3.6h-11v12.4c0 1.8.5 3 1.4 4 1 .8 2.3 1.3 4.1 1.3a19.8 19.8 0 0 0 5.5-.8v3.7zM556.2 673.5l-2.7 2.7-16.4-13.7 16.4-13.7 2.7 2.7-13.3 11 13.3 11zM581 675.8l-.2-3.3a13.3 13.3 0 0 1-4 2.8 11 11 0 0 1-4.4 1c-1.4 0-2.6-.3-3.6-.6-1-.4-1.8-.9-2.4-1.5a5.7 5.7 0 0 1-1.4-2.2c-.3-.8-.5-1.8-.5-2.8 0-2.4 1-4.3 2.7-5.7 1.9-1.4 4.6-2.1 8.2-2.1h5v-2.2c0-1.4-.4-2.6-1.3-3.5-1-.8-2.4-1.3-4.3-1.3-1.4 0-2.7.2-4 .5-1.4.3-2.8.8-4.2 1.3v-3.8a25.8 25.8 0 0 1 8.5-1.6c1.5 0 2.9.2 4 .5 1.2.3 2.2.8 3 1.5.9.7 1.5 1.5 2 2.5.4 1 .6 2.2.6 3.6v16.9H581zm-.6-11.2H575c-1 0-2 .1-2.7.3-.8.3-1.4.6-1.9 1-.5.3-.8.8-1 1.3a4.6 4.6 0 0 0-.2 3.2c.2.5.4.9.7 1.2l1.3.8c.5.2 1.1.3 1.9.3a8 8 0 0 0 3.4-1c1.2-.5 2.5-1.4 4-2.7v-4.4zM593.8 651.5l2.7-2.7 16.4 13.7-16.4 13.7-2.7-2.7 13.4-11-13.4-11zM848.2 673.5l-2.6 2.7-16.4-13.7 16.4-13.7 2.6 2.7-13.3 11 13.3 11zM873 675.8l-.1-3.3a13.3 13.3 0 0 1-4.1 2.8 11 11 0 0 1-4.3 1c-1.4 0-2.6-.3-3.6-.6-1-.4-1.8-.9-2.5-1.5a5.7 5.7 0 0 1-1.4-2.2c-.3-.8-.4-1.8-.4-2.8 0-2.4.9-4.3 2.7-5.7 1.8-1.4 4.5-2.1 8.1-2.1h5.1v-2.2c0-1.4-.5-2.6-1.4-3.5-1-.8-2.3-1.3-4.2-1.3-1.4 0-2.8.2-4.1.5-1.4.3-2.8.8-4.2 1.3v-3.8a25.8 25.8 0 0 1 8.6-1.6c1.5 0 2.8.2 4 .5 1.2.3 2.2.8 3 1.5.8.7 1.5 1.5 2 2.5.4 1 .6 2.2.6 3.6v16.9H873zm-.5-11.2h-5.4c-1 0-2 .1-2.7.3l-2 1c-.4.3-.8.8-1 1.3a4.6 4.6 0 0 0-.1 3.2c.1.5.4.9.7 1.2.3.3.7.6 1.2.8.6.2 1.2.3 2 .3a8 8 0 0 0 3.3-1c1.3-.5 2.6-1.4 4-2.7v-4.4zM885.9 651.5l2.6-2.7 16.4 13.7-16.4 13.7-2.6-2.7 13.3-11-13.3-11zM264.9 673.5l-2.7 2.7-16.4-13.7 16.4-13.7 2.7 2.7-13.3 11 13.3 11zM289.6 675.8v-3.3a13.3 13.3 0 0 1-4.1 2.8 11 11 0 0 1-4.4 1c-1.4 0-2.6-.3-3.6-.6-1-.4-1.8-.9-2.4-1.5a5.7 5.7 0 0 1-1.4-2.2c-.3-.8-.5-1.8-.5-2.8 0-2.4 1-4.3 2.8-5.7 1.8-1.4 4.5-2.1 8-2.1h5.2v-2.2c0-1.4-.5-2.6-1.4-3.5-1-.8-2.4-1.3-4.3-1.3-1.4 0-2.7.2-4 .5-1.4.3-2.8.8-4.2 1.3v-3.8a25.8 25.8 0 0 1 8.6-1.6c1.5 0 2.8.2 4 .5 1.2.3 2.2.8 3 1.5.8.7 1.4 1.5 1.9 2.5.4 1 .6 2.2.6 3.6v16.9h-3.8zm-.4-11.2h-5.4c-1 0-2 .1-2.8.3-.7.3-1.4.6-1.8 1-.5.3-.9.8-1.1 1.3a4.6 4.6 0 0 0-.2 3.2c.2.5.4.9.7 1.2l1.3.8c.5.2 1.2.3 2 .3a8 8 0 0 0 3.3-1c1.2-.5 2.6-1.4 4-2.7v-4.4zM302.6 651.5l2.6-2.7 16.4 13.7-16.4 13.7-2.6-2.7 13.3-11-13.3-11z"/>
  <path id="listener" fill="#d00" fill-opacity=".4" stroke="#000" stroke-width="8" d="M522.9 41.7h104.2v104.2H522.9z"/>
</svg>
