<svg xmlns="http://www.w3.org/2000/svg" xmlns:xlink="http://www.w3.org/1999/xlink" viewBox="1 1 176 176"><defs><circle id="a" cy="96" cx="96" r="88"/></defs><clipPath id="b"><use width="100%" overflow="visible" xlink:href="#a" height="100%"/></clipPath><g transform="translate(-7 -7)" clip-path="url(#b)"><path d="M22 8v108h39.4L96 56h88V8z" fill="#db4437"/><linearGradient id="c" y2="44.4" gradientUnits="userSpaceOnUse" y1="75" x2="81.8" x1="29.3"><stop stop-color="#A52714" stop-opacity=".6" offset="0"/><stop stop-color="#A52714" stop-opacity="0" offset=".7"/></linearGradient><path d="M22 8v108h39.4L96 56h88V8z" fill="url(#c)"/></g><path clip-path="url(#b)" fill-opacity=".1" d="M62.3 115.7L22.5 47.3l-.6 1 39.5 67.8z" transform="translate(-7 -7)" fill="#3e2723"/><g transform="translate(-7 -7)" clip-path="url(#b)"><path d="M8 184h83.8l38.9-38.9V116H61.4L8 24.5z" fill="#0f9d58"/><linearGradient id="d" y2="130.3" gradientUnits="userSpaceOnUse" y1="164.5" x2="52.5" x1="110.9"><stop stop-color="#055524" stop-opacity=".4" offset="0"/><stop stop-color="#055524" stop-opacity="0" offset=".3"/></linearGradient><path d="M8 184h83.8l38.9-38.9V116H61.4L8 24.5z" fill="url(#d)"/></g><path clip-path="url(#b)" fill-opacity=".1" d="M129.8 117.3l-.8-.4L90.6 184h1.2l38-66.6z" transform="translate(-7 -7)" fill="#263238"/><g transform="translate(-7 -7)" clip-path="url(#b)"><defs><path id="e" d="M8 184h83.8l38.9-38.9V116H61.4L8 24.5z"/></defs><clipPath id="f"><use width="100%" overflow="visible" xlink:href="#e" height="100%"/></clipPath><g clip-path="url(#f)"><path d="M96 56l34.6 60-38.8 68H184V56z" fill="#ffcd40"/><linearGradient id="g" y2="114.1" gradientUnits="userSpaceOnUse" y1="49.8" x2="136.6" x1="121.9"><stop stop-color="#EA6100" stop-opacity=".3" offset="0"/><stop stop-color="#EA6100" stop-opacity="0" offset=".7"/></linearGradient><path d="M96 56l34.6 60-38.8 68H184V56z" fill="url(#g)"/></g></g><g transform="translate(-7 -7)" clip-path="url(#b)"><path d="M96 56l34.6 60-38.8 68H184V56z" fill="#ffcd40"/><path d="M96 56l34.6 60-38.8 68H184V56z" fill="url(#g)"/></g><g transform="translate(-7 -7)" clip-path="url(#b)"><defs><path id="h" d="M96 56l34.6 60-38.8 68H184V56z"/></defs><clipPath id="i"><use width="100%" overflow="visible" xlink:href="#h" height="100%"/></clipPath><g clip-path="url(#i)"><path d="M22 8v108h39.4L96 56h88V8z" fill="#db4437"/><path d="M22 8v108h39.4L96 56h88V8z" fill="url(#c)"/></g></g><radialGradient id="j" gradientUnits="userSpaceOnUse" cy="55.9" cx="668.2" gradientTransform="translate(-576)" r="84.1"><stop stop-color="#3E2723" stop-opacity=".2" offset="0"/><stop stop-color="#3E2723" stop-opacity="0" offset="1"/></radialGradient><path clip-path="url(#b)" d="M96 56v21l78.4-21z" transform="translate(-7 -7)" fill="url(#j)"/><g transform="translate(-7 -7)" clip-path="url(#b)"><defs><path id="k" d="M22 8v40.3L61.4 116 96 56h88V8z"/></defs><clipPath id="l"><use width="100%" overflow="visible" xlink:href="#k" height="100%"/></clipPath><g clip-path="url(#l)"><path d="M8 184h83.8l38.9-38.9V116H61.4L8 24.5z" fill="#0f9d58"/><path d="M8 184h83.8l38.9-38.9V116H61.4L8 24.5z" fill="url(#d)"/></g></g><radialGradient id="m" gradientUnits="userSpaceOnUse" cy="48.5" cx="597.9" gradientTransform="translate(-576)" r="78"><stop stop-color="#3E2723" stop-opacity=".2" offset="0"/><stop stop-color="#3E2723" stop-opacity="0" offset="1"/></radialGradient><path clip-path="url(#b)" d="M22 48.5l57.2 57.2L61.4 116z" transform="translate(-7 -7)" fill="url(#m)"/><radialGradient id="n" gradientUnits="userSpaceOnUse" cy="96.1" cx="671.8" gradientTransform="translate(-576)" r="87.9"><stop stop-color="#263238" stop-opacity=".2" offset="0"/><stop stop-color="#263238" stop-opacity="0" offset="1"/></radialGradient><path clip-path="url(#b)" d="M91.8 183.9l21-78.2 17.8 10.3z" transform="translate(-7 -7)" fill="url(#n)"/><g transform="translate(-7 -7)" clip-path="url(#b)"><circle cy="96" cx="96" r="40" fill="#f1f1f1"/><circle cy="96" cx="96" r="32" fill="#4285f4"/></g><g transform="translate(-7 -7)" clip-path="url(#b)"><path fill-opacity=".2" d="M96 55c-22 0-40 18-40 40v1c0-22 18-40 40-40h88v-1H96z" fill="#3e2723"/><path fill-opacity=".1" d="M130.6 116a40 40 0 0 1-69.2 0L8 24.5v1L61.4 117a40 40 0 0 0 69.2 0v-1z" fill="#fff"/><path opacity=".1" d="M97 56h-.5a40 40 0 0 1 0 80h.5a40 40 0 0 0 0-80z" fill="#3e2723"/><path fill-opacity=".2" d="M131 117.3a39.7 39.7 0 0 0 3.5-32 40 40 0 0 1-3.9 30.7l-38.8 68h1.1l38.1-66.6z" fill="#fff"/></g><g transform="translate(-7 -7)" clip-path="url(#b)"><path fill-opacity=".2" d="M96 9a88 88 0 0 1 88 87.5V96A88 88 0 0 0 8 96v.5A88 88 0 0 1 96 9z" fill="#fff"/><path fill-opacity=".1" d="M96 183a88 88 0 0 0 88-87.5v.5A88 88 0 0 1 8 96v-.5A88 88 0 0 0 96 183z" fill="#3e2723"/></g><radialGradient id="o" gradientUnits="userSpaceOnUse" cy="32" cx="34.3" gradientTransform="translate(-7 -7)" r="176.8"><stop stop-color="#fff" stop-opacity=".1" offset="0"/><stop stop-color="#fff" stop-opacity="0" offset="1"/></radialGradient><circle cy="89" cx="89" r="88" fill="url(#o)"/></svg>
