<svg xmlns="http://www.w3.org/2000/svg" xml:space="preserve" fill-rule="evenodd" stroke-linejoin="round" stroke-miterlimit="2" clip-rule="evenodd" viewBox="0 0 320 320">
  <path fill="#6b7a90" d="M270.3 145 71.4 259.8l49.7 28.7L320 173.7v-21.5l-49.7-7.2Z"/>
  <path fill="#495867" d="m121.1 267-49.7-28.7v21.5l49.7 28.7V267Z"/>
  <path fill="#5a6c7e" d="M270.3 123.4 71.4 238.3l49.7 28.7L320 152.2l-49.7-28.8Zm-40.2 84.2a12 12 0 0 1 2.9-2.4c3.8-2.2 6.9-.4 6.9 4-.3 4.8-2.8 9.3-6.9 11.9-1 .6-2 .9-2.9 1a12 12 0 0 1-2.9 2.3c-.9.6-2 1-3 1a12 12 0 0 1-3 2.5c-.9.6-1.9.9-3 1-.8 1-1.8 1.8-3 2.4-1 .6-2 1-2.8 1-.8 1-1.8 1.7-3 2.4-3.7 2.2-6.8.4-6.8-4 .3-4.8 2.8-9.3 6.9-11.9 1-.6 2-.9 2.9-1 .8-.9 1.8-1.7 2.9-2.3 1-.7 2-1 3-1 .8-1 1.8-1.8 3-2.5 1-.6 2-1 3-1 .8-1 1.8-1.8 3-2.4 1-.6 2-1 2.8-1Z"/>
  <clipPath id="a">
    <path d="M230.1 207.6a12 12 0 0 1 2.9-2.4c3.8-2.2 6.9-.4 6.9 4-.3 4.8-2.8 9.3-6.9 11.9-1 .6-2 .9-2.9 1a12 12 0 0 1-2.9 2.3c-.9.6-2 1-3 1a12 12 0 0 1-3 2.5c-.9.6-1.9.9-3 1-.8 1-1.8 1.8-3 2.4-1 .6-2 1-2.8 1-.8 1-1.8 1.7-3 2.4-3.7 2.2-6.8.4-6.8-4 .3-4.8 2.8-9.3 6.9-11.9 1-.6 2-.9 2.9-1 .8-.9 1.8-1.7 2.9-2.3 1-.7 2-1 3-1 .8-1 1.8-1.8 3-2.5 1-.6 2-1 3-1 .8-1 1.8-1.8 3-2.4 1-.6 2-1 2.8-1Z"/>
  </clipPath>
  <g clip-path="url(#a)">
    <path fill="#fff" d="M229.4 207.2a12 12 0 0 1 3-2.4c3.7-2.2 6.8-.4 6.8 4-.2 4.8-2.8 9.3-6.9 12-1 .5-2 .8-2.9.8a12 12 0 0 1-2.9 2.5c-1 .6-2 .9-3 .9-.8 1-1.8 1.8-3 2.5-1 .6-2 1-2.9 1-.8 1-1.9 1.8-3 2.5-1 .5-2 .9-2.9.9a12 12 0 0 1-2.9 2.4c-3.8 2.2-6.9.4-6.9-4 .3-4.8 2.9-9.2 7-11.9 1-.6 2-.9 2.8-1a12 12 0 0 1 3-2.3c1-.7 2-1 2.9-1 .8-1 1.9-1.8 3-2.5 1-.6 2-.9 3-.9.8-1 1.8-1.8 3-2.5 1-.6 2-1 2.8-1Z"/>
    <path fill="#fdb100" fill-opacity=".5" d="M208.8 218.4c3.8-2.2 6.9-.4 6.9 4-.3 4.8-2.8 9.3-6.9 12-3.8 2.1-6.9.3-6.9-4 .3-5 2.9-9.3 7-12Z"/>
    <path fill="#f60" fill-opacity=".5" d="M214.6 215c3.8-2.1 6.9-.3 6.9 4-.3 4.9-2.8 9.3-6.9 12-3.8 2.1-6.9.4-6.9-4 .3-4.9 2.9-9.3 7-12Z"/>
    <path fill="#f0f" fill-opacity=".5" d="M220.6 211.6c3.8-2.2 6.9-.4 6.9 4-.3 4.8-2.9 9.3-7 12-3.7 2.1-6.8.3-6.8-4 .3-4.9 2.8-9.3 6.9-12Z"/>
    <path fill="#00f" fill-opacity=".5" d="M226.5 208.2c3.8-2.2 7-.4 7 4-.3 4.8-2.9 9.2-7 11.9-3.8 2.2-6.8.4-6.8-4 .2-4.8 2.8-9.3 6.8-12Z"/>
    <path fill="#0f0" fill-opacity=".5" d="M232.3 204.8c3.8-2.2 7-.4 7 4-.3 4.8-2.9 9.3-7 12-3.7 2.1-6.8.3-6.8-4 .2-4.9 2.8-9.3 6.9-12Z"/>
  </g>
  <path fill="#beeaf8" d="m292 137.8 3.2 1.8-1.6 3.6-3.1-1.8 1.5-3.6Z"/>
  <path fill="#404c59" d="M285.8 141.4h4.7l1.5-3.6-6.2 3.6Z"/>
  <path fill="#495867" d="m285.8 141.4 3.1 1.8h4.7l-3.1-1.8h-4.7Z"/>
  <path fill="url(#b)" d="m293.6 143.2-47.3 37.3-15.6 3.5-13.3-19.3 10.1-35.4 18-18.4 20.1-2.7 26.4 29.6-1.5 3.6 3.1 1.8Z"/>
  <path fill="#9d3536" d="m236.9 142.7 1.5 1 1.6-2.8-7-30-1.5-1-3.1 1.9 8.5 31Z"/>
  <path fill="#e74b3d" d="m238.4 143.6 3.2-1.8-8.6-31-3.1 1.9 8.6 31Z"/>
  <path fill="#8c8c8c" d="M242.9 136.6c3.3-1.9 6-.4 6 3.5-.3 4.2-2.5 8-6 10.3-3.3 2-6 .4-6-3.4.2-4.2 2.4-8 6-10.4Z"/>
  <path fill="#31beea" d="M242.9 136.6c3.3-1.9 6-.4 6 3.5-.3 4.2-2.5 8-6 10.3-3.3 2-6 .4-6-3.4.2-4.2 2.4-8 6-10.4Z"/>
  <path d="m253 113.6-.8.3-5.6 32.2 1-.3 5.5-32.2Z"/>
  <path fill="#1396bf" d="m253 113.6-.8.3-5.6 32.2 1-.3 5.5-32.2Z"/>
  <path d="m243 119-.8.7 4.4 26.6 1-.7L243 119Z"/>
  <path fill="#1396bf" d="m243 119-.8.7 4.4 26.6 1-.7L243 119Z"/>
  <path d="m232.8 129.6-.8 1 14.7 15.9.8-1-14.7-15.9Z"/>
  <path fill="#1396bf" d="m232.8 129.6-.8 1 14.7 15.9.8-1-14.7-15.9Z"/>
  <path d="m225.7 142-.5 1.1 21.6 3.5.5-1.2-21.6-3.5Z"/>
  <path fill="#1396bf" d="m225.7 142-.5 1.1 21.6 3.5.5-1.2-21.6-3.5Z"/>
  <path d="m222 154.8-.2 1.2 25.2-9.5.2-1.1-25.2 9.4Z"/>
  <path fill="#1396bf" d="m222 154.8-.2 1.2 25.2-9.5.2-1.1-25.2 9.4Z"/>
  <path d="m222 166.4.2 1 25-21-.2-.9-25 20.9Z"/>
  <path fill="#1396bf" d="m222 166.4.2 1 25-21-.2-.9-25 20.9Z"/>
  <path d="m225.8 174.8.6.6 21-29.2-.6-.5-21 29.1Z"/>
  <path fill="#1396bf" d="m225.8 174.8.6.6 21-29.2-.6-.5-21 29.1Z"/>
  <path d="m233.9 179 .8.1 12.8-33.1h-.8l-12.8 33Z"/>
  <path fill="#1396bf" d="m233.9 179 .8.1 12.8-33.1h-.8l-12.8 33Z"/>
  <path d="m242.2 178 .9-.4 4.4-31.8-.9.3-4.4 31.8Z"/>
  <path fill="#1396bf" d="m242.2 178 .9-.4 4.4-31.8-.9.3-4.4 31.8Z"/>
  <path d="m252.2 172 .9-.7-5.6-25.7-.9.7 5.6 25.8Z"/>
  <path fill="#1396bf" d="m252.2 172 .9-.7-5.6-25.7-.9.7 5.6 25.8Z"/>
  <path d="m261.4 162.3.7-1-14.6-15.9-.8 1 14.7 15.9Z"/>
  <path fill="#1396bf" d="m261.4 162.3.7-1-14.6-15.9-.8 1 14.7 15.9Z"/>
  <path d="m269 148.5.5-1.2-22.2-2-.4 1.3 22.1 2Z"/>
  <path fill="#1396bf" d="m269 148.5.5-1.2-22.2-2-.4 1.3 22.1 2Z"/>
  <path d="m272.2 137 .2-1-25.2 9.4-.2 1.1 25.2-9.4Z"/>
  <path fill="#1396bf" d="m272.2 137 .2-1-25.2 9.4-.2 1.1 25.2-9.4Z"/>
  <path d="m272.2 125.5-.2-.9-25 20.9.2 1 25-21Z"/>
  <path fill="#1396bf" d="m272.2 125.5-.2-.9-25 20.9.2 1 25-21Z"/>
  <path d="m268.3 117-.5-.5-21 29.2.6.5 21-29.1Z"/>
  <path fill="#1396bf" d="m268.3 117-.5-.5-21 29.2.6.5 21-29.1Z"/>
  <path d="m261.2 113-.7-.1-13.8 33 .8.1 13.7-33Z"/>
  <path fill="#1396bf" d="m261.2 113-.7-.1-13.8 33 .8.1 13.7-33Z"/>
  <path fill="#8c8c8c" d="M247 139c3.4-1.9 6-.3 6 3.5-.2 4.2-2.4 8-6 10.4-3.2 1.9-5.9.3-5.9-3.5.2-4.2 2.5-8 6-10.4Z"/>
  <path fill="#31beea" d="M247 139c3.4-1.9 6-.3 6 3.5-.2 4.2-2.4 8-6 10.4-3.2 1.9-5.9.3-5.9-3.5.2-4.2 2.5-8 6-10.4Z"/>
  <path fill="#159ec9" d="M247 141.2c2.3-1.3 4.2-.3 4.2 2.4a9.2 9.2 0 0 1-4.1 7.1c-2.3 1.3-4.1.3-4.1-2.3.1-3 1.6-5.6 4-7.2Z"/>
  <path fill="#107d9e" d="M243 109.5c16.3-9.4 33.5-.4 33.5 18.4a69 69 0 0 1-30.3 52.7c-16.2 9.4-32.6-1.1-32.6-20a65.4 65.4 0 0 1 29.4-51Zm3.7 7.8c6.2-3.6 11.8-4.4 15.9-2 4 2.3 5 4 5 11.3 0 17.2-12.2 38.2-27 46.9-6.3 3.6-10.6 2.6-14.6.2-4.1-2.3-6.2-7.6-6.2-14.8 0-17.3 12-33 26.9-41.6Z"/>
  <path fill="#1396bf" d="M247 111.8c16.3-9.4 29.5-1.7 29.5 17a65.4 65.4 0 0 1-29.4 51.3c-16.3 9.4-29.5 1.7-29.5-17a65.4 65.4 0 0 1 29.5-51.3Zm2.6 4.3c6.2-3.6 11.7-4.4 15.8-2 4.1 2.3 6.2 7.6 6.2 14.8a60 60 0 0 1-27 46.9c-6.2 3.6-11.8 4.4-15.8 2-4.1-2.3-6.2-7.6-6.2-14.8a60 60 0 0 1 27-46.9Z"/>
  <path fill="#9d3536" d="m182.5 166.6-52 35.6 25.6-55.9V141l3.9-2.3-3.1-1.8-4 2.2v5.4l-27.9 61v3.6l3.2 1.8v-1.8l51.2-35 3.2-2.7v-4.8Z"/>
  <path fill="#e74b3d" d="m132 205.1 28-61v-5.4l-3.9 2.2v5.4l-28 61v3.6l4-2.2 50.5-34.5v-3.6L132 205Z"/>
  <path fill="#8c8c8c" d="M129.4 202c3.3-1.8 6-.3 6 3.5-.2 4.3-2.4 8.1-6 10.4-3.3 2-6 .4-6-3.4.3-4.2 2.5-8.1 6-10.4Z"/>
  <path fill="#6e7d7c" d="M129.4 202c3.3-1.8 6-.3 6 3.5-.2 4.3-2.4 8.1-6 10.4-3.3 2-6 .4-6-3.4.3-4.2 2.5-8.1 6-10.4Z"/>
  <path d="m139.6 179.1-.9.3-5.5 32.2.9-.3 5.6-32.2Z"/>
  <path fill="#6e7d7c" d="m139.6 179.1-.9.3-5.5 32.2.9-.3 5.6-32.2Z"/>
  <path d="m129.7 184.4-1 .8 4.5 26.6.9-.7-4.4-26.7Z"/>
  <path fill="#6e7d7c" d="m129.7 184.4-1 .8 4.5 26.6.9-.7-4.4-26.7Z"/>
  <path d="m119.3 195.1-.7 1 14.7 15.9.7-1-14.7-15.9Z"/>
  <path fill="#6e7d7c" d="m119.3 195.1-.7 1 14.7 15.9.7-1-14.7-15.9Z"/>
  <path d="m112.3 207.4-.5 1.2 21.6 3.4.5-1.1-21.6-3.5Z"/>
  <path fill="#6e7d7c" d="m112.3 207.4-.5 1.2 21.6 3.4.5-1.1-21.6-3.5Z"/>
  <path d="m108.5 220.3-.1 1.2 25.2-9.5.1-1.1-25.2 9.4Z"/>
  <path fill="#6e7d7c" d="m108.5 220.3-.1 1.2 25.2-9.5.1-1.1-25.2 9.4Z"/>
  <path d="m108.5 231.9.3 1 25-21-.2-1-25 21Z"/>
  <path fill="#6e7d7c" d="m108.5 231.9.3 1 25-21-.2-1-25 21Z"/>
  <path d="m112.4 240.3.6.6 21-29.2-.6-.5-21 29.1Z"/>
  <path fill="#6e7d7c" d="m112.4 240.3.6.6 21-29.2-.6-.5-21 29.1Z"/>
  <path d="M120.5 244.5h.7l12.9-33h-.9l-12.7 33Z"/>
  <path fill="#6e7d7c" d="M120.5 244.5h.7l12.9-33h-.9l-12.7 33Z"/>
  <path d="m128.7 243.4 1-.3 4.4-31.8-.9.3-4.5 31.8Z"/>
  <path fill="#6e7d7c" d="m128.7 243.4 1-.3 4.4-31.8-.9.3-4.5 31.8Z"/>
  <path d="m138.7 237.6 1-.8-5.6-25.7-1 .7 5.7 25.8Z"/>
  <path fill="#6e7d7c" d="m138.7 237.6 1-.8-5.6-25.7-1 .7 5.7 25.8Z"/>
  <path d="m148 227.8.7-1-14.7-15.9-.7 1 14.7 15.9Z"/>
  <path fill="#6e7d7c" d="m148 227.8.7-1-14.7-15.9-.7 1 14.7 15.9Z"/>
  <path d="m155.6 214 .5-1.2-22.2-2-.5 1.2 22.2 2Z"/>
  <path fill="#6e7d7c" d="m155.6 214 .5-1.2-22.2-2-.5 1.2 22.2 2Z"/>
  <path d="m158.8 202.6.1-1.2-25.2 9.5-.1 1.1 25.2-9.4Z"/>
  <path fill="#6e7d7c" d="m158.8 202.6.1-1.2-25.2 9.5-.1 1.1 25.2-9.4Z"/>
  <path d="m158.7 191-.2-1-25 21 .2 1 25-21Z"/>
  <path fill="#6e7d7c" d="m158.7 191-.2-1-25 21 .2 1 25-21Z"/>
  <path d="m154.9 182.6-.6-.6-21 29.2.6.5 21-29.1Z"/>
  <path fill="#6e7d7c" d="m154.9 182.6-.6-.6-21 29.2.6.5 21-29.1Z"/>
  <path d="m147.8 178.5-.8-.1-13.7 33 .7.1 13.8-33Z"/>
  <path fill="#6e7d7c" d="m147.8 178.5-.8-.1-13.7 33 .7.1 13.8-33Z"/>
  <path fill="#8c8c8c" d="M133.7 204.5c3.2-1.9 6-.3 6 3.5-.3 4.2-2.5 8-6 10.4-3.3 1.9-6 .3-6-3.5.2-4.2 2.4-8 6-10.4Z"/>
  <path fill="#6e7d7c" d="M133.7 204.5c3.2-1.9 6-.3 6 3.5-.3 4.2-2.5 8-6 10.4-3.3 1.9-6 .3-6-3.5.2-4.2 2.4-8 6-10.4Z"/>
  <path fill="#525d5d" d="M133.7 206.7c2.2-1.3 4-.3 4 2.4a9.2 9.2 0 0 1-4 7.1c-2.3 1.3-4.2.3-4.2-2.4.2-2.9 1.7-5.5 4.2-7.1Z"/>
  <path fill="#19212f" d="M129.6 175c16.2-9.4 33.5-.4 33.5 18.4a69 69 0 0 1-30.3 52.7c-16.3 9.4-32.6-1.1-32.6-20a65.4 65.4 0 0 1 29.4-51.1Zm3.7 7.8c6.2-3.6 11.8-4.4 15.8-2 4.1 2.3 5 4 5 11.2 0 17.3-12 38.3-27 47-6.2 3.5-10.5 2.6-14.6.2-4-2.3-6.1-7.6-6.1-14.8 0-17.3 12-33 26.9-41.6Z"/>
  <path fill="#273746" d="M133.7 177.3c16.2-9.4 29.4-1.7 29.4 17a65.4 65.4 0 0 1-29.4 51.3c-16.3 9.4-29.5 1.7-29.5-17a65.4 65.4 0 0 1 29.4-51.3Zm2.4 4.3c6.2-3.6 11.8-4.4 15.9-2 4 2.3 6.2 7.6 6.2 14.8a60 60 0 0 1-27 46.9c-6.2 3.6-11.8 4.4-15.9 2-4-2.3-6.1-7.6-6.1-14.8a60 60 0 0 1 27-46.9Z"/>
  <g>
    <path fill="#9d3536" d="m247.8 149 1.5 1 1.6-2.8-7-30-1.6-1-3 1.9 8.5 31Z"/>
    <path fill="#e74b3d" d="m249.3 150 3.1-1.9-8.5-31-3.1 1.9 8.5 31Z"/>
  </g>
  <g>
    <path fill="#9d3536" d="m233.8 106-5.4 3.2v6.2L240 122l5.4-9.3-11.6-6.7Z"/>
    <path fill="#e74b3d" d="m245.4 112.8-5.4 3.1v6.2l5.4-3.1v-6.2Z"/>
  </g>
  <g>
    <path fill="#9d3637" d="m229.9 100.7-4.5-2.5-34.1 72.9 4.4 2.6 34.2-73Z"/>
    <path fill="#bf493e" d="M231.5 95.6 227 93l-66.8 45.8 4.5 2.6 66.8-45.8Z"/>
    <path fill="#9d3536" d="m228.5 98 4.5 2.6 4.6 16.7-4.4-2.6-4.7-16.6Zm-5-17.2 4.4 2.5 3.6 12.3L227 93l-3.6-12.2Z"/>
    <path fill="#792929" d="M187.2 175 160 138.7l-7-3.1 7 11.3 24.8 29.6 2.4-1.5Z"/>
    <path fill="#e74b3d" d="m228 83.3 3.5 12.3-66.8 45.8-3.2-5.4-3.9 2.3 7 11.3 25 29.6 8.1-3 35.3-75.6 3.8 13.5 3.1-1.8-8.5-31-3.5 2Zm-61.2 60.4 63.1-43-34.2 73-5-.2-23.9-29.8Z"/>
  </g>
  <g>
    <path fill="#9d3536" d="m187.2 173.2-49 33.5 25.7-55.9v-5.4l3.9-2.2-3.2-1.8-3.8 2.2v5.4l-28 61v3.6l3.1 1.8v-1.8l51.3-35v-5.4Z"/>
    <path fill="#e74b3d" d="m139.8 209.6 28-61v-5.4l-4 2.2v5.4l-28 61v3.6l4-2.2 50.5-34.6V175l-50.5 34.6Z"/>
  </g>
  <path fill="#d19918" d="m153.8 144-17.1-11.6V127l14-2.7 9 .2 9.7-5.6h9.2v5.4l-9.3 5.4v5.4l-15.5 9Z"/>
  <path fill="#f1b11c" d="M153.8 138.7 136.7 127l14-8h9l9.7-5.5h3l6.2 3.7v1.8l-9.3 5.3v5.4l-15.5 9Z"/>
  <path fill="#19212f" d="M188.4 163.2c7.7-4.5 15.9.2 15.9 9.1a31 31 0 0 1-14 24.3c-7.7 4.4-15.9-.3-15.9-9.2a31 31 0 0 1 14-24.2Z"/>
  <path fill="#273746" d="M190.3 164.3c7.7-4.5 14-.9 14 8a31 31 0 0 1-14 24.3c-7.7 4.4-14 .8-14-8.1a31 31 0 0 1 14-24.2Z"/>
  <g>
    <path fill="#f1b11c" d="M194.3 68.8c-.9-.4-1.4-1.6-1.4-3.3 0-2.8 1.4-5.8 3-6.8.8-.4 1.4-.4 1.9-.2L219.3 71c.6.6 1 1.6 1 3 0 2.7-1.5 5.8-3.2 6.8-.9.5-1.7.4-2.2-.2l-20.6-11.8Z"/>
    <path fill="#d1d9df" d="M215.9 78.5c-.5-.2-.8-1-.8-1.9 0-1.5.8-3.2 1.7-3.8.4-.2.7-.2 1 0l20 11.7c.3.3.5.9.5 1.7 0 1.5-.8 3.2-1.8 3.8-.4.2-.9.2-1.2-.1L216 78.5Z"/>
    <path fill="#f1b11c" d="M236.4 93.1c-.9-.4-1.5-1.6-1.5-3.3 0-2.8 1.4-5.8 3.2-6.8.6-.4 1.2-.4 1.8-.2l21.4 12.5c.6.6 1 1.6 1 3 0 2.7-1.4 5.8-3.1 6.8-1 .5-1.7.4-2.3-.2l-20.5-11.8Z"/>
    <path fill="#d19918" d="M259.1 95.2c1.8-1 3.2.4 3.2 3.1 0 2.8-1.4 5.8-3.2 6.8-1.7 1-3.1-.4-3.1-3.1s1.4-5.8 3.1-6.8Z"/>
  </g>
  <path fill="#495867" d="m46.6 119.9 6.2 3.5V267l-6.2-3.6V119.9Z"/>
  <g>
    <path fill="#495867" d="m19 111.6 6.2-3.7v18.2l47.3-27.3V80.7l6.3-3.7v25.5L24.2 140l-5.2-3v-25.4Z"/>
    <path fill="#5a6c7e" d="m24.9 133.6.3-7.5 47.3-27.3 6.3 3.7-54 31v.1Z"/>
    <path fill="#6b7a90" d="m24.1 114.6 6.3-3.7v18.2l47.3-27.3V83.7L84 80v25.5L24 140v-25.4Z"/>
    <path fill="#aaccc9" d="M76.8 33.5c10.3-6 24.5 2.2 24.5 14.1 0 11.9-10.5 26.9-20.8 32.8-10.3 6-22.3-2.8-22.3-14.7 0-11.8 8.3-26.3 18.6-32.2Z"/>
    <path fill="#a0d6d2" d="m78 81.6-5.8-3.3v4l5.7 3.3v-4Z"/>
    <path fill="#cce9e7" d="m87.4 76-9.5 5.4v4.2l9.5-5.4v-4.3Z"/>
    <path fill="#cce9e7" d="M82.7 36.8c10.2-5.9 18.6-1 18.6 10.8 0 11.9-8.4 26.3-18.6 32.3C72.4 85.8 64 80.9 64 69c0-11.9 8.4-26.3 18.7-32.3Z"/>
    <path fill="#d5476b" d="M82.7 43.5c7-4 12.8-.8 12.8 7.4 0 8.2-5.7 18.2-12.8 22.3-7.1 4.1-12.9.8-12.9-7.4 0-8.2 5.8-18.2 12.9-22.3Z"/>
    <path fill="#8a203b" d="m90 48.9-2.7-1.6-12 20.8 2.7 1.7 12-21Z"/>
    <path fill="#8a203b" d="m78 52.6-2.7 4.8 12 7 2.8-4.8-12-7Z"/>
    <path fill-opacity=".4" d="M82.7 43.5c7-4 12.8-.8 12.8 7.4 0 8.2-5.7 18.2-12.8 22.3-7.1 4.1-12.9.8-12.9-7.4 0-8.2 5.8-18.2 12.9-22.3Z"/>
    <path fill="#aaccc9" d="M23.3 64.4c10.3-6 24.5 2.2 24.5 14.1 0 11.9-10.5 26.9-20.8 32.8-10.3 6-22.4-2.8-22.4-14.7 0-11.8 8.4-26.3 18.7-32.2Z"/>
    <path fill="#cce9e7" d="m33.9 106.8-9.5 5.5v4.2l9.4-5.4v-4.3Z"/>
    <path fill="#a0d6d2" d="m24.4 112.6-5.8-3.4v4l5.8 3.3v-4Z"/>
    <path fill="#cce9e7" d="M29.1 67.8c10.3-6 18.7-1.2 18.7 10.7 0 11.9-8.4 26.3-18.7 32.3-10.3 5.9-18.6 1-18.6-10.8s8.3-26.3 18.6-32.2Z"/>
    <path fill="#55af55" d="M29.1 74.4c7.1-4 12.9-.8 12.9 7.4C42 90 36.2 100 29 104.1c-7 4.1-12.8.8-12.8-7.4 0-8.2 5.7-18.2 12.8-22.3Zm-23 46.7 2.6-5.2-4.2 3s-1.4 2-.6 2.8c.9.8 2.1-.6 2.1-.6Zm6.7-49.3 5 2.9-2.5-6.4s-1.1-.8-2.1.8c-1 1.7-.4 2.7-.4 2.7Zm39 23.6-4-.9 1.5 4.5s1.2.7 2.2-1c1-1.6.3-2.6.3-2.6ZM57.9 71l-5.4 4.7 5.5-1.2s1.7-1.2 1.5-2.7c-.2-1.4-1.6-.8-1.6-.8Zm-4-4.5-3.1 4.9L55 69s1.5-1.8.9-2.8c-.7-1-2 .1-2 .1Zm-52 51.5 4.5-5.6-5.1 2.5s-1.6 1.4-1.2 2.7c.4 1.3 1.8.4 1.8.4Z"/>
    <path fill="#357035" d="M37.2 80.6 34.4 79l-10 17.2 2.8 1.6 10-17.2Z"/>
    <path fill="#357035" d="m24.2 89.8-2.8 4.8 5.8 3.3L30 93l-5.8-3.4Z"/>
  </g>
  <path fill="#6b7a90" d="m59 119.9-6.2 3.5v136.4l6.3-3.6V120Z"/>
  <path fill="#5a6c7e" d="m93.2 265.2-15.5 9 6.2 3.5 15.5-9-6.2-3.5Zm-34.1-9-6.3 3.6 24.9 14.4 6.2-3.6-24.8-14.4Z"/>
  <path fill="#6b7a90" d="m99.4 268.8-15.5 9v7l15.5-8.9v-7.1Z"/>
  <path fill="#495867" d="m83.9 277.7-31-17.9v7.2l31 18v-7.3Z"/>
  <defs>
    <radialGradient id="b" cx="0" cy="0" r="1" gradientTransform="matrix(73.3355 -1.82468 .77688 72.2137 229.1 145.4)" gradientUnits="userSpaceOnUse">
      <stop offset="0" stop-color="#27b3de" stop-opacity="0"/>
      <stop offset="1" stop-color="#0096c4"/>
    </radialGradient>
  </defs>
</svg>
