<svg viewBox="0 0 1280 640" xmlns="http://www.w3.org/2000/svg" xmlns:xlink="http://www.w3.org/1999/xlink">
  <rect width="1280" height="640" fill="#d7effe"/>
  <g stroke="#212121" stroke-width="5">
    <rect x="30" y="145" width="400" height="350" fill="#4385f5"/>
    <rect x="460" y="145" width="450" height="350" fill="#073042"/>
    <rect x="940" y="145" width="310" height="350" fill="#3ddc84"/>
  </g>
  <g>
    <path d="M297.9 361c-6.8 0-12.3-5.5-12.3-12.3 0-6.7 5.5-12.2 12.3-12.2 6.7 0 12.2 5.5 12.2 12.2 0 6.8-5.5 12.3-12.2 12.3m-135.6 0c-6.8 0-12.3-5.5-12.3-12.3 0-6.7 5.5-12.2 12.3-12.2 6.7 0 12.2 5.5 12.2 12.2 0 6.8-5.5 12.3-12.2 12.3m140-73.9l24.5-42.4a5.1 5.1 0 10-8.9-5.1l-24.8 43c-19-8.7-40.3-13.5-63-13.5-22.8 0-44.1 4.8-63 13.5l-24.9-43a5.1 5.1 0 00-8.8 5l24.5 42.5A144.8 144.8 0 0082.8 403h294.6c-4.2-50.4-33-93-75.1-115.9" fill="#3ddc84"/>
  </g>
  <g>
    <path d="M1199 231L1180 443l-85.1 23.6-85-23.5L991 230.9h208z" fill="#264de4"/>
    <path d="M1163.8 429.6l16.2-181.3h-85v200.4l68.8-19z" fill="#2965f1"/>
    <path d="M1127 353l-3 33.8-29 7.8-2.2 14.4 2.1 12.7 53.4-14.8.4-4.4 6-68.5.7-7 4.7-52.7h-72.3v26h43.8l-2.4 26.7h-41.4v26h39.2z" fill="#fff"/>
    <path d="M1034.4 327l2.4 26h58.2v-26h-60.6zM1095 274.3h-65.3l2.4 26h62.9v-26zM1095 421.7v-27h-.1l-29-7.9-1.9-20.8h-26l3.6 41 53.3 14.7h.1z" fill="#ebebeb"/>
    <path d="M1040 173.3h31.5v13.1h-18.3v13.2h18.3v13.2H1040v-39.5zM1077.8 173.3h31.5v11.4H1091v2.3h18.3v26.4h-31.5v-12h18.3V199h-18.3v-25.8zM1115.6 173.3h31.6v11.4h-18.4v2.3h18.4v26.4h-31.6v-12h18.4V199h-18.4v-25.8z"/>
  </g>
  <path d="M60.4 108.2v7.1H27.5V58H36v50.3h24.4zM75.3 74.7v40.6h-7.8V74.7h7.8zM76.7 62a5 5 0 01-.4 2 5.4 5.4 0 01-8.7 1.7 5.5 5.5 0 01-1.6-3.7 5.3 5.3 0 011.6-3.8 5 5 0 013.7-1.6 5.3 5.3 0 013.8 1.6c.5.5 1 1 1.2 1.7.3.7.4 1.4.4 2.1zM93.9 80.3c.9-1 1.8-1.8 2.8-2.5a17.3 17.3 0 016.5-3.3 16.5 16.5 0 019.9.7c1.7.7 3 1.8 4.2 3.1 1.2 1.3 2 3 2.6 4.9.6 1.9 1 4 1 6.2v26h-8v-26c0-2.9-.6-5.1-2-6.7-1.3-1.7-3.3-2.5-6-2.5-2 0-4 .5-5.7 1.5-1.7 1-3.3 2.2-4.8 3.8v29.8h-7.8V74.7h4.7c1 0 1.7.5 2 1.5l.6 4.1zM158.3 90.5c0-1.6-.3-3-.7-4.3-.4-1.3-1-2.4-2-3.4-.8-1-1.8-1.7-3-2.2-1.3-.6-2.7-.8-4.3-.8-3.3 0-5.9 1-7.7 2.8-2 1.9-3.1 4.5-3.6 7.9h21.3zm6.4 19c-1 1.1-2 2.1-3.3 3a24.3 24.3 0 01-12.8 3.5 21 21 0 01-7.8-1.5 17.3 17.3 0 01-10.3-11 27.5 27.5 0 01-.2-17.2 17.4 17.4 0 019.8-10.7c2.4-1 5-1.6 8-1.6 2.5 0 4.8.4 6.9 1.3a15.2 15.2 0 019 9.2c.9 2.3 1.3 4.9 1.3 7.8 0 1.2-.1 2-.4 2.4-.3.4-.8.6-1.5.6h-26.6c0 2.4.4 4.6 1 6.4.6 1.8 1.5 3.3 2.6 4.5 1 1.2 2.3 2 3.8 2.6a15 15 0 009.5.3 21.9 21.9 0 005.6-2.6c.6-.4 1.2-.6 1.7-.6.6 0 1.1.3 1.5.7l2.2 3zM195.5 97.3c-3.1 0-5.8.3-8 .7-2.3.4-4 1-5.4 1.6a7.3 7.3 0 00-3 2.2c-.7.9-1 1.9-1 3 0 1 .2 1.8.5 2.5a4.9 4.9 0 003.4 2.9 14.1 14.1 0 008.6-1 22.5 22.5 0 004.9-3.8v-8.1zm-22.8-17c2.2-2.1 4.7-3.7 7.3-4.8 2.7-1 5.6-1.6 8.8-1.6 2.3 0 4.4.4 6.1 1.2a12.7 12.7 0 017.3 8c.7 2 1 4 1 6.3v26h-3.5c-.8 0-1.4-.2-1.8-.5-.4-.2-.7-.7-1-1.4l-.8-3.5a33.8 33.8 0 01-6.2 4.4 16.3 16.3 0 01-7.7 1.6 15 15 0 01-4.5-.7 9.6 9.6 0 01-6.1-5.4c-.6-1.4-1-3-1-4.8a9 9 0 011.4-4.6c.8-1.5 2.2-2.8 4.2-4 2-1.2 4.5-2.1 7.7-2.9 3.1-.7 7-1.1 11.6-1.2v-3c0-3-.6-5.4-2-6.9-1.2-1.5-3.1-2.3-5.7-2.3a12.5 12.5 0 00-7.3 2.1l-2.2 1.4c-.6.4-1.3.7-2 .7-.5 0-1-.2-1.3-.5l-1-1-1.3-2.5zM221 82.5c1.3-2.7 2.9-4.8 4.7-6.3a10 10 0 016.7-2.3c.9 0 1.7.1 2.5.3.8.2 1.5.5 2 1l-.5 5.8c-.2.7-.6 1-1.3 1l-1.7-.1c-.7-.2-1.5-.3-2.4-.3-1.2 0-2.3.2-3.3.6-1 .3-1.8.9-2.6 1.6-.7.7-1.4 1.6-2 2.6a26 26 0 00-1.6 3.5v25.4h-7.8V74.7h4.4c.9 0 1.5.1 1.8.4.3.3.5.9.6 1.7l.5 5.7zM276.7 108.2v7.1H244V58h8.5v50.3h24.3zM305.3 97.3c-3.2 0-5.9.3-8 .7-2.3.4-4 1-5.5 1.6a7.3 7.3 0 00-3 2.2c-.6.9-.9 1.9-.9 3 0 1 .2 1.8.5 2.5a4.9 4.9 0 003.4 2.9 14.1 14.1 0 008.6-1 22.5 22.5 0 004.9-3.8v-8.1zm-22.9-17a23.2 23.2 0 0116.1-6.4c2.4 0 4.4.4 6.2 1.2a12.7 12.7 0 017.3 8c.6 2 1 4 1 6.3v26h-3.5c-.8 0-1.4-.2-1.8-.5-.4-.2-.7-.7-1-1.4l-.8-3.5a33.8 33.8 0 01-6.3 4.4 16.3 16.3 0 01-7.7 1.6 15 15 0 01-4.5-.7 9.6 9.6 0 01-6.1-5.4c-.6-1.4-.9-3-.9-4.8a9 9 0 011.3-4.6c.9-1.5 2.3-2.8 4.3-4 2-1.2 4.5-2.1 7.6-2.9 3.2-.7 7-1.1 11.7-1.2v-3c0-3-.7-5.4-2-6.9s-3.2-2.3-5.7-2.3a12.5 12.5 0 00-7.3 2.1l-2.2 1.4c-.6.4-1.3.7-2 .7-.5 0-1-.2-1.3-.5l-1-1-1.4-2.5zM357.9 74.7L335.3 127c-.2.6-.5 1-1 1.4-.3.3-1 .5-1.7.5h-5.8l7.5-16.2-16.7-38.1h6.8c.6 0 1.2.1 1.5.5.4.3.7.6.8 1l10.4 24.4a76.5 76.5 0 011 3.8 45.6 45.6 0 011.4-3.8l10-24.4c.1-.4.4-.8.8-1 .4-.4.9-.5 1.4-.5h6.2zM380 74c3 0 5.7.5 8.1 1.5 2.4 1 4.5 2.4 6.2 4.2 1.7 1.8 3 4 3.9 6.6a26 26 0 011.3 8.7c0 3.2-.4 6-1.3 8.6-1 2.6-2.2 4.8-4 6.6a17 17 0 01-6 4.2c-2.5 1-5.2 1.5-8.2 1.5-3 0-5.7-.5-8.1-1.5a17.2 17.2 0 01-10.1-10.8c-1-2.5-1.4-5.4-1.4-8.6 0-3.2.4-6.1 1.4-8.7a17 17 0 0110.1-10.8c2.4-1 5.1-1.5 8.1-1.5zm0 35.8c3.9 0 6.7-1.3 8.6-3.9 2-2.6 2.9-6.2 2.9-10.9s-1-8.3-2.9-11c-1.9-2.5-4.7-3.8-8.6-3.8-3.9 0-6.8 1.3-8.7 3.9-1.9 2.6-2.8 6.2-2.8 10.9s1 8.3 2.8 11c2 2.5 4.8 3.8 8.7 3.8zM442 74.7v40.6h-4.7c-1 0-1.7-.5-2-1.5l-.6-4.1c-.9 1-1.8 1.8-2.8 2.5a17.1 17.1 0 01-10.5 3.8c-2.2 0-4.2-.4-5.9-1.2-1.7-.7-3-1.8-4.2-3.1-1.2-1.3-2-3-2.6-4.9-.6-1.9-1-4-1-6.2v-26h8v26c0 2.9.6 5.1 2 6.7 1.3 1.7 3.3 2.5 6 2.5 2 0 4-.5 5.6-1.5 1.8-.9 3.4-2.2 5-3.9V74.7h7.7zM465.7 116c-3.3 0-5.8-1-7.6-2.8-1.8-1.8-2.7-4.5-2.7-7.9V81h-4.7c-.5 0-.8-.1-1.1-.4-.3-.3-.5-.7-.5-1.3v-3.1l6.6-1 1.8-12c0-.5.3-.9.6-1.1.3-.3.7-.4 1.2-.4h4v13.6h11.4V81h-11.5v23.8c0 1.6.4 2.8 1.2 3.6a4 4 0 003 1.2c.7 0 1.4-.1 1.9-.3l1.3-.6 1-.7.7-.2.6.1.5.6 2.3 3.8a16 16 0 01-10 3.7zM991.6 518.7v19.2h23v7h-23v24.3H983v-57.4h35.6v6.9h-27z" fill="#212121"/>
  <rect x="1026.2" y="510.2" width="7.8" height="59" fill="#212121"/>
  <path d="M1072 544.4c0-1.6-.2-3-.6-4.3-.5-1.3-1.1-2.5-2-3.4-.8-1-1.9-1.7-3-2.3-1.3-.5-2.7-.8-4.3-.8-3.3 0-5.9 1-7.8 2.9-1.8 1.9-3 4.5-3.5 7.9h21.2zm6.5 19c-1 1.1-2 2-3.3 2.9-1.3.8-2.6 1.5-4 2a24.3 24.3 0 01-8.9 1.5 21 21 0 01-7.8-1.5 17.3 17.3 0 01-10.2-11 27.5 27.5 0 01-.2-17.2 17.4 17.4 0 019.8-10.7c2.4-1 5-1.5 8-1.5 2.5 0 4.8.4 6.9 1.2a15.2 15.2 0 019 9.3c.8 2.3 1.3 4.9 1.3 7.8 0 1.2-.2 2-.4 2.4-.3.4-.8.6-1.5.6h-26.6c0 2.4.4 4.5 1 6.3.6 1.8 1.5 3.3 2.5 4.5 1.1 1.2 2.4 2.1 3.9 2.7a15 15 0 009.5.3 21.9 21.9 0 005.6-2.6c.6-.4 1.2-.6 1.7-.6.6 0 1 .2 1.4.7l2.3 2.9zM1121 569.2h-7.5a2 2 0 01-1.5-.5l-.8-1-9.8-15.5a59.2 59.2 0 01-1 2.2l-9 13.2c-.2.4-.5.8-.9 1.1-.3.3-.8.5-1.3.5h-7l14.2-21-13.6-19.6h7.5c.6 0 1 0 1.3.2l.8.9 9.6 14.8a17.5 17.5 0 011-2.4l8.4-12.3c.4-.8 1-1.2 1.9-1.2h7.1l-13.6 19.3 14.2 21.3zM1135 559.2a11 11 0 004.2 3.5c1.5.7 3.1 1 4.9 1 3.6 0 6.4-1.3 8.4-3.9 2-2.5 2.9-6.5 2.9-11.7 0-4.8-.9-8.3-2.6-10.6a8.7 8.7 0 00-7.4-3.4c-2.2 0-4.1.5-5.8 1.5-1.6 1-3.1 2.5-4.6 4.4v19.2zm0-25a21 21 0 015.8-4.6c2-1.1 4.5-1.7 7.2-1.7 2.4 0 4.6.5 6.5 1.4 1.9 1 3.5 2.2 4.8 4 1.4 1.7 2.4 3.8 3.1 6.2.7 2.5 1 5.3 1 8.3a31 31 0 01-1.1 9c-.9 2.7-2 5-3.5 7a15.6 15.6 0 01-12.8 6 16 16 0 01-3.6-.4 12.7 12.7 0 01-7.8-5.2l-.3 3.4c-.2 1-.9 1.6-2 1.6h-5v-59h7.7v24zM1189.5 528c3 0 5.7.4 8.1 1.4 2.4 1 4.5 2.4 6.2 4.2 1.7 1.8 3 4 3.9 6.6a26 26 0 011.3 8.6c0 3.2-.4 6.1-1.3 8.7-1 2.6-2.2 4.8-4 6.6a17 17 0 01-6 4.2c-2.5 1-5.2 1.5-8.2 1.5-3 0-5.7-.5-8.1-1.5a17.2 17.2 0 01-10.1-10.8c-1-2.6-1.4-5.5-1.4-8.7 0-3.2.4-6 1.4-8.6a17 17 0 0110.1-10.8c2.4-1 5.1-1.5 8.1-1.5zm0 35.7c3.9 0 6.7-1.3 8.6-3.9 2-2.6 2.9-6.2 2.9-11 0-4.6-1-8.3-2.9-10.9-1.9-2.6-4.7-3.9-8.6-3.9-3.9 0-6.8 1.3-8.7 4-1.9 2.5-2.8 6.2-2.8 10.9s1 8.3 2.8 10.9c2 2.6 4.8 3.9 8.7 3.9zM1250 569.2h-7.5a2 2 0 01-1.5-.5l-.8-1-9.8-15.5a59.2 59.2 0 01-1 2.2l-9 13.2c-.2.4-.5.8-.9 1.1-.3.3-.8.5-1.3.5h-7l14.2-21-13.6-19.6h7.5c.6 0 1 0 1.3.2l.8.9 9.6 14.8a17.5 17.5 0 011-2.4l8.4-12.3c.4-.8 1-1.2 1.9-1.2h7.1l-13.6 19.3 14.2 21.3z" fill="#212121"/>
  <path d="M638.4 387.9c-6.8 0-12-1.9-15.8-5.6-3.8-3.7-5.7-9.5-5.7-17.3v-68h-14.2c-.8 0-1.4-.2-1.8-.6-.5-.4-.7-1-.7-1.7V291l17-1.2 2.4-35.6c0-.6.4-1.1.8-1.6s1-.7 1.7-.7h4.5v38H658v7.1h-31.4v67.5c0 2.7.3 5 1 7s1.7 3.6 2.9 4.9c1.2 1.3 2.7 2.2 4.3 2.8 1.7.6 3.5.9 5.5.9 2.4 0 4.4-.3 6.2-1a25.7 25.7 0 007.6-4.7c.8-.6 1.4-1 1.9-1s1 .3 1.6 1l2.6 4.2a30.1 30.1 0 01-21.8 9.3zM718.8 285.2c7 0 13.5 1.2 19.1 3.6a39 39 0 0114.3 10.4c3.8 4.5 6.8 9.8 8.8 16.1 2 6.3 3 13.4 3 21.2 0 7.8-1 14.8-3 21.1-2 6.3-5 11.6-8.8 16.1a38.5 38.5 0 01-14.3 10.3c-5.6 2.4-12 3.6-19.1 3.6-7.2 0-13.6-1.2-19.2-3.6a39 39 0 01-14.3-10.3 45.5 45.5 0 01-8.9-16.1c-2-6.3-3-13.3-3-21.1 0-7.8 1-14.9 3-21.2 2-6.3 5-11.6 8.9-16.1 3.9-4.5 8.7-8 14.3-10.3 5.6-2.5 12-3.7 19.1-3.7zm0 94.9c5.9 0 11-1 15.5-3 4.4-2 8.1-5 11.1-8.8 3-3.8 5.2-8.4 6.7-13.8a68.5 68.5 0 002.1-18c0-6.6-.7-12.6-2.2-18a39 39 0 00-6.6-13.8c-3-3.9-6.7-6.8-11.1-8.9-4.4-2-9.6-3.1-15.6-3.1-5.9 0-11 1-15.5 3.1-4.4 2-8.1 5-11.1 8.8-3 3.9-5.2 8.5-6.7 13.9a67.2 67.2 0 00-2.3 18 67 67 0 002.3 18c1.5 5.4 3.7 10 6.7 13.8 3 3.8 6.7 6.7 11.1 8.8 4.4 2 9.6 3 15.6 3z" fill="#fff"/>
</svg>
