<svg xmlns:svg="http://www.w3.org/2000/svg" xmlns="http://www.w3.org/2000/svg" width="512" height="512" version="1.1">
	<path d="M110.6 72.5C82.4 72.5 64 91 64 115.3c0 23.8 17.9 42.8 45.5 42.8l0.5 0c28.7 0 46.6-19 46.6-42.8C156.1 91 138.7 72.5 110.6 72.5Zm242.7 113.6c-43.7 0-63.2 24-74.2 40.9l0 0.8-0.5 0c0.2-0.3 0.4-0.6 0.5-0.8l0-35.1-82.3 0c1.1 23.2 0 247.6 0 247.6l82.3 0 0-138.3c0-7.4 0.5-14.8 2.7-20.1 6-14.8 19.5-30.1 42.2-30.1 29.8 0 41.7 22.7 41.7 56l0 132.5 82.3 0 0-142C448 221.5 407.4 186.1 353.2 186.1Zm-284.4 5.8 0 247.6 82.3 0 0-247.6-82.3 0z" fill="#fff"/>
</svg>