<svg viewBox="0 0 188 94" xmlns="http://www.w3.org/2000/svg">
  <rect width="188" height="94" fill="#fff"/>
  <path d="M56.1 55.8C53.5 54.5 52 51 52 47c0-4.2 1.6-7.5 4.4-8.8 1.8-.9 2.5-.2.7.9-.7.4-1.7 1.5-2.2 2.4-.7 1.4-.8 2.1-.8 5.5s.1 4.2.8 5.6A7 7 0 0 0 57 55c.7.4 1.2.9 1 1-.2.5-.4.5-1.9-.2Zm18 0c0-.3.2-.5.4-.5.8 0 2.4-2 3-3.5.9-1.9.9-7.7 0-9.6-.6-1.6-2.2-3.4-3-3.4-.2 0-.5-.3-.5-.6 0-1.3 2.7 0 4.3 2.1 1 1.5 2.1 4.7 2.1 6.7s-1 5.3-2.1 6.7c-1.6 2-4.3 3.4-4.3 2.1Zm-35.3-.1c0-.2.4-.5.9-.6.5-.1 1-.5 1.1-.8.3-.7 2.5-10.2 2.5-10.7 0-.2-.3-.3-.8-.3-1 0-.9-.7.2-1 .5-.1 1-.7 1.3-1.5.7-2 2.4-3.2 4.4-3.2 1.4 0 1.6.2 1.6.8 0 1-1 1.4-1.6.6-.4-.6-.6-.6-1.3-.3-.4.3-.9.8-1 1.3l-.4 1.5c-.2.5 0 .6 1.1.6 1 0 1.3.2 1.1.6-.1.3-.7.6-1.4.6h-1.2l-1.2 5.3c-1 4.3-1.3 5.5-2.2 6.4-1 1-3.1 1.5-3.1.7Zm22-5-.5-4.2c-.1-1.9-.4-3.3-.8-3.7-.5-.6-.5-.7 1-.7H62l.2 3.8.3 3.8 1-1.8c.7-1 1.4-2.7 1.8-3.8.5-1.7.7-2 1.4-1.9.7.1.8.4 1 3.1.5 4.9.4 4.8 1.8 2.4 1.4-2.6 1.8-4.2 1.2-5-.4-.5-.3-.6 1-.6.9 0 1.6.2 1.6.4 0 .8-1.4 3.4-3.2 6.3-2.5 3.8-3.3 4-3.7 1.1l-.2-3.3c0-1.2-.1-1.2-1.6 1.5-1.8 3.5-2 3.8-3 3.8-.4 0-.7-.4-.8-1.2Zm49.9 1-.5-4c-.1-1.9-.4-4-.7-4.5l-.5-1h3v2.1c0 1.2 0 2.8.2 3.7l.3 1.5 1.3-2.5c.7-1.3 1.3-3 1.5-3.5.1-.8.5-1.2 1-1.3.9-.1.9-.1 1.5 5.4l.2 2.2.9-1.5c1.6-2.6 2.2-4.6 1.7-5.4-.4-.7-.3-.8.9-.8.7 0 1.3.2 1.4.3.3.5-1.3 3.8-3.3 6.9-2.5 3.9-3.5 3.4-3.6-1.8 0-1.9-.3-2-1-.6-1.2 2.8-2.8 5-3.4 5-.4 0-.8-.1-1-.3Zm16-.4c-2.8-2-3.1-9-.5-11.8 1.4-1.5 4-1.6 5.4-.2 2.4 2.4 2.3 9.5-.3 11.7-1.3 1-3.4 1.2-4.7.3Zm3.9-1.7c.6-1.3.6-7.1-.1-8.8-.4-1-.7-1.3-1.7-1.3-.8 0-1.2.3-1.6.9-.6 1.1-.6 7.6 0 9.2.5 1 .7 1.2 1.7 1 .8 0 1.3-.3 1.7-1Zm5.8-2a20 20 0 0 0-.9-5c-.3-.4-.2-.5.9-.5 1.5 0 1.8.5 1.8 4s.4 3.6 2 .5c.7-1.5 1.3-3 1.3-3.6 0-.7.2-.9 1-.9.7 0 .8.3 1 1.8l.3 3c0 2.4.5 2.6 1.6.8l1.4-3c.4-1.4.4-1.6-.2-2-.6-.5-.5-.6.8-.6.8 0 1.6.1 1.7.3.7.7-4.6 9.5-5.7 9.5-.8 0-1.1-.7-1.1-2.8 0-3.4-.3-3.5-2.2-.2-1.3 2.3-1.9 3-2.5 3-.8 0-.8-.3-1.2-4.4ZM89 47.3c0-.7.3-.8 6.2-.8 6 0 6.2 0 6.2.8 0 .7-.2.7-6.2.7s-6.2 0-6.2-.7Zm0-4.5c0-.7.3-.8 6.2-.8 6 0 6.2 0 6.2.8 0 .7-.2.7-6.2.7s-6.2 0-6.2-.7Z" style="fill-rule:nonzero"/>
</svg>
