<?xml version="1.0" encoding="UTF-8" standalone="no"?><!DOCTYPE svg PUBLIC "-//W3C//DTD SVG 1.1//EN" "http://www.w3.org/Graphics/SVG/1.1/DTD/svg11.dtd"><svg width="100%" height="100%" viewBox="0 0 320 320" version="1.1" xmlns="http://www.w3.org/2000/svg" xmlns:xlink="http://www.w3.org/1999/xlink" xml:space="preserve" xmlns:serif="http://www.serif.com/" style="fill-rule:evenodd;clip-rule:evenodd;stroke-linejoin:round;stroke-miterlimit:2;"><g><path d="M270.303,144.978l-198.897,114.824l49.715,28.706l198.879,-114.824l-0,-21.529l-49.715,-7.177l0.018,0Z" style="fill:#6b7a90;"/><path d="M121.139,266.979l-49.716,-28.706l0,21.529l49.716,28.706l-0,-21.529Z" style="fill:#495867;"/><path d="M270.303,123.448l-198.897,114.825l49.715,28.706l198.879,-114.824l-49.715,-28.707l0.018,0Zm-40.189,84.181c0.83,-0.954 1.805,-1.771 2.889,-2.422c3.803,-2.189 6.889,-0.413 6.889,3.983c-0.266,4.838 -2.829,9.269 -6.889,11.913c-1.023,0.592 -2.01,0.897 -2.889,0.933c-0.837,0.949 -1.818,1.76 -2.906,2.404c-0.897,0.563 -1.922,0.89 -2.979,0.951c-0.85,0.993 -1.856,1.841 -2.978,2.512c-0.905,0.553 -1.936,0.868 -2.996,0.915c-0.851,0.992 -1.856,1.84 -2.978,2.511c-1.023,0.61 -2.01,0.897 -2.889,0.933c-0.836,0.955 -1.817,1.772 -2.906,2.422c-3.804,2.189 -6.89,0.413 -6.89,-3.965c0.267,-4.838 2.829,-9.269 6.89,-11.913c1.022,-0.61 2.009,-0.897 2.906,-0.933c0.83,-0.953 1.805,-1.77 2.889,-2.422c1.076,-0.61 2.081,-0.915 2.978,-0.933c0.851,-0.992 1.857,-1.84 2.978,-2.511c1.077,-0.61 2.081,-0.915 2.996,-0.933c0.852,-0.992 1.857,-1.841 2.979,-2.512c1.04,-0.592 2.009,-0.897 2.906,-0.933Z" style="fill:#5a6c7e;"/><g><clipPath id="_clip1"><path d="M230.114,207.629c0.83,-0.954 1.805,-1.771 2.889,-2.422c3.803,-2.189 6.889,-0.413 6.889,3.983c-0.266,4.838 -2.829,9.269 -6.889,11.913c-1.023,0.592 -2.01,0.897 -2.889,0.933c-0.837,0.949 -1.818,1.76 -2.906,2.404c-0.897,0.563 -1.922,0.89 -2.979,0.951c-0.85,0.993 -1.856,1.841 -2.978,2.512c-0.905,0.553 -1.936,0.868 -2.996,0.915c-0.851,0.992 -1.856,1.84 -2.978,2.511c-1.023,0.61 -2.01,0.897 -2.889,0.933c-0.836,0.955 -1.817,1.772 -2.906,2.422c-3.804,2.189 -6.89,0.413 -6.89,-3.965c0.267,-4.838 2.829,-9.269 6.89,-11.913c1.022,-0.61 2.009,-0.897 2.906,-0.933c0.83,-0.953 1.805,-1.77 2.889,-2.422c1.076,-0.61 2.081,-0.915 2.978,-0.933c0.851,-0.992 1.857,-1.84 2.978,-2.511c1.077,-0.61 2.081,-0.915 2.996,-0.933c0.852,-0.992 1.857,-1.841 2.979,-2.512c1.04,-0.592 2.009,-0.897 2.906,-0.933Z"/></clipPath><g clip-path="url(#_clip1)"><path d="M229.45,207.234c0.837,-0.949 1.818,-1.76 2.907,-2.404c3.785,-2.189 6.871,-0.413 6.871,3.965c-0.266,4.838 -2.829,9.269 -6.889,11.913c-1.023,0.61 -2.01,0.897 -2.889,0.933c-0.836,0.955 -1.816,1.772 -2.906,2.422c-1.077,0.61 -2.081,0.915 -2.978,0.933c-0.852,0.992 -1.857,1.84 -2.979,2.512c-1.076,0.61 -2.081,0.915 -2.978,0.933c-0.857,0.993 -1.868,1.841 -2.996,2.512c-1.023,0.592 -2.01,0.897 -2.907,0.933c-0.83,0.953 -1.804,1.771 -2.888,2.422c-3.804,2.189 -6.89,0.412 -6.89,-3.983c0.267,-4.838 2.829,-9.269 6.89,-11.913c1.04,-0.592 2.009,-0.897 2.906,-0.933c0.832,-0.947 1.806,-1.759 2.889,-2.404c1.076,-0.628 2.081,-0.933 2.978,-0.951c0.857,-0.994 1.869,-1.842 2.996,-2.512c1.077,-0.61 2.064,-0.897 2.979,-0.915c0.851,-0.992 1.856,-1.84 2.978,-2.512c1.04,-0.592 2.027,-0.897 2.906,-0.933l0,-0.018Z" style="fill:#fff;"/><path d="M208.818,218.412c3.785,-2.189 6.871,-0.413 6.871,3.983c-0.262,4.835 -2.817,9.265 -6.871,11.913c-3.804,2.189 -6.89,0.412 -6.89,-3.983c0.267,-4.838 2.829,-9.269 6.89,-11.913Z" style="fill:#fdb100;fill-opacity:0.5;"/><path d="M214.613,215.075c3.803,-2.207 6.889,-0.413 6.889,3.947c-0.261,4.844 -2.824,9.283 -6.889,11.931c-3.786,2.188 -6.872,0.412 -6.872,-3.983c0.268,-4.829 2.823,-9.251 6.872,-11.895Z" style="fill:#f60;fill-opacity:0.5;"/><path d="M220.587,211.63c3.786,-2.189 6.872,-0.413 6.872,3.965c-0.263,4.835 -2.818,9.265 -6.872,11.913c-3.803,2.189 -6.889,0.413 -6.889,-3.965c0.266,-4.838 2.829,-9.269 6.889,-11.913Z" style="fill:#f0f;fill-opacity:0.5;"/><path d="M226.544,208.185c3.785,-2.189 6.871,-0.412 6.871,3.965c-0.262,4.835 -2.817,9.265 -6.871,11.913c-3.804,2.189 -6.872,0.413 -6.872,-3.965c0.263,-4.835 2.818,-9.265 6.872,-11.913Z" style="fill:#00f;fill-opacity:0.5;"/><path d="M232.339,204.83c3.803,-2.189 6.889,-0.413 6.889,3.965c-0.266,4.838 -2.829,9.269 -6.889,11.913c-3.786,2.207 -6.872,0.413 -6.872,-3.965c0.267,-4.838 2.829,-9.269 6.89,-11.913l-0.018,0Z" style="fill:#0f0;fill-opacity:0.5;"/></g></g><path d="M292.047,137.801l3.104,1.795l-1.543,3.588l-3.103,-1.794l1.542,-3.589Z" style="fill:#beeaf8;"/><path d="M285.84,141.39l4.665,-0l1.489,-3.553l-6.154,3.553Z" style="fill:#404c59;"/><path d="M285.84,141.39l3.104,1.794l4.664,-0l-3.103,-1.794l-4.665,-0Z" style="fill:#495867;"/><path d="M293.608,143.184l-47.275,37.318l-15.663,3.498l-13.222,-19.287l10.101,-35.434l17.887,-18.389l20.202,-2.692l26.409,29.603l-1.542,3.589l3.103,1.794Z" style="fill:url(#_Radial2);"/><g><path d="M236.896,142.735l1.543,0.897l1.561,-2.691l-6.997,-30.051l-1.543,-0.897l-3.104,1.794l8.54,30.948Z" style="fill:#9d3536;"/><path d="M238.439,143.632l3.122,-1.794l-8.558,-30.948l-3.104,1.794l8.558,30.948l-0.018,0Z" style="fill:#e74b3d;"/><path d="M242.852,136.599c3.302,-1.901 5.975,-0.358 5.975,3.463c-0.227,4.212 -2.447,8.074 -5.975,10.388c-3.283,1.902 -5.974,0.359 -5.974,-3.463c0.226,-4.212 2.447,-8.074 5.974,-10.388Z" style="fill:#8c8c8c;"/><path d="M242.852,136.599c3.302,-1.901 5.975,-0.358 5.975,3.463c-0.227,4.212 -2.447,8.074 -5.975,10.388c-3.283,1.902 -5.974,0.359 -5.974,-3.463c0.226,-4.212 2.447,-8.074 5.974,-10.388Z" style="fill:#31beea;"/><path d="M253.061,113.635l-0.897,0.287l-5.526,32.186l0.897,-0.287l5.526,-32.186Z"/><path d="M253.061,113.635l-0.897,0.287l-5.526,32.186l0.897,-0.287l5.526,-32.186Z" style="fill:#1396bf;"/><path d="M243.086,118.963l-0.897,0.718l4.431,26.625l0.897,-0.718l-4.431,-26.625Z"/><path d="M243.086,118.963l-0.897,0.718l4.431,26.625l0.897,-0.718l-4.431,-26.625Z" style="fill:#1396bf;"/><path d="M232.769,129.638l-0.753,1.041l14.694,15.788l0.753,-1.04l-14.694,-15.789Z"/><path d="M232.769,129.638l-0.753,1.041l14.694,15.788l0.753,-1.04l-14.694,-15.789Z" style="fill:#1396bf;"/><path d="M225.736,141.928l-0.502,1.184l21.601,3.445l0.485,-1.184l-21.584,-3.427l0,-0.018Z"/><path d="M225.736,141.928l-0.502,1.184l21.601,3.445l0.485,-1.184l-21.584,-3.427l0,-0.018Z" style="fill:#1396bf;"/><path d="M221.933,154.846l-0.144,1.13l25.208,-9.455l0.161,-1.13l-25.207,9.455l-0.018,-0Z"/><path d="M221.933,154.846l-0.144,1.13l25.208,-9.455l0.161,-1.13l-25.207,9.455l-0.018,-0Z" style="fill:#1396bf;"/><path d="M221.987,166.4l0.197,0.915l24.992,-20.902l-0.179,-0.915l-25.01,20.902Z"/><path d="M221.987,166.4l0.197,0.915l24.992,-20.902l-0.179,-0.915l-25.01,20.902Z" style="fill:#1396bf;"/><path d="M225.844,174.832l0.538,0.574l20.956,-29.172l-0.538,-0.556l-20.956,29.154Z"/><path d="M225.844,174.832l0.538,0.574l20.956,-29.172l-0.538,-0.556l-20.956,29.154Z" style="fill:#1396bf;"/><path d="M233.882,179.031l0.789,0.071l12.81,-33.101l-0.807,-0.072l-12.792,33.102Z"/><path d="M233.882,179.031l0.789,0.071l12.81,-33.101l-0.807,-0.072l-12.792,33.102Z" style="fill:#1396bf;"/><path d="M242.189,177.918l0.897,-0.341l4.449,-31.792l-0.897,0.341l-4.449,31.792Z"/><path d="M242.189,177.918l0.897,-0.341l4.449,-31.792l-0.897,0.341l-4.449,31.792Z" style="fill:#1396bf;"/><path d="M252.182,172.069l0.897,-0.735l-5.562,-25.746l-0.897,0.736l5.562,25.763l-0,-0.018Z"/><path d="M252.182,172.069l0.897,-0.735l-5.562,-25.746l-0.897,0.736l5.562,25.763l-0,-0.018Z" style="fill:#1396bf;"/><path d="M261.404,162.273l0.735,-1.04l-14.676,-15.789l-0.753,1.041l14.676,15.788l0.018,0Z"/><path d="M261.404,162.273l0.735,-1.04l-14.676,-15.789l-0.753,1.041l14.676,15.788l0.018,0Z" style="fill:#1396bf;"/><path d="M269.029,148.53l0.448,-1.184l-22.175,-1.973l-0.449,1.184l22.176,1.973Z"/><path d="M269.029,148.53l0.448,-1.184l-22.175,-1.973l-0.449,1.184l22.176,1.973Z" style="fill:#1396bf;"/><path d="M272.204,137.084l0.18,-1.148l-25.226,9.455l-0.161,1.13l25.207,-9.455l0,0.018Z"/><path d="M272.204,137.084l0.18,-1.148l-25.226,9.455l-0.161,1.13l25.207,-9.455l0,0.018Z" style="fill:#1396bf;"/><path d="M272.169,125.512l-0.18,-0.915l-25.01,20.901l0.197,0.915l24.993,-20.901Z"/><path d="M272.169,125.512l-0.18,-0.915l-25.01,20.901l0.197,0.915l24.993,-20.901Z" style="fill:#1396bf;"/><path d="M268.311,117.079l-0.538,-0.574l-20.956,29.173l0.539,0.556l20.955,-29.155Z"/><path d="M268.311,117.079l-0.538,-0.574l-20.956,29.173l0.539,0.556l20.955,-29.155Z" style="fill:#1396bf;"/><path d="M261.224,113.043l-0.771,-0.144l-13.761,33.012l0.771,0.108l13.761,-32.994l0,0.018Z"/><path d="M261.224,113.043l-0.771,-0.144l-13.761,33.012l0.771,0.108l13.761,-32.994l0,0.018Z" style="fill:#1396bf;"/><path d="M247.087,139.039c3.283,-1.919 5.974,-0.358 5.974,3.463c-0.232,4.206 -2.452,8.06 -5.974,10.37c-3.302,1.92 -5.975,0.359 -5.975,-3.445c0.221,-4.218 2.443,-8.088 5.975,-10.405l-0,0.017Z" style="fill:#8c8c8c;"/><path d="M247.087,139.039c3.283,-1.919 5.974,-0.358 5.974,3.463c-0.232,4.206 -2.452,8.06 -5.974,10.37c-3.302,1.92 -5.975,0.359 -5.975,-3.445c0.221,-4.218 2.443,-8.088 5.975,-10.405l-0,0.017Z" style="fill:#31beea;"/><path d="M247.087,141.174c2.26,-1.309 4.126,-0.233 4.126,2.405c-0.158,2.904 -1.692,5.566 -4.126,7.158c-2.279,1.31 -4.127,0.251 -4.127,-2.386c0.153,-2.911 1.688,-5.58 4.127,-7.177Z" style="fill:#159ec9;"/><path d="M243.032,109.508c16.255,-9.419 33.496,-0.413 33.496,18.426c0,18.838 -14.066,43.22 -30.321,52.64c-16.236,9.419 -32.617,-1.077 -32.617,-19.897c0,-18.839 13.187,-41.75 29.424,-51.169l0.018,0Zm3.66,7.787c6.208,-3.589 11.787,-4.414 15.86,-2.064c4.091,2.369 4.97,4.127 4.97,11.321c-0,17.26 -12.075,38.287 -26.966,46.899c-6.208,3.606 -10.514,2.637 -14.586,0.269c-4.091,-2.35 -6.172,-7.625 -6.172,-14.837c-0,-17.26 12.021,-32.959 26.894,-41.588Z" style="fill:#107d9e;"/><path d="M247.087,111.84c16.236,-9.419 29.423,-1.776 29.423,17.045c0,18.838 -13.187,41.767 -29.423,51.186c-16.255,9.419 -29.442,1.776 -29.442,-17.044c-0,-18.838 13.187,-41.767 29.424,-51.187l0.018,0Zm2.476,4.27c6.207,-3.588 11.787,-4.413 15.86,-2.045c4.072,2.35 6.153,7.625 6.153,14.838c0,17.241 -12.074,38.268 -26.965,46.898c-6.226,3.588 -11.788,4.414 -15.86,2.063c-4.091,-2.368 -6.172,-7.643 -6.172,-14.855c-0,-17.242 12.092,-38.269 26.984,-46.899Z" style="fill:#1396bf;"/><g><path d="M182.516,166.615l-52.03,35.614l25.638,-55.887l0,-5.383l3.876,-2.26l-3.122,-1.795l-3.893,2.243l-0,5.382l-27.953,61.001l0,3.588l3.122,1.794l-0,-1.794l51.258,-34.985l3.14,-2.71l-0.036,-4.79l-0,-0.018Z" style="fill:#9d3536;"/><path d="M132.047,205.117l27.953,-61.036l-0,-5.382l-3.894,2.242l0,5.383l-27.952,61l-0,3.588l3.875,-2.242l50.523,-34.519l-0.018,-3.589l-50.505,34.555l0.018,0Z" style="fill:#e74b3d;"/></g><g><path d="M129.428,202.085c3.301,-1.902 5.974,-0.359 5.974,3.463c-0.226,4.212 -2.447,8.074 -5.974,10.388c-3.302,1.902 -5.975,0.359 -5.975,-3.463c0.227,-4.212 2.448,-8.074 5.975,-10.388Z" style="fill:#8c8c8c;"/><path d="M129.428,202.085c3.301,-1.902 5.974,-0.359 5.974,3.463c-0.226,4.212 -2.447,8.074 -5.974,10.388c-3.302,1.902 -5.975,0.359 -5.975,-3.463c0.227,-4.212 2.448,-8.074 5.975,-10.388Z" style="fill:#6e7d7c;"/><path d="M139.636,179.12l-0.897,0.305l-5.544,32.169l0.897,-0.287l5.562,-32.169l-0.018,-0.018Z"/><path d="M139.636,179.12l-0.897,0.305l-5.544,32.169l0.897,-0.287l5.562,-32.169l-0.018,-0.018Z" style="fill:#6e7d7c;"/><path d="M129.661,184.449l-0.897,0.717l4.431,26.643l0.897,-0.717l-4.413,-26.643l-0.018,-0Z"/><path d="M129.661,184.449l-0.897,0.717l4.431,26.643l0.897,-0.717l-4.413,-26.643l-0.018,-0Z" style="fill:#6e7d7c;"/><path d="M119.345,195.124l-0.754,1.058l14.676,15.789l0.754,-1.041l-14.676,-15.788l-0,-0.018Z"/><path d="M119.345,195.124l-0.754,1.058l14.676,15.789l0.754,-1.041l-14.676,-15.788l-0,-0.018Z" style="fill:#6e7d7c;"/><path d="M112.312,207.414l-0.503,1.202l21.602,3.409l0.484,-1.167l-21.583,-3.426l-0,-0.018Z"/><path d="M112.312,207.414l-0.503,1.202l21.602,3.409l0.484,-1.167l-21.583,-3.426l-0,-0.018Z" style="fill:#6e7d7c;"/><path d="M108.508,220.331l-0.143,1.149l25.207,-9.455l0.162,-1.149l-25.226,9.455Z"/><path d="M108.508,220.331l-0.143,1.149l25.207,-9.455l0.162,-1.149l-25.226,9.455Z" style="fill:#6e7d7c;"/><path d="M108.544,231.886l0.215,0.933l24.993,-20.902l-0.198,-0.933l-24.992,20.902l-0.018,-0Z"/><path d="M108.544,231.886l0.215,0.933l24.993,-20.902l-0.198,-0.933l-24.992,20.902l-0.018,-0Z" style="fill:#6e7d7c;"/><path d="M112.419,240.318l0.539,0.574l20.955,-29.154l-0.538,-0.575l-20.956,29.155Z"/><path d="M112.419,240.318l0.539,0.574l20.955,-29.154l-0.538,-0.575l-20.956,29.155Z" style="fill:#6e7d7c;"/><path d="M120.457,244.516l0.789,0.072l12.811,-33.102l-0.808,-0.071l-12.792,33.101Z"/><path d="M120.457,244.516l0.789,0.072l12.811,-33.102l-0.808,-0.071l-12.792,33.101Z" style="fill:#6e7d7c;"/><path d="M128.746,243.404l0.897,-0.341l4.467,-31.792l-0.897,0.359l-4.467,31.774Z"/><path d="M128.746,243.404l0.897,-0.341l4.467,-31.792l-0.897,0.359l-4.467,31.774Z" style="fill:#6e7d7c;"/><path d="M138.739,237.555l0.897,-0.718l-5.544,-25.763l-0.897,0.753l5.562,25.746l-0.018,-0.018Z"/><path d="M138.739,237.555l0.897,-0.718l-5.544,-25.763l-0.897,0.753l5.562,25.746l-0.018,-0.018Z" style="fill:#6e7d7c;"/><path d="M147.961,227.759l0.754,-1.04l-14.694,-15.789l-0.754,1.041l14.694,15.788Z"/><path d="M147.961,227.759l0.754,-1.04l-14.694,-15.789l-0.754,1.041l14.694,15.788Z" style="fill:#6e7d7c;"/><path d="M155.586,214.034l0.467,-1.202l-22.176,-1.974l-0.466,1.185l22.175,1.973l0,0.018Z"/><path d="M155.586,214.034l0.467,-1.202l-22.176,-1.974l-0.466,1.185l22.175,1.973l0,0.018Z" style="fill:#6e7d7c;"/><path d="M158.78,202.57l0.161,-1.149l-25.207,9.455l-0.18,1.149l25.226,-9.455Z"/><path d="M158.78,202.57l0.161,-1.149l-25.207,9.455l-0.18,1.149l25.226,-9.455Z" style="fill:#6e7d7c;"/><path d="M158.744,191.015l-0.198,-0.933l-24.992,20.902l0.18,0.933l25.01,-20.902Z"/><path d="M158.744,191.015l-0.198,-0.933l-24.992,20.902l0.18,0.933l25.01,-20.902Z" style="fill:#6e7d7c;"/><path d="M154.886,182.565l-0.538,-0.574l-20.955,29.172l0.52,0.575l20.973,-29.173Z"/><path d="M154.886,182.565l-0.538,-0.574l-20.955,29.172l0.52,0.575l20.973,-29.173Z" style="fill:#6e7d7c;"/><path d="M147.8,178.528l-0.79,-0.125l-13.743,32.976l0.772,0.125l13.761,-32.994l-0,0.018Z"/><path d="M147.8,178.528l-0.79,-0.125l-13.743,32.976l0.772,0.125l13.761,-32.994l-0,0.018Z" style="fill:#6e7d7c;"/><path d="M133.662,204.525c3.283,-1.92 5.956,-0.359 5.956,3.463c-0.232,4.206 -2.452,8.06 -5.974,10.37c-3.283,1.92 -5.975,0.359 -5.975,-3.445c0.221,-4.219 2.443,-8.088 5.975,-10.406l0.018,0.018Z" style="fill:#8c8c8c;"/><path d="M133.662,204.525c3.283,-1.92 5.956,-0.359 5.956,3.463c-0.232,4.206 -2.452,8.06 -5.974,10.37c-3.283,1.92 -5.975,0.359 -5.975,-3.445c0.221,-4.219 2.443,-8.088 5.975,-10.406l0.018,0.018Z" style="fill:#6e7d7c;"/><path d="M133.662,206.678c2.26,-1.328 4.126,-0.251 4.126,2.386c-0.158,2.905 -1.692,5.566 -4.126,7.159c-2.297,1.31 -4.127,0.251 -4.127,-2.386c0.153,-2.911 1.688,-5.581 4.127,-7.177l-0,0.018Z" style="fill:#525d5d;"/><path d="M129.607,174.994c16.237,-9.419 33.479,-0.395 33.479,18.425c-0,18.839 -14.049,43.239 -30.303,52.64c-16.237,9.419 -32.618,-1.076 -32.618,-19.897c0,-18.838 13.187,-41.749 29.424,-51.168l0.018,-0Zm3.66,7.786c6.208,-3.588 11.788,-4.413 15.86,-2.045c4.073,2.35 4.97,4.109 4.97,11.303c-0,17.26 -12.075,38.287 -26.966,46.899c-6.225,3.606 -10.513,2.637 -14.586,0.269c-4.091,-2.351 -6.172,-7.625 -6.172,-14.838c0,-17.241 12.003,-32.958 26.894,-41.57l0,-0.018Z" style="fill:#19212f;"/><path d="M133.662,177.326c16.237,-9.401 29.424,-1.758 29.424,17.062c-0,18.839 -13.187,41.75 -29.424,51.169c-16.255,9.419 -29.46,1.776 -29.46,-17.044c0,-18.839 13.205,-41.768 29.442,-51.187l0.018,0Zm2.458,4.288c6.225,-3.606 11.787,-4.431 15.86,-2.063c4.09,2.368 6.172,7.625 6.172,14.837c-0,17.26 -12.093,38.269 -26.984,46.899c-6.208,3.588 -11.787,4.413 -15.86,2.063c-4.073,-2.368 -6.154,-7.625 -6.154,-14.837c0,-17.26 12.074,-38.269 26.966,-46.899Z" style="fill:#273746;"/></g><g><path d="M247.768,149.015l1.561,0.897l1.543,-2.691l-6.997,-30.052l-1.543,-0.897l-3.104,1.794l8.54,30.949Z" style="fill:#9d3536;"/><path d="M249.329,149.912l3.104,-1.794l-8.54,-30.949l-3.122,1.794l8.558,30.949Z" style="fill:#e74b3d;"/></g><g><path d="M233.774,106.045l-5.418,3.158l-0,6.172l11.662,6.728l5.418,-9.33l-11.662,-6.71l0,-0.018Z" style="fill:#9d3536;"/><path d="M245.436,112.791l-5.436,3.14l-0,6.172l5.436,-3.14l0,-6.172Z" style="fill:#e74b3d;"/></g><g><path d="M229.899,100.735l-4.468,-2.584l-34.178,72.95l4.468,2.583l34.178,-72.949Z" style="fill:#9d3637;"/><path d="M231.514,95.604l-4.468,-2.584l-66.849,45.786l4.485,2.566l66.832,-45.75l-0,-0.018Z" style="fill:#bf493e;"/><path d="M228.535,98.079l4.486,2.566l4.628,16.632l-4.467,-2.566l-4.647,-16.632Zm-5.095,-17.313l4.467,2.566l3.607,12.272l-4.468,-2.584l-3.606,-12.254Z" style="fill:#9d3536;"/><path d="M187.181,175.03l-27.181,-36.349l-7.087,-3.086l7.087,11.267l24.848,29.639l2.333,-1.471Z" style="fill:#792929;"/><path d="M227.907,83.332l3.607,12.272l-66.85,45.786l-3.121,-5.383l-3.948,2.279l7.069,11.285l24.849,29.621l8.199,-3.068l35.291,-75.479l3.767,13.456l3.158,-1.83l-8.54,-30.949l-3.481,2.01Zm-61.108,60.39l63.1,-42.987l-34.16,72.949l-5.132,-0.215l-23.79,-29.747l-0.018,0Z" style="fill:#e74b3d;"/></g><g><path d="M187.163,173.236l-48.926,33.478l25.638,-55.905l-0,-5.382l3.875,-2.243l-3.122,-1.794l-3.875,2.242l0,5.383l-27.988,61l-0,3.588l3.139,1.795l0,-1.795l51.277,-34.985l-0.018,-5.382Z" style="fill:#9d3536;"/><path d="M139.78,209.585l27.988,-61.019l0,-5.382l-3.893,2.243l-0,5.382l-27.988,61l-0,3.589l3.893,-2.243l50.522,-34.519l-0.018,-3.606l-50.504,34.555Z" style="fill:#e74b3d;"/></g><path d="M153.756,144.081l-17.08,-11.662l-0,-5.382l13.994,-2.691l9.114,0.125l9.617,-5.562l3.014,0.054l6.208,0l-0,5.383l-9.33,5.382l0,5.382l-15.519,8.971l-0.018,-0Z" style="fill:#d19918;"/><path d="M153.756,138.699l-17.08,-11.662l13.994,-8.074l9.114,0.126l9.617,-5.562l3.014,0.054l6.208,3.588l-0,1.794l-9.33,5.383l0,5.382l-15.519,8.971l-0.018,-0Z" style="fill:#f1b11c;"/><path d="M188.383,163.188c7.714,-4.449 15.896,0.252 15.896,9.15c-0,8.917 -6.28,19.772 -13.995,24.221c-7.714,4.468 -15.878,-0.251 -15.878,-9.15c0,-8.917 6.28,-19.771 13.995,-24.221l-0.018,0Z" style="fill:#19212f;"/><path d="M190.302,164.283c7.715,-4.45 13.995,-0.843 13.995,8.073c-0,8.899 -6.28,19.736 -13.995,24.221c-7.714,4.45 -13.994,0.825 -13.994,-8.073c0,-8.917 6.28,-19.754 13.994,-24.221Z" style="fill:#273746;"/><g><path d="M194.303,68.799c-0.879,-0.376 -1.435,-1.579 -1.435,-3.319c0,-2.745 1.399,-5.777 3.122,-6.764c0.664,-0.394 1.274,-0.412 1.794,-0.179l21.494,12.487c0.574,0.574 0.933,1.615 0.933,2.996c-0,2.727 -1.4,5.759 -3.14,6.764c-0.861,0.502 -1.651,0.395 -2.207,-0.179l-20.579,-11.806l0.018,0Z" style="fill:#f1b11c;"/><path d="M215.869,78.488c-0.467,-0.216 -0.79,-0.897 -0.79,-1.866c0,-1.543 0.772,-3.23 1.723,-3.804c0.359,-0.215 0.699,-0.233 0.969,-0.09l19.968,11.752c0.323,0.323 0.538,0.897 0.538,1.686c0,1.525 -0.789,3.23 -1.74,3.786c-0.466,0.287 -0.897,0.233 -1.22,-0.09l-19.448,-11.374Z" style="fill:#d1d9df;"/><path d="M236.376,93.11c-0.862,-0.395 -1.436,-1.597 -1.436,-3.337c0,-2.727 1.4,-5.759 3.14,-6.764c0.646,-0.377 1.256,-0.413 1.776,-0.162l21.494,12.487c0.592,0.557 0.951,1.615 0.951,2.979c-0,2.727 -1.418,5.759 -3.14,6.764c-0.879,0.502 -1.651,0.412 -2.225,-0.18l-20.56,-11.787Z" style="fill:#f1b11c;"/><path d="M259.143,95.227c1.74,-1.005 3.158,0.395 3.158,3.104c-0,2.727 -1.435,5.741 -3.158,6.764c-1.74,1.004 -3.158,-0.395 -3.158,-3.122c0,-2.709 1.418,-5.741 3.158,-6.746Z" style="fill:#d19918;"/></g></g><path d="M46.62,119.86l6.207,3.588l0,143.531l-6.207,-3.588l-0,-143.531Z" style="fill:#495867;"/><g><path d="M18.936,111.571l6.298,-3.642l-0,18.175l47.239,-27.271l0,-18.174l6.28,-3.643l-0,25.459l-54.596,37.551l-5.203,-3.014l0,-25.441l-0.018,0Z" style="fill:#495867;"/><path d="M24.857,133.603l0.377,-7.499l47.239,-27.271l6.28,3.642l-53.896,31.11l-0,0.018Z" style="fill:#5a6c7e;"/><path d="M24.139,114.568l6.28,-3.643l-0,18.175l47.239,-27.271l0,-18.174l6.298,-3.624l-0,25.44l-59.817,34.555l0,-25.476l0,0.018Z" style="fill:#6b7a90;"/><path d="M76.815,33.473c10.28,-5.939 24.49,2.261 24.49,14.138c-0,11.877 -10.496,26.876 -20.776,32.814c-10.298,5.921 -22.355,-2.817 -22.355,-14.694c-0,-11.877 8.361,-26.32 18.641,-32.258Z" style="fill:#aaccc9;"/><path d="M77.945,81.645l-5.759,-3.319l0,3.983l5.741,3.319l0,-3.983l0.018,0Z" style="fill:#a0d6d2;"/><path d="M87.382,75.94l-9.437,5.454l0,4.234l9.437,-5.454l0,-4.234Z" style="fill:#cce9e7;"/><path d="M82.664,36.846c10.28,-5.921 18.623,-1.112 18.623,10.765c-0,11.877 -8.343,26.32 -18.605,32.24c-10.281,5.939 -18.641,1.13 -18.641,-10.765c-0,-11.841 8.36,-26.319 18.641,-32.258l-0.018,0.018Z" style="fill:#cce9e7;"/><path d="M82.664,43.52c7.087,-4.091 12.864,-0.771 12.864,7.428c-0,8.181 -5.777,18.174 -12.864,22.247c-7.105,4.126 -12.864,0.789 -12.864,-7.41c-0,-8.199 5.759,-18.174 12.864,-22.265Z" style="fill:#d5476b;"/><path d="M90.074,48.884l-2.781,-1.614l-12.039,20.865l2.781,1.615l12.039,-20.866Z" style="fill:#8a203b;"/><path d="M78.017,52.616l-2.763,4.826l12.039,6.944l2.781,-4.809l-12.039,-6.961l-0.018,0Z" style="fill:#8a203b;"/><path d="M82.664,43.52c7.087,-4.091 12.864,-0.771 12.864,7.428c-0,8.181 -5.777,18.174 -12.864,22.247c-7.105,4.126 -12.864,0.789 -12.864,-7.41c-0,-8.199 5.759,-18.174 12.864,-22.265Z" style="fill-opacity:0.4;"/><g><path d="M23.278,64.368c10.281,-5.921 24.49,2.278 24.49,14.138c0,11.877 -10.496,26.876 -20.776,32.832c-10.28,5.921 -22.355,-2.817 -22.355,-14.694c0,-11.877 8.361,-26.338 18.641,-32.276Z" style="fill:#aaccc9;"/><path d="M33.864,106.835l-9.456,5.454l0,4.252l9.438,-5.454l-0,-4.252l0.018,-0Z" style="fill:#cce9e7;"/><path d="M24.408,112.558l-5.759,-3.337l0,4.001l5.742,3.319l-0,-3.983l0.017,0Z" style="fill:#a0d6d2;"/><path d="M29.127,67.759c10.28,-5.939 18.641,-1.113 18.641,10.764c0,11.86 -8.361,26.32 -18.641,32.259c-10.28,5.921 -18.623,1.112 -18.623,-10.765c-0,-11.859 8.343,-26.32 18.623,-32.258Z" style="fill:#cce9e7;"/><path d="M29.127,74.415c7.105,-4.091 12.864,-0.772 12.864,7.428c-0,8.199 -5.759,18.174 -12.864,22.265c-7.087,4.108 -12.846,0.771 -12.846,-7.41c0,-8.199 5.741,-18.175 12.846,-22.283Zm-23.09,46.665l2.619,-5.149l-4.198,3.032c-0,0 -1.328,1.938 -0.521,2.727c0.826,0.79 2.1,-0.61 2.1,-0.61Zm6.781,-49.284l4.934,2.888l-2.44,-6.387c0,-0 -1.13,-0.789 -2.153,0.843c-1.004,1.615 -0.341,2.656 -0.341,2.656Zm38.951,23.61l-3.983,-0.897l1.561,4.468c-0,-0 1.166,0.717 2.153,-0.951c0.969,-1.651 0.269,-2.62 0.269,-2.62Zm6.172,-24.525l-5.419,4.736l5.473,-1.256c-0,0 1.668,-1.184 1.507,-2.655c-0.18,-1.453 -1.561,-0.843 -1.561,-0.843l-0,0.018Zm-4.055,-4.486l-3.104,4.88l4.216,-2.225c0,0 1.507,-1.758 0.879,-2.78c-0.627,-1.041 -1.973,0.143 -1.973,0.143l-0.018,-0.018Zm-52.03,51.492l4.593,-5.634l-5.167,2.512c0,-0 -1.615,1.471 -1.22,2.745c0.395,1.292 1.794,0.377 1.794,0.377Z" style="fill:#55af55;"/><path d="M37.183,80.623l-2.781,-1.615l-9.94,17.224l2.781,1.614l9.94,-17.223Z" style="fill:#357035;"/><path d="M24.229,89.755l-2.781,4.808l5.741,3.319l2.781,-4.826l-5.741,-3.319l0,0.018Z" style="fill:#357035;"/></g></g><path d="M59.053,119.86l-6.226,3.588l0,136.354l6.226,-3.588l0,-136.354Z" style="fill:#6b7a90;"/><path d="M93.168,265.185l-15.474,8.97l6.208,3.589l15.492,-8.971l-6.226,-3.588Zm-34.115,-8.971l-6.226,3.588l24.867,14.353l6.208,-3.588l-24.849,-14.353Z" style="fill:#5a6c7e;"/><path d="M99.394,268.773l-15.492,8.942l-0,7.176l15.492,-8.942l-0,-7.176Z" style="fill:#6b7a90;"/><path d="M83.902,277.744l-31.075,-17.942l0,7.177l31.075,17.941l-0,-7.176Z" style="fill:#495867;"/></g><defs><radialGradient id="_Radial2" cx="0" cy="0" r="1" gradientUnits="userSpaceOnUse" gradientTransform="matrix(73.3355,-1.82468,0.776876,72.2137,229.109,145.427)"><stop offset="0" style="stop-color:#27b3de;stop-opacity:0"/><stop offset="1" style="stop-color:#0096c4;stop-opacity:1"/></radialGradient></defs></svg>